<svg width="137" height="129" viewBox="0 0 137 129" fill="none" xmlns="http://www.w3.org/2000/svg">
<path d="M111.627 37.2948C111.627 37.8388 111.6 38.3899 111.541 38.9445C111.048 33.263 106.28 31.1121 100.475 34.1661C94.337 37.3979 89.3618 45.2233 89.3618 51.6478C89.3618 57.699 93.7812 60.3477 99.4297 57.923C98.9521 58.2288 98.4628 58.5132 97.9696 58.7727C97.0615 59.2527 96.169 59.626 95.3117 59.8998C93.5229 60.4722 91.8631 60.6108 90.3992 60.362L90.6536 60.8953L88.3715 59.6971C85.8663 58.4243 84.3123 55.6476 84.3123 51.6691C84.3123 43.7762 90.4266 34.1626 97.9657 30.1912C101.72 28.2144 105.121 28.0118 107.591 29.281L107.615 29.2917C107.615 29.2917 107.63 29.2988 107.638 29.3024L109.834 30.4614C109.834 30.4614 109.85 30.4685 109.858 30.4721L109.321 30.5574C110.32 31.5885 111.036 32.9893 111.388 34.7136C111.549 35.5065 111.631 36.3669 111.631 37.2913L111.627 37.2948Z" fill="#363535"/>
<path d="M109.857 30.4716C109.857 30.4716 109.842 30.4645 109.834 30.461C107.387 29.341 104.099 29.597 100.474 31.5062C92.9314 35.4776 86.821 45.0948 86.821 52.9842C86.821 56.8417 88.285 59.5722 90.6572 60.8948C93.1389 62.2743 96.6227 62.1143 100.474 60.0842C108.018 56.1164 114.128 46.4956 114.128 38.6063C114.128 34.5176 112.484 31.6911 109.853 30.4716H109.857ZM89.3654 51.6473C89.3654 45.2228 94.3406 37.3975 100.478 34.1657C106.283 31.108 111.051 33.259 111.544 38.9441C110.836 45.9517 105.782 53.8766 99.4333 57.9261C93.7848 60.3473 89.3654 57.7021 89.3654 51.6509V51.6473Z" fill="#696767"/>
<path d="M111.384 34.7169C109.466 31.4353 105.301 30.6531 100.475 33.1987C93.8242 36.7008 88.4341 45.1803 88.4341 52.1417C88.4341 57.1689 91.2446 60.0274 95.3156 59.9066C96.8814 59.8639 98.6311 59.3733 100.479 58.4026C107.129 54.9006 112.519 46.4211 112.519 39.4597C112.519 37.5505 112.116 35.9577 111.388 34.7169H111.384ZM89.3618 51.651C89.3618 45.2265 94.337 37.4012 100.475 34.1693C106.28 31.1117 111.048 33.2627 111.541 38.9477C110.832 45.9553 105.779 53.8802 99.4296 57.9298C93.7812 60.351 89.3618 57.7058 89.3618 51.6546V51.651Z" fill="#363535"/>
<path d="M104.146 44.0284L102.064 42.9298C101.618 42.6809 100.991 42.7093 100.295 43.0755C98.9364 43.7901 97.8364 45.5216 97.8364 46.9437C97.8364 47.6655 98.1222 48.1668 98.5802 48.3943L100.737 49.5249L100.948 47.9428L100.878 47.8361C101.954 46.9935 102.753 45.5607 102.753 44.3519C102.753 44.3412 102.753 44.3306 102.753 44.3199L102.906 44.3377L104.15 44.0248L104.146 44.0284Z" fill="#525050"/>
<path d="M100.216 46.2326L101.011 33.38L101.802 32.9604L102.596 44.9776L100.216 46.2326Z" fill="#363535"/>
<path d="M102.596 45.7488L101.868 57.581C101.567 57.7765 101.261 57.9614 100.952 58.1356L100.216 47.0038L102.596 45.7488Z" fill="#363535"/>
<path d="M112.516 39.6445C112.516 39.9823 112.496 40.32 112.465 40.6649L101.774 47.0432V44.5509L112.516 39.6445Z" fill="#363535"/>
<path d="M101.038 47.4308L89.1582 52.8563V52.0243L101.038 44.9385V47.4308Z" fill="#363535"/>
<path d="M110.186 33.2309L102.874 45.8275L101.191 44.9494L109.623 32.79C109.819 32.9216 110.006 33.0709 110.186 33.2309Z" fill="#363535"/>
<path d="M102.357 46.6453L93.3935 59.569L92.8298 59.2774L100.67 45.7671L102.357 46.6453Z" fill="#363535"/>
<path d="M101.774 44.6434L92.8105 41.1592L92.2507 42.0409L100.091 47.2922L101.774 44.6434Z" fill="#363535"/>
<path d="M109.349 49.6423C109.137 50.0014 108.914 50.3534 108.679 50.7018L100.608 47.566L102.295 44.9172L109.349 49.6423Z" fill="#363535"/>
<path d="M100.06 48.11C100.06 49.5321 101.16 50.1045 102.518 49.3899C103.876 48.6753 104.976 46.9438 104.976 45.5217C104.976 44.0996 103.876 43.5271 102.518 44.2418C101.16 44.9564 100.06 46.6879 100.06 48.11Z" fill="#525050"/>
<path d="M101.328 47.694C101.328 48.661 102.076 49.0486 103 48.565C103.923 48.0779 104.671 46.9011 104.671 45.9341C104.671 44.967 103.923 44.5795 103 45.063C102.076 45.5501 101.328 46.7269 101.328 47.694Z" fill="#999797"/>
<path d="M74.6079 58.9182L76.6904 66.0361L77.7903 65.2894L76.7765 57.7805L74.6079 58.9182Z" fill="#428784"/>
<path d="M82.0692 62.3704C82.0692 62.5944 82.0575 62.8184 82.034 63.0459C81.8305 60.7172 79.8772 59.8319 77.4933 61.0869C74.9763 62.4131 72.9369 65.6236 72.9369 68.2581C72.9369 70.7397 74.7493 71.8277 77.0666 70.8322C76.8709 70.9566 76.6713 71.0739 76.4677 71.1806C76.0959 71.3761 75.7279 71.529 75.3756 71.6428C74.6436 71.8774 73.9625 71.9343 73.3597 71.8312L73.4654 72.0516L72.5298 71.561C71.5003 71.0384 70.8662 69.9007 70.8662 68.2687C70.8662 65.0334 73.3754 61.0869 76.4677 59.4586C78.0061 58.648 79.4035 58.5626 80.4134 59.0853C80.4134 59.0853 80.4291 59.0924 80.433 59.0924L81.3333 59.5688C81.3333 59.5688 81.3412 59.5688 81.3412 59.5723L81.122 59.6079C81.533 60.031 81.8226 60.6034 81.9675 61.3109C82.034 61.6345 82.0692 61.99 82.0692 62.3669V62.3704Z" fill="#363535"/>
<path d="M81.3449 59.5723C81.3449 59.5723 81.3371 59.5723 81.3371 59.5688C80.335 59.1101 78.9845 59.2132 77.497 59.999C74.4046 61.6273 71.8955 65.5702 71.8955 68.8091C71.8955 70.3913 72.4944 71.5112 73.4691 72.0552C74.4868 72.6205 75.9156 72.5565 77.497 71.721C80.5894 70.0926 83.0985 66.1497 83.0985 62.9108C83.0985 61.2327 82.4253 60.0736 81.3449 59.5759V59.5723ZM72.9407 68.2581C72.9407 65.6235 74.9801 62.4131 77.497 61.0869C79.877 59.8319 81.8342 60.7172 82.0377 63.0459C81.7481 65.9222 79.6734 69.1718 77.0704 70.8321C74.753 71.8241 72.9407 70.7397 72.9407 68.2581Z" fill="#696767"/>
<path d="M81.9713 61.3105C81.1845 59.963 79.4778 59.643 77.4971 60.6883C74.7688 62.1246 72.5571 65.6018 72.5571 68.4567C72.5571 70.5188 73.7119 71.6921 75.3794 71.6423C76.0214 71.6246 76.7377 71.4255 77.4971 71.0237C80.2255 69.5873 82.4371 66.1102 82.4371 63.2552C82.4371 62.4731 82.2727 61.8189 81.9713 61.3105ZM72.9407 68.2541C72.9407 65.6196 74.9801 62.4091 77.4971 61.0829C79.8771 59.8279 81.8343 60.7132 82.0378 63.0419C81.7482 65.9182 79.6735 69.1678 77.0704 70.8282C74.7531 71.8201 72.9407 70.7357 72.9407 68.2541Z" fill="#363535"/>
<path d="M82.0536 63.4548C82.0536 66.0893 80.0142 69.2998 77.4972 70.6259C77.3524 70.7006 77.2115 70.7681 77.0706 70.8321C79.6736 69.1718 81.7444 65.9222 82.0379 63.0459C82.0497 63.1774 82.0575 63.3161 82.0575 63.4548H82.0536Z" fill="white"/>
<path d="M79 65.1327L78.1467 64.6812C77.9627 64.5781 77.7043 64.5887 77.4225 64.7416C76.8667 65.0331 76.4126 65.7442 76.4126 66.3273C76.4126 66.6224 76.53 66.8286 76.7179 66.921L77.6026 67.3832L77.6887 66.7362L77.6613 66.6935C78.1036 66.3486 78.4285 65.762 78.4285 65.2642C78.4285 65.2607 78.4285 65.2571 78.4285 65.25L78.4911 65.2571L79 65.1291V65.1327Z" fill="#525050"/>
<path d="M77.3875 66.036L77.7163 60.7634L78.0412 60.5928L78.3661 65.5205L77.3875 66.036Z" fill="#363535"/>
<path d="M78.3658 65.8367L78.0683 70.6897C77.943 70.7715 77.8217 70.8462 77.6925 70.9173L77.3911 66.3522L78.3697 65.8367H78.3658Z" fill="#363535"/>
<path d="M82.433 63.3337C82.433 63.4724 82.4252 63.6111 82.4134 63.7533L78.0293 66.37V65.3496L82.433 63.3373V63.3337Z" fill="#363535"/>
<path d="M77.7279 66.5264L72.8545 68.752V68.4107L77.7279 65.5024V66.5264Z" fill="#363535"/>
<path d="M81.4779 60.703L78.4795 65.869L77.7905 65.5099L81.2469 60.5217C81.3252 60.5751 81.4035 60.6391 81.4779 60.703Z" fill="#363535"/>
<path d="M78.2681 66.2028L74.5925 71.5039L74.3616 71.3865L77.5753 65.8438L78.2681 66.2028Z" fill="#363535"/>
<path d="M78.0294 65.3814L74.3538 63.9521L74.1228 64.3148L77.3365 66.4693L78.0294 65.3814Z" fill="#363535"/>
<path d="M81.1337 67.4329C81.0476 67.5787 80.9536 67.7245 80.8597 67.8667L77.552 66.5796L78.2449 65.4917L81.1376 67.4294L81.1337 67.4329Z" fill="#363535"/>
<path d="M77.3247 66.8034C77.3247 67.3865 77.7749 67.6212 78.3346 67.3296C78.8905 67.0345 79.3445 66.327 79.3445 65.7439C79.3445 65.1609 78.8944 64.9262 78.3346 65.2177C77.7788 65.5093 77.3247 66.2204 77.3247 66.8034Z" fill="#525050"/>
<path d="M77.8455 66.6368C77.8455 67.0315 78.1508 67.1914 78.5305 66.9923C78.9102 66.7932 79.2155 66.3097 79.2155 65.9151C79.2155 65.5204 78.9102 65.3604 78.5305 65.5595C78.1508 65.7586 77.8455 66.2422 77.8455 66.6368Z" fill="#999797"/>
<path d="M78.2131 60.8097L74.6079 58.9182L76.7765 57.7805L80.3817 59.672L78.2131 60.8097Z" fill="#58B5B1"/>
<path d="M78.2134 60.8098V66.5908L79.0002 66.15L80.382 59.6721L78.2134 60.8098Z" fill="#428784"/>
<path d="M99.126 44.8625L77.2703 56.1074L77.8317 57.0076L99.6875 45.7627L99.126 44.8625Z" fill="#363535"/>
<path d="M78.186 46.147V59.3693C78.1742 59.4333 78.1155 59.4973 78.0255 59.5471C77.8024 59.6644 77.4344 59.6644 77.2074 59.5471C77.1056 59.4902 77.0508 59.4227 77.043 59.3551V46.1541H78.186V46.147Z" fill="#363535"/>
<path d="M77.7671 47.5198L99.8522 35.8866V28.4844L77.7671 40.1139V47.5198Z" fill="#363535"/>
<path d="M77.7672 47.5198L76.7729 46.9971V39.5913L77.7672 40.1139V47.5198Z" fill="#4F4E4E"/>
<path d="M98.858 27.9617L99.8523 28.4843L77.7672 40.1139L76.7729 39.5912L98.858 27.9617Z" fill="#696767"/>
<path d="M99.3554 23.0836L80.758 32.6688C79.3919 33.3692 78.5229 34.6953 78.4877 36.1282L78.4094 39.5057V39.5306C78.4094 39.6017 78.3467 39.6728 78.245 39.7262C78.0218 39.84 77.6578 39.84 77.4347 39.7262C77.3212 39.6657 77.2664 39.5946 77.2664 39.5164V39.5057L77.3446 36.1068C77.3877 34.3149 78.4798 32.651 80.1943 31.7728L98.7917 22.1912L99.3554 23.0942V23.0836Z" fill="#363535"/>
<path d="M112.339 44.3838C112.339 43.9891 112.034 43.5092 111.658 43.3101C111.478 43.2141 111.314 43.2034 111.192 43.2603C111.185 43.2638 111.173 43.271 111.165 43.2745L106.718 45.6068L107.716 47.1036L112.14 44.7855C112.14 44.7855 112.148 44.7855 112.148 44.782C112.265 44.7144 112.343 44.5758 112.343 44.3838H112.339Z" fill="#696767"/>
<path d="M107.877 46.7233C107.877 47.118 107.571 47.278 107.196 47.0789C106.82 46.8798 106.514 46.3998 106.514 46.0052C106.514 45.6105 106.82 45.4505 107.196 45.6496C107.571 45.8487 107.877 46.3287 107.877 46.7233Z" fill="#428784"/>
<path d="M107.489 8.21898C107.489 7.82434 107.184 7.34437 106.808 7.14527C106.628 7.04927 106.464 7.03861 106.342 7.09549C106.335 7.09905 106.323 7.10616 106.315 7.10971L101.868 9.44203L102.866 10.9388L107.29 8.62074C107.29 8.62074 107.297 8.62074 107.297 8.61718C107.415 8.54963 107.493 8.41097 107.493 8.21898H107.489Z" fill="#696767"/>
<path d="M103.027 10.5583C103.027 10.9529 102.721 11.1129 102.346 10.9138C101.97 10.7147 101.665 10.2348 101.665 9.84012C101.665 9.44547 101.97 9.28548 102.346 9.48458C102.721 9.68368 103.027 10.1637 103.027 10.5583Z" fill="#428784"/>
<path d="M107.505 46.6308C107.505 46.7552 107.454 46.837 107.372 46.8725L103.328 48.8706C102.878 49.0911 102.393 49.2013 101.907 49.2013C101.383 49.2013 100.858 49.0733 100.385 48.8173C99.4726 48.3267 98.9285 47.4592 98.9246 46.4957L98.8267 14.8068C98.815 12.766 100.009 10.8639 101.943 9.83994C101.958 9.82572 101.982 9.81505 102.005 9.80794C102.072 9.78305 102.166 9.79372 102.264 9.84705C102.487 9.96438 102.671 10.2524 102.671 10.487C102.671 10.5866 102.635 10.6612 102.585 10.7039L102.53 10.7323C102.53 10.7323 102.522 10.7323 102.518 10.7394C100.937 11.575 99.9619 13.1322 99.9698 14.8032L100.068 46.4957C100.068 47.0894 100.404 47.6263 100.968 47.9285C101.532 48.2342 102.213 48.2413 102.784 47.9605L106.789 45.9837C106.789 45.9837 106.82 45.9659 106.836 45.9588C106.906 45.9304 107 45.941 107.102 45.9944C107.325 46.1152 107.505 46.3997 107.505 46.6343V46.6308Z" fill="#363535"/>
<path d="M99.0888 21.2528C98.9362 21.1888 98.7522 21.1852 98.5878 21.2706L86.8367 27.4107C86.2809 27.7022 85.7799 28.2391 85.4158 28.8684C85.0557 29.5012 84.8287 30.2265 84.8287 30.8949L82.9341 29.8923C82.9341 28.5484 83.8344 26.9876 84.9422 26.4081L96.6932 20.2644C96.8968 20.1577 97.1277 20.1862 97.2921 20.2964L99.0849 21.2457L99.0888 21.2528Z" fill="#929090"/>
<path d="M86.003 28.0756C85.7838 28.3103 85.5841 28.5841 85.4197 28.872C85.0596 29.5049 84.8326 30.2302 84.8326 30.8986L82.938 29.896C82.938 28.9147 83.4195 27.8125 84.1123 27.0659L86.003 28.0721V28.0756Z" fill="#696767"/>
<path d="M99.4022 21.6971V23.2756L84.8289 30.8983C84.8289 30.2264 85.0559 29.5011 85.416 28.8718C85.7801 28.2389 86.2811 27.7056 86.8369 27.4141L98.588 21.274C98.7524 21.1851 98.9364 21.1886 99.089 21.2562L99.1595 21.2917C99.3004 21.3771 99.4022 21.5228 99.4022 21.7006V21.6971Z" fill="#363535"/>
<path d="M77.8494 49.7131L75.0506 51.1566C74.4361 51.473 73.9742 51.985 73.7628 52.5965L66.7051 72.7447C66.7051 72.7447 66.7051 72.7554 66.7051 72.7589L66.6738 72.8478C66.6464 72.8905 66.5994 72.9296 66.5329 72.9651C66.3058 73.0896 65.9261 73.086 65.6952 72.9651C65.5621 72.8976 65.5034 72.8016 65.523 72.7127L65.5386 72.6665L72.6746 52.2801C72.976 51.4197 73.6219 50.698 74.487 50.2535L77.2858 48.8101L77.8494 49.7131Z" fill="#363535"/>
<path d="M99.6449 57.4214L77.7712 45.9056L100.851 33.7534L122.724 45.2728L99.6449 57.4214Z" fill="#58B5B1"/>
<path d="M122.724 45.2725V46.883L99.6448 59.0352V57.4211L122.724 45.2725Z" fill="#16403E"/>
<path d="M77.7712 45.9055V47.5161L99.6449 59.0354V57.4213L77.7712 45.9055Z" fill="#428784"/>
<path d="M121.73 27.0621C121.73 27.0621 108.487 23.3858 99.8562 15.5427V34.2759L121.73 45.7953V27.0621Z" fill="#428784"/>
<path d="M93.7379 72.4604L70.3728 60.2087L73.0424 52.8562L96.4075 65.108L93.7379 72.4604Z" fill="#428784"/>
<path d="M85.8623 85.5763L63.3545 73.7156L68.6311 70.9282L91.139 82.7889L85.8623 85.5763Z" fill="#58B5B1"/>
<path d="M91.1389 82.7891V83.7526L85.8623 86.54V85.5765L91.1389 82.7891Z" fill="#16403E"/>
<path d="M63.3545 73.7153V74.6824L85.8623 86.5395V85.576L63.3545 73.7153Z" fill="#428784"/>
<path d="M94.2507 22.849C93.7262 20.7833 93.6401 18.6217 94.0315 16.5347C94.102 16.1507 94.1411 15.7632 94.1803 15.3792C94.2312 14.917 94.286 14.4584 94.4112 14.0068C93.3074 14.0246 92.2348 14.4548 91.4011 15.1126C89.6591 16.4885 89.1581 18.5364 89.0407 20.5451C88.9624 21.8322 89.0133 23.1263 88.8841 24.4134C88.7275 25.9493 88.5161 27.5243 87.2635 28.6371C86.7273 29.1135 86.2145 29.5971 85.6782 30.0735C84.6605 30.9837 83.5683 31.8192 82.4606 32.6369C82.03 32.9569 81.6033 33.2591 81.2314 33.636C81.0709 33.8031 80.7695 33.9879 80.8008 34.2297C80.8282 34.4537 81.1062 34.6208 81.2627 34.7737C81.6033 35.1114 81.6346 35.6732 81.3293 36.0358C82.1513 36.0038 82.942 35.7478 83.7132 35.4776C84.8679 35.0723 86.007 34.6315 87.1304 34.155C88.614 33.5257 90.0154 32.8182 91.2484 31.8334C91.7651 31.421 92.2622 31.2183 92.6106 30.6317C92.9473 30.0628 93.1077 29.4015 93.2565 28.79C93.4718 27.9047 93.7458 27.0301 94.0746 26.1768C94.2782 25.6506 94.5052 25.1209 94.5404 24.5627C94.5756 23.9832 94.3995 23.4179 94.2547 22.8526L94.2507 22.849Z" fill="#DCD9D9"/>
<path d="M77.7321 35.7301C77.693 35.8723 77.6616 36.0145 77.6303 36.1567C77.6068 36.2669 77.5834 36.3807 77.556 36.4909C77.5129 36.6829 77.4738 36.8749 77.4581 37.0704C77.4268 37.4295 77.4894 37.7957 77.6303 38.1335C77.7164 38.3326 77.8261 38.521 77.9396 38.7059C78.0374 38.8695 78.1392 39.0401 78.2997 39.1574C78.4563 39.2712 78.652 39.3281 78.8438 39.3779C79.1648 39.4596 79.521 39.5201 79.8146 39.3779C80.0377 39.2712 80.1825 39.065 80.2686 38.8517C80.3548 38.6384 80.39 38.4108 80.4487 38.1904C80.7384 37.1273 81.67 36.2776 82.6643 35.7123C83.2358 35.3852 83.1653 34.5426 82.8717 34.0733C82.7112 33.8137 82.4607 33.6004 82.171 33.4618C81.8461 33.3089 81.6113 33.4049 81.3099 33.5435C80.6914 33.828 80.0064 33.9453 79.3253 34.0235C79.11 34.0484 78.8164 34.0306 78.6285 34.1479C78.4132 34.2795 78.2801 34.5746 78.1588 34.7737C77.9748 35.0794 77.8221 35.3994 77.7282 35.7372L77.7321 35.7301Z" fill="#F5A861"/>
<path d="M82.9811 72.119C82.9968 71.7243 82.9498 71.3297 82.8441 70.9528C82.7893 70.7502 82.715 70.5475 82.578 70.3804C82.5819 70.4977 82.5858 70.6186 82.5388 70.7288C82.4997 70.8213 82.3666 70.9635 82.2452 70.9137C82.1474 70.8746 82.0143 70.6293 81.936 70.5475C81.709 70.3164 81.4428 70.1138 81.1492 69.9502C80.5581 69.6231 79.8535 69.4631 79.1646 69.5342C78.7458 69.5769 78.3935 69.8329 78.0725 70.0818C77.0978 70.8284 76.127 71.5714 75.1523 72.3181C73.8253 73.3349 72.4905 74.3553 71.3162 75.5214C71.1909 75.6423 71.0148 75.9232 70.8386 75.9623C70.6703 76.0014 70.4746 75.877 70.4511 75.7206C70.4472 75.6886 70.4433 75.6459 70.4081 75.6317C70.3689 75.6174 70.3337 75.6494 70.3102 75.6814C70.2437 75.7668 70.181 75.8592 70.1262 75.9516C69.7778 76.5347 69.6487 77.2209 69.7544 77.8751C69.8013 78.1524 69.907 78.4368 70.1223 78.6466C70.6038 79.1124 71.508 79.2546 72.1774 79.2972C73.7666 79.4003 75.2071 78.7497 76.3932 77.836C76.585 77.6867 76.7729 77.5338 76.9569 77.3738C77.3444 77.0396 77.6967 76.6769 78.049 76.3143C78.3582 75.9943 78.7144 75.4966 79.1372 75.3081C79.8653 74.981 80.7969 75.4148 81.4702 74.9597C82.4527 74.2949 82.9459 73.2105 82.9851 72.1154L82.9811 72.119Z" fill="#F55D59"/>
<path d="M82.8246 70.9495C82.5741 69.4101 80.9653 68.1977 79.2351 68.3683C78.8163 68.411 78.464 68.667 78.143 68.9159C77.1683 69.6625 76.1975 70.4056 75.2228 71.1522C73.8958 72.169 72.561 73.1894 71.3867 74.3556C70.9444 74.7929 70.5216 75.2515 70.2006 75.7706C70.0284 76.0444 69.8875 76.343 69.864 76.6559C69.8131 77.3812 70.4355 77.7403 71.1244 77.8967C72.1618 78.1314 73.2813 78.1989 74.2912 77.8754C75.3363 77.5376 76.2249 76.8976 77.0235 76.215C77.411 75.8808 77.7633 75.5182 78.1156 75.1555C78.4248 74.8355 78.781 74.3378 79.2038 74.1494C79.9319 73.8223 80.8635 74.256 81.5368 73.8009C82.4919 73.1539 83.0047 72.0268 82.8285 70.9531L82.8246 70.9495Z" fill="#DCD9D9"/>
<path d="M77.3484 79.1839C77.2975 79.1733 77.2388 79.1448 77.1801 79.0915C77.0744 78.9991 77.0391 78.8497 77.09 78.7253C75.9901 79.5004 75.262 81.1429 76.1349 82.2842C76.5733 82.8531 77.5323 82.9988 78.2487 83.0593C79.0785 83.1304 79.9201 83.0273 80.7109 82.7926C81.9282 82.4335 83.0164 81.7794 83.9872 81.0221C84.3904 80.7056 84.7779 80.3679 85.0832 79.9697C85.3338 79.639 85.5295 79.2657 85.8466 78.9813C86.2223 78.6471 86.7351 78.4729 87.1579 78.192C88.1052 77.5591 88.5083 76.5601 88.5553 75.5219C88.5866 74.7931 88.4614 74.0251 87.976 73.4456C87.9603 73.5274 87.9682 73.6127 87.9564 73.6945C87.9486 73.7762 87.9134 73.8651 87.839 73.9113C87.6354 74.0393 87.4632 73.6483 87.3575 73.538C87.1618 73.3354 86.9387 73.1505 86.6803 73.0154C86.3554 72.8483 85.9992 72.7239 85.6313 72.6776C85.4629 72.6563 85.2398 72.7096 85.0832 72.6776C84.9306 72.6456 84.7779 72.507 84.6448 72.4252C84.6018 72.3968 84.5509 72.3683 84.4961 72.3719C84.4374 72.3719 84.3904 72.4145 84.3473 72.4537C84.2925 72.5034 84.2377 72.5568 84.1829 72.6065C83.3609 73.378 82.5624 74.1709 81.7638 74.9637C80.8048 75.913 79.8497 76.8694 78.8985 77.8222C78.5423 78.1813 78.1861 78.5369 77.8298 78.896C77.6889 79.0346 77.5402 79.2231 77.3523 79.1804L77.3484 79.1839Z" fill="#F55D59"/>
<path d="M77.3524 78.3519C76.6478 79.0523 75.4109 80.1794 76.1977 81.1997C76.3895 81.4486 76.6987 81.5979 77.0119 81.7046C78.2058 82.1206 79.5602 82.0673 80.7736 81.7046C81.991 81.3455 83.0792 80.6913 84.05 79.934C84.4532 79.6176 84.8407 79.2799 85.146 78.8817C85.3965 78.551 85.5923 78.1741 85.9093 77.8933C86.2851 77.5591 86.7979 77.3848 87.2207 77.104C87.9292 76.6311 88.3519 75.8454 88.4145 75.049C88.4772 74.2526 88.1914 73.4491 87.6982 72.7878C87.4438 72.4465 87.1306 72.1371 86.7392 71.9309C86.4143 71.7638 86.0581 71.6394 85.6901 71.5932C85.5218 71.5718 85.2987 71.6252 85.1421 71.5932C84.9894 71.5612 84.8368 71.4225 84.7037 71.3407C84.6606 71.3123 84.6097 71.2839 84.5549 71.2874C84.4962 71.2874 84.4493 71.3301 84.4062 71.3692C82.9853 72.674 77.8457 77.8577 77.3524 78.3483V78.3519Z" fill="#DCD9D9"/>
<path d="M96.3409 36.7257C96.1726 36.2706 95.9377 35.8191 95.5423 35.4991C95.2057 35.2289 94.7712 35.0725 94.3367 34.9729C91.6749 34.3721 90.0152 36.3915 88.3203 37.8847C86.1439 39.7975 84.0183 41.7565 81.9398 43.7582C80.7694 44.8888 79.6146 46.0301 78.4755 47.1856C76.6123 49.077 75.7863 51.1284 75.6141 53.6527C75.5906 53.9727 75.5789 54.2892 75.571 54.6091C75.528 56.8988 75.8724 59.1707 76.2482 61.439C76.6632 63.9526 76.9959 66.4734 77.2503 69.0048C77.2699 69.179 77.2895 69.3674 77.4069 69.5061C77.5517 69.6803 77.8062 69.7407 78.041 69.7905C79.2741 70.0501 80.6989 70.242 81.701 69.5345C81.8184 69.4527 81.928 69.3568 81.9867 69.2359C82.0689 69.0723 82.0494 68.8839 82.0337 68.7061C81.6775 64.8983 82.206 61.023 83.5721 57.4108C83.6191 57.2863 83.666 57.1619 83.6699 57.0339C83.6739 56.9059 83.6347 56.7779 83.5956 56.657C83.4351 56.1557 83.2354 55.6651 83.0006 55.1887C82.7109 54.602 82.3704 54.0367 82.0572 53.4608C82.2842 53.3968 82.5113 53.3257 82.7305 53.2439C83.8304 52.8279 84.8286 52.2199 85.8777 51.7044C87.8584 50.7267 90.0622 50.0547 91.7375 48.6895C92.7005 47.9037 93.4442 46.9225 94.1253 45.9234C95.0609 44.5439 95.8985 43.0898 96.3644 41.5254C96.8302 39.9611 96.9085 38.2687 96.337 36.7328L96.3409 36.7257Z" fill="#384259"/>
<path d="M107.845 37.7461C107.466 36.2991 106.843 34.9231 106.033 33.7214C106.139 33.8779 105.943 34.692 105.794 34.8094C105.544 35.012 105.054 34.7952 104.749 34.756C103.152 34.5534 101.504 34.7347 99.997 35.2467C99.3081 35.4813 98.6504 35.9791 97.9498 36.1355C97.3978 36.26 96.6502 36.1533 96.0943 36.0929C95.6481 36.715 95.2293 37.355 94.8456 38.0128C94.4425 38.7025 94.0667 39.4313 94.0275 40.21C93.9884 40.9992 94.2937 41.8312 93.9532 42.5565C93.7066 43.0791 93.1781 43.4347 92.6692 43.7653C90.2814 45.3155 87.8976 46.8691 85.5098 48.4193C84.6917 48.949 83.8696 49.4894 83.1964 50.1685C82.1473 51.2351 81.5641 52.4191 81.4936 53.8483C81.4388 54.9434 81.3879 56.0491 81.5053 57.1441C81.9633 61.407 82.4213 65.6734 82.8832 69.9363C82.9654 70.7114 82.9654 71.4687 83.0946 72.2402C83.1024 72.2864 83.1103 72.3362 83.1455 72.3753C83.169 72.4002 83.2003 72.4179 83.2316 72.4357C83.9205 72.8055 84.6878 73.0686 85.4824 73.1219C86.277 73.1752 87.1069 73.001 87.7488 72.5673C87.8467 72.4997 87.9406 72.425 87.9954 72.329C88.0463 72.2295 88.0541 72.1193 88.062 72.0091C88.2303 69.2643 89.2598 66.6583 89.7491 63.9562C89.9526 62.8256 90.0896 61.663 89.8313 60.543C89.7021 59.9813 89.3968 59.4587 89.3302 58.8934C89.2402 58.1396 89.2011 57.3646 89.5495 56.6606C89.8822 55.9922 90.3911 55.4056 90.986 54.9042C91.4988 54.4705 92.0782 54.1007 92.7123 53.8305C94.3916 53.1159 96.1374 52.5968 97.8793 52.0529C99.7387 51.4733 101.567 50.7694 103.215 49.7881C104.256 49.1695 105.223 48.4335 105.99 47.5447C108.327 44.839 108.738 41.113 107.849 37.7461H107.845Z" fill="#4C5978"/>
<path d="M91.6047 15.4004C90.8531 16.0333 90.4577 16.9719 90.3325 17.8927C90.2072 18.8136 90.3207 19.7344 90.4303 20.6481C90.8648 24.367 91.1584 28.1073 91.3111 31.8546C91.358 33.0314 91.225 34.2616 90.72 35.3815C90.6691 35.4917 90.6182 35.6055 90.6339 35.7228C90.6495 35.8366 90.7278 35.929 90.8061 36.0144C92.8025 38.208 96.024 39.2498 99.1869 39.1644C100.807 39.1218 102.436 38.8053 103.966 38.2365C105.27 37.7529 106.546 37.0525 107.47 36.0393C107.846 35.6233 108.257 35.218 108.3 34.6776C108.366 33.8563 108.264 33.0101 108.284 32.1853C108.35 29.5259 108.761 26.8024 110.057 24.3813C110.699 23.1867 111.709 22.0169 111.028 20.6588C110.777 20.1575 110.386 19.7237 109.987 19.3078C108.292 17.5479 106.315 16.0048 104.146 14.7427C103.117 14.1454 102.013 13.5374 100.913 13.0646C99.7975 12.5846 98.1182 12.9188 97.0535 13.3632C95.3547 14.0707 93.0138 14.2129 91.6007 15.404L91.6047 15.4004Z" fill="#E8E4E4"/>
<path d="M95.2997 19.3577L92.4304 31.7516L93.4442 36.594L96.521 34.1195L96.6384 19.7914L95.2997 19.3577Z" fill="#384259"/>
<path d="M95.0844 19.0695C95.0922 19.2259 95.1001 19.457 95.2097 19.585C95.3467 19.7379 95.6089 19.8623 95.8047 19.937C96.0552 20.033 96.337 20.0721 96.6032 20.0152C96.658 20.0046 96.7167 19.9868 96.7637 19.9583C96.8067 19.9299 96.842 19.8908 96.8772 19.8552C97.5701 19.0766 98.0085 18.1167 98.1337 17.1247C97.848 17.2705 97.4448 17.1887 97.253 16.9434C97.1003 16.7443 97.069 16.4599 96.842 16.3283C96.7128 16.2537 96.5523 16.2537 96.3997 16.2643C95.8164 16.3034 95.5385 16.7585 95.3936 17.2207C95.2723 17.6011 95.1705 17.9887 95.1196 18.3798C95.0922 18.5931 95.0687 18.8348 95.0805 19.0695H95.0844Z" fill="#4C5978"/>
<path d="M95.4877 13.662C95.2176 14.142 95.523 14.5508 95.6326 15.0308C95.7109 15.3686 95.6443 15.6317 95.4525 15.909C95.2725 16.1721 95.3899 16.4565 95.6874 16.6272C95.9536 16.7801 96.2863 16.8014 96.6033 16.8085C97.5976 16.8298 98.5997 16.7516 99.5626 16.5347C100.048 16.4245 100.522 16.2823 100.98 16.101C101.207 16.0085 101.43 15.909 101.645 15.7988C101.837 15.6992 102.095 15.6032 102.197 15.4255C102.33 15.1873 102.385 14.8708 102.428 14.6077C102.483 14.27 102.408 14.0602 102.221 13.7793C102.021 13.4842 101.907 13.1465 101.81 12.8123C101.516 11.8097 101.328 10.7822 101.25 9.74756C100.737 10.5937 100.216 11.4506 99.4609 12.1296C98.7054 12.8052 97.6642 13.2887 96.6073 13.1963C96.4546 13.182 96.298 13.1571 96.1454 13.1785C95.8557 13.2176 95.6208 13.4238 95.4917 13.662H95.4877Z" fill="#F5A861"/>
<path d="M101.39 14.1493C101.308 14.256 101.222 14.3591 101.136 14.4551C100.615 15.0559 99.9108 15.5039 99.1984 15.8986C98.3881 16.3465 97.5034 16.7554 96.5562 16.7554C96.9437 17.5554 97.386 18.334 97.8792 19.0842C99.3471 18.4549 100.67 17.5447 101.731 16.4283C102.138 16.0017 102.51 15.5288 102.714 14.9884C102.811 14.7217 102.866 14.4373 102.843 14.1564C102.819 13.8685 102.663 13.5769 102.533 13.3174C102.498 13.2427 102.459 13.1716 102.42 13.0969C102.314 12.9014 102.181 12.6916 102.017 12.5352C101.911 12.4321 101.743 12.4001 101.778 12.5885C101.798 12.7059 101.805 12.8232 101.805 12.9441C101.798 13.3707 101.668 13.7938 101.398 14.1458L101.39 14.1493Z" fill="#DCD9D9"/>
<path d="M95.6246 17.7293C95.5189 17.8502 95.4172 17.9746 95.288 18.0777C95.0766 18.2484 94.7987 18.355 94.5168 18.3693C94.8457 18.0457 94.9318 17.5729 94.9474 17.132C94.9631 16.6911 94.9239 16.2396 95.0649 15.8165C95.1705 15.5001 95.378 15.2121 95.652 14.9988C95.5659 15.0663 95.8282 15.6459 95.8673 15.7312C95.9808 15.9801 96.1296 16.2112 96.3136 16.4245C96.3723 16.492 96.5797 16.6414 96.5954 16.7231C96.6189 16.8405 96.4036 16.9364 96.3214 17.0111C96.0709 17.2351 95.8438 17.484 95.6285 17.7328L95.6246 17.7293Z" fill="#DCD9D9"/>
<path d="M103.872 7.21623C104.08 6.28472 104.045 5.31056 103.767 4.39683C103.638 3.97374 103.544 3.64665 103.262 3.27334C102.972 2.89291 102.632 2.54449 102.268 2.22451C101.524 1.56677 100.561 1.14723 99.5705 0.869916C99.183 0.7597 98.7915 0.670816 98.3884 0.635263C96.666 0.475272 94.9515 1.31434 93.8711 2.54449C93.3153 3.17734 92.9043 3.90975 92.6655 4.68837C92.4228 5.47055 92.4385 6.25984 92.3641 7.06335C92.3484 7.21623 92.3367 7.36911 92.3641 7.51843C92.3993 7.6962 92.4972 7.85975 92.5481 8.03396C92.6851 8.50327 92.4815 8.99035 92.4072 9.47032C92.2388 10.5227 92.6655 11.5715 92.8299 12.6239C92.8886 12.9937 92.9121 13.3705 93.0178 13.7296C93.1235 14.0887 93.3192 14.4443 93.6519 14.6647C94.0669 14.9385 94.6149 14.9633 95.1237 14.942C97.0496 14.8567 98.9403 14.2309 100.479 13.1714C100.573 13.1039 100.67 13.0328 100.725 12.9368C100.768 12.8586 100.776 12.7732 100.784 12.6879C100.839 12.1759 100.894 11.664 100.948 11.1485C101.281 11.2622 101.665 11.1662 101.95 10.9742C102.236 10.7822 102.436 10.5049 102.608 10.2241C102.925 9.7192 103.176 9.18234 103.348 8.62415C103.497 8.14418 103.759 7.72464 103.872 7.22334V7.21623Z" fill="#F5CDAA"/>
<path d="M97.5504 8.52813C97.4212 8.40725 97.2725 8.3077 97.1159 8.21526C96.9789 8.13704 96.8497 8.04815 96.7166 7.96994C96.4739 7.82772 96.0551 7.85616 95.7772 7.86683C95.4327 7.88105 95.0961 7.96283 94.7516 7.98416C94.6851 7.98771 94.6616 8.08015 94.7046 8.12637C94.7477 8.16904 94.8142 8.18681 94.8769 8.19748C95.3349 8.28281 95.8085 8.21526 96.2704 8.22948C96.6971 8.24014 97.1433 8.42147 97.5504 8.52813Z" fill="#5F494D"/>
<path d="M92.2389 7.43649C92.2977 7.48271 92.3681 7.51115 92.4386 7.53959C92.693 7.63914 92.9357 7.76358 93.1823 7.87735C93.2684 7.91646 93.3585 7.95557 93.4563 7.95201C93.4172 7.78136 93.2763 7.64625 93.1353 7.52893C92.9435 7.37249 92.6774 7.13784 92.419 7.09517C92.1998 7.05962 92.0589 7.29427 92.2389 7.43649Z" fill="#5F494D"/>
<path d="M98.0712 11.2302C98.0438 11.7529 97.5506 12.1546 96.9752 12.1297C96.3998 12.1049 95.9574 11.6569 95.9848 11.1342C96.0123 10.6116 96.5055 10.2099 97.0809 10.2347C97.6563 10.2596 98.0986 10.7076 98.0712 11.2302Z" fill="#F58E81"/>
<path d="M93.2015 9.86841C93.2289 9.7582 93.2367 9.64087 93.1858 9.54132C93.1349 9.43821 93.0175 9.36 92.8961 9.37777C92.5438 9.43466 92.5712 9.96085 92.6926 10.1742C92.904 10.5475 93.1467 10.0817 93.2015 9.86841Z" fill="#F58E81"/>
<path d="M95.3935 4.5674C96.4269 4.49985 97.4994 4.52119 98.4467 4.14432C98.1727 4.65629 97.9887 5.21092 97.9848 5.77978C97.9809 6.34864 98.1727 6.92461 98.5837 7.3548C99.0926 7.88455 99.9264 8.20453 100.134 8.88361C100.373 8.25786 100.999 7.73878 101.727 7.68545C102.455 7.63212 103.214 8.11921 103.297 8.77695C103.802 7.94144 104.267 7.07038 104.498 6.14243C104.729 5.21092 104.714 4.20831 104.283 3.33725C103.853 2.46619 102.964 1.75867 101.923 1.63068C101.84 1.62001 101.754 1.6129 101.684 1.57735C101.582 1.52758 101.52 1.42803 101.457 1.33914C101.105 0.855613 100.517 0.556963 99.9185 0.354308C98.114 -0.253658 95.9767 -0.086556 94.3953 0.912499C93.7651 1.3107 93.2288 1.82978 92.806 2.41286C92.3989 2.97816 92.0936 3.61457 91.9645 4.27942C91.9057 4.5674 91.7061 6.12465 92.3676 5.97888C92.489 5.95399 92.579 5.858 92.6338 5.75845C92.6886 5.6589 92.7199 5.54868 92.7747 5.44558C92.9626 5.08293 93.5146 4.91227 93.906 4.80206C94.3875 4.6634 94.8924 4.60651 95.3935 4.57096V4.5674Z" fill="#5F494D"/>
<path d="M78.5773 44.0283C78.6321 44.0958 78.6947 44.1598 78.7652 44.2132C79.3132 44.6327 80.0648 44.974 80.6715 45.3402C82.0063 46.1437 85.7642 47.9605 87.189 48.6183C87.8701 48.9347 88.7195 49.2191 89.3654 48.8458C89.7568 48.6183 89.9643 48.1952 90.3283 47.9321C90.6219 47.7188 91.0095 47.6334 91.3813 47.6725C91.671 47.7045 92.0233 47.893 92.2738 47.6548C92.5165 47.4237 92.9079 44.6931 93.1467 43.7723C93.3346 43.047 93.5421 42.3182 93.5617 41.5715C93.6047 39.8365 92.2973 38.8873 90.8724 37.9415C89.4163 36.978 85.3923 35.1826 83.6739 34.6955C83.1063 34.5355 82.4956 34.4004 81.9202 34.5426C80.3897 34.9159 79.7516 36.8607 79.2741 38.0695C78.6947 39.5379 78.362 41.0845 78.2915 42.6453C78.272 43.1003 78.2798 43.6479 78.5773 44.0283Z" fill="#F5C547"/>
<path d="M92.9786 41.742C92.9707 41.486 92.9786 41.2265 92.9316 40.9705C92.8846 40.7003 92.6967 40.3092 92.4345 40.1563C92.0861 39.9501 91.5185 40.0568 91.1858 40.2345C90.7004 40.4976 90.3872 40.9598 90.125 41.4149C89.2951 42.8584 88.7667 44.4405 88.5709 46.0582C88.4966 46.6804 88.2695 47.8217 89.0642 48.1736C89.1972 48.2341 89.3538 48.2625 89.4947 48.2234C89.6787 48.1701 89.8001 48.0172 89.9175 47.8785C90.1054 47.6545 90.3324 47.4448 90.6143 47.331C90.9587 47.1924 91.3423 47.4874 91.6751 47.3026C91.9608 47.1461 91.9921 46.883 92.0626 46.6164C92.1565 46.2751 92.2427 45.9302 92.3249 45.5853C92.4932 44.8814 92.638 44.1703 92.7633 43.4592C92.8611 42.8904 92.9864 42.3109 92.9746 41.7384L92.9786 41.742Z" fill="#F5A244"/>
<path d="M86.4647 35.8047C86.6683 35.8971 86.8718 35.9931 87.0754 36.0926C88.375 36.7291 89.6902 37.3832 90.9311 38.105C91.7061 38.553 92.4851 39.1254 92.9079 39.8827C92.9548 39.9715 93.0018 40.0675 92.9744 40.1635C92.9705 40.1777 92.9627 40.1955 92.9509 40.2062C92.9392 40.2169 92.9235 40.224 92.9079 40.2275C92.7983 40.2595 92.6847 40.1884 92.583 40.1386C92.3794 40.032 92.0741 39.9502 91.8392 39.9502C91.6044 39.9502 91.393 40.0213 91.1777 40.1102C90.156 40.5368 89.428 41.5608 89.0639 42.4923C88.8721 42.9758 88.7429 43.4771 88.6177 43.9749C88.5237 44.3411 88.5864 44.8602 88.2458 45.1232C87.9444 45.3543 87.4708 45.3188 87.1067 45.2619C84.5115 44.8637 82.0415 43.8007 80.0569 42.2327C79.7124 41.959 79.3797 41.671 79.137 41.319C78.679 40.6613 78.7729 39.9751 79.0195 39.264C79.4814 37.9237 79.7868 36.1566 81.0002 35.1754C81.1881 35.0225 81.3956 34.8874 81.6305 34.8056C82.1315 34.6278 82.5543 34.5852 83.0905 34.6741C84.257 34.8732 85.4 35.3282 86.4569 35.8082L86.4647 35.8047Z" fill="#F5D581"/>
<path d="M80.9027 35.5132C80.8909 35.7336 80.8244 35.9469 80.8048 36.1638C80.7891 36.3416 80.8361 36.562 81.0201 36.6189C81.1688 36.6651 81.3215 36.5798 81.4507 36.5015C81.5994 36.4056 81.756 36.3024 81.8226 36.1496C81.8891 36.0038 81.8656 35.8296 81.9478 35.6874C82.0065 35.5878 82.1161 35.5167 82.2023 35.4314C82.4371 35.2038 82.5193 34.8483 82.398 34.5532C82.2492 34.1835 81.8226 33.9737 81.4037 33.9666C80.9653 33.9559 80.8283 34.2617 80.8322 34.6172C80.8361 34.9159 80.9183 35.211 80.8988 35.5132H80.9027Z" fill="#F5CDAA"/>
<path d="M77.7284 36.1177C77.5209 36.1746 77.4426 36.3986 77.4035 36.5906C77.3408 36.8821 77.2978 37.195 77.4152 37.4723C77.4269 37.5007 77.4426 37.5327 77.4387 37.5647C77.4387 37.5896 77.4269 37.6145 77.4152 37.6394C77.2978 37.9345 77.4935 38.2509 77.6814 38.514C77.744 38.5993 77.8027 38.6847 77.8654 38.7736C77.9202 38.8518 77.975 38.9264 78.0376 38.9975C78.3625 39.378 78.8909 39.6268 79.4194 39.5771C79.5016 39.57 79.5916 39.5522 79.6503 39.5024C79.713 39.4491 79.7364 39.3566 79.6816 39.2962C79.8695 39.3211 80.0379 39.1611 80.0653 38.9904C80.0927 38.8198 80.0105 38.6527 79.9165 38.5033C79.9322 38.5282 80.0418 38.4145 80.0496 38.4038C80.0966 38.3362 80.0966 38.2865 80.0927 38.2047C80.0809 38.0483 80.0222 37.8954 79.9283 37.7638C80.0457 37.6785 80.0927 37.5327 80.0966 37.3976C80.1005 37.131 79.9635 36.8821 79.7952 36.6652C79.6268 36.4484 79.4272 36.2493 79.2785 36.0217C79.0279 35.6306 79.1532 35.2538 79.071 34.8342C78.9849 34.3898 78.3899 34.2156 78.0924 34.6031C77.7753 35.0191 77.6657 35.6306 77.7284 36.1213V36.1177Z" fill="#F5CDAA"/>
<path d="M82.5114 42.6916C82.4214 42.6809 82.3392 42.688 82.2765 42.7129C82.1239 42.7769 82.0456 42.9689 81.9908 43.1004C81.8577 43.424 81.8225 43.7724 81.7638 44.1137C81.7481 44.2097 81.7324 44.3057 81.7598 44.3981C81.8107 44.5759 81.9986 44.6861 82.1787 44.7715C82.3705 44.8674 82.578 44.9563 82.7972 44.9634C82.8676 44.9634 82.942 44.9599 83.0046 44.9279C83.1534 44.8532 83.1338 44.5972 83.1651 44.4586C83.2199 44.2168 83.2904 43.9786 83.3765 43.744C83.4274 43.6017 83.5331 43.424 83.49 43.2746C83.443 43.1111 83.2747 42.9689 83.1181 42.8871C82.9811 42.816 82.7267 42.7129 82.5114 42.688V42.6916Z" fill="#F5A244"/>
<path d="M86.0462 33.7957C85.4043 33.9948 84.8719 34.4463 84.5744 34.9974C84.3709 35.3743 84.0381 36.0782 84.547 36.3698C84.731 36.4764 84.9893 36.5013 85.1577 36.3804C85.2594 36.3093 85.3182 36.1955 85.373 36.0924C85.5335 35.7938 85.7253 35.5058 85.9954 35.2854C86.2654 35.0649 86.6295 34.9192 86.9935 34.9512C87.4907 34.9938 87.9017 35.3565 88.0974 35.776C88.2931 36.1955 88.3088 36.6613 88.3088 37.1164C88.3088 37.5892 88.1835 38.3785 88.8881 38.4994C90.3169 38.7412 89.9411 36.352 89.6201 35.6587C89.0682 34.4783 87.5298 33.3335 86.0462 33.7992V33.7957Z" fill="#F5A244"/>
<path d="M95.3822 41.2267C95.0768 41.1947 94.7598 41.1698 94.4623 41.2445C94.0121 41.3583 93.6716 41.6854 93.3388 41.984C93.0061 42.2827 92.6108 42.5742 92.141 42.5955C91.9414 42.6026 91.7339 42.56 91.5421 42.6169C91.2955 42.6915 91.1311 42.9439 91.182 43.1786C91.0998 43.2142 91.0176 43.2497 90.9354 43.2853C90.7436 43.367 90.5479 43.4524 90.403 43.5946C90.2582 43.7368 90.1838 43.9501 90.2739 44.1243C90.0507 44.1954 89.9255 44.4372 89.9646 44.647C90.0077 44.8603 90.1877 45.0345 90.3991 45.1269C90.3443 45.3474 90.5518 45.5465 90.7632 45.6638C90.8493 45.71 90.9393 45.7491 91.0059 45.8167C91.0685 45.8771 91.1076 45.9553 91.1468 46.03C91.413 46.4886 91.9297 46.8015 92.4777 46.9437C93.0257 47.0859 93.6129 47.0753 94.1804 47.0077C94.9907 46.9117 95.7893 46.702 96.5173 46.3571C97.5429 45.87 98.3923 45.1234 99.3983 44.6043C99.2261 44.2701 99.0539 43.9359 98.9638 43.5768C98.8895 43.2924 98.8699 42.9937 98.7525 42.72C98.2632 41.5787 96.5291 41.3476 95.3822 41.2267Z" fill="#F5A861"/>
<path d="M106.98 23.4607C106.526 25.5014 106.382 27.5991 106.55 29.6754C106.656 30.9873 106.796 32.2957 106.843 33.6112C106.871 34.3436 106.949 35.1009 106.749 35.8191C106.538 36.5799 105.697 37.003 105.008 37.4083C102.706 38.7629 100.404 40.1139 98.0282 41.3548C97.852 41.4472 97.6681 41.5432 97.5624 41.6996C97.4919 41.8063 97.4645 41.9343 97.441 42.0587C97.351 42.5671 97.351 43.0933 97.5076 43.5875C97.6642 44.0817 97.993 44.5404 98.4705 44.8212C98.6075 44.903 98.7641 44.9706 98.9285 44.9812C99.0851 44.9919 99.2377 44.9563 99.3865 44.9172C102.679 44.0853 105.826 42.784 108.671 41.0703C109.4 40.633 110.135 40.1424 110.715 39.5273C111.278 38.93 111.502 38.0945 111.697 37.3408C112.179 35.492 112.402 33.5863 112.488 31.6877C112.645 28.1715 112.633 24.5522 111.259 21.2599C111.004 20.6519 110.617 19.948 109.998 19.5853C108.049 18.4512 107.196 22.4652 106.977 23.4571L106.98 23.4607Z" fill="#DCD9D9"/>
<path d="M97.4802 70.9568L99.5627 78.0746L100.663 77.328L99.6488 69.8191L97.4802 70.9568Z" fill="#428784"/>
<path d="M104.941 74.4053C104.941 74.6293 104.929 74.8533 104.906 75.0808C104.702 72.7521 102.749 71.8668 100.365 73.1218C97.8479 74.448 95.8085 77.6585 95.8085 80.293C95.8085 82.7746 97.6209 83.8626 99.9382 82.8671C99.7425 82.9915 99.5429 83.1088 99.3393 83.2155C98.9674 83.411 98.5995 83.5639 98.2472 83.6777C97.5152 83.9123 96.8341 83.9692 96.2313 83.8661L96.337 84.0866L95.4014 83.5959C94.3719 83.0733 93.7378 81.9356 93.7378 80.3037C93.7378 77.0683 96.2469 73.1218 99.3393 71.4935C100.878 70.6829 102.275 70.5975 103.285 71.1202C103.285 71.1202 103.301 71.1273 103.305 71.1273L104.205 71.6037C104.205 71.6037 104.213 71.6037 104.213 71.6073L103.994 71.6428C104.405 72.0659 104.694 72.6419 104.839 73.3458C104.906 73.6694 104.937 74.0249 104.937 74.4018L104.941 74.4053Z" fill="#363535"/>
<path d="M104.217 71.6109C104.217 71.6109 104.209 71.6109 104.209 71.6073C103.207 71.1487 101.857 71.2518 100.369 72.0375C97.2767 73.6659 94.7676 77.6088 94.7676 80.8477C94.7676 82.4299 95.3665 83.5498 96.3412 84.0938C97.3589 84.6591 98.7877 84.5915 100.369 83.7596C103.461 82.1312 105.971 78.1883 105.971 74.9494C105.971 73.2713 105.297 72.1122 104.217 71.6145V71.6109ZM95.8127 80.2966C95.8127 77.6621 97.8521 74.4516 100.369 73.1255C102.749 71.8704 104.706 72.7557 104.91 75.0845C104.62 77.9608 102.546 81.2104 99.9424 82.8707C97.6251 83.8627 95.8127 82.7783 95.8127 80.2966Z" fill="#696767"/>
<path d="M104.843 73.3493C104.056 72.0018 102.35 71.6818 100.369 72.7271C97.6406 74.1635 95.429 77.6406 95.429 80.4955C95.429 82.5577 96.5837 83.7309 98.2512 83.6811C98.8932 83.6634 99.6095 83.4643 100.369 83.0625C103.097 81.6262 105.309 78.149 105.309 75.2941C105.309 74.5119 105.145 73.8577 104.843 73.3493ZM95.8126 80.2929C95.8126 77.6584 97.852 74.4479 100.369 73.1217C102.749 71.8667 104.706 72.752 104.91 75.0807C104.62 77.957 102.545 81.2066 99.9423 82.867C97.6249 83.8589 95.8126 82.7745 95.8126 80.2929Z" fill="#363535"/>
<path d="M104.925 75.4929C104.925 78.1274 102.886 81.3379 100.369 82.664C100.224 82.7387 100.083 82.8062 99.9424 82.8702C102.545 81.2099 104.616 77.9603 104.91 75.084C104.922 75.2155 104.929 75.3542 104.929 75.4929H104.925Z" fill="white"/>
<path d="M101.876 77.1678L101.023 76.7163C100.839 76.6132 100.58 76.6239 100.298 76.7768C99.7427 77.0719 99.2886 77.7794 99.2886 78.3624C99.2886 78.6575 99.406 78.8638 99.5939 78.9562L100.479 79.4184L100.565 78.7713L100.537 78.7286C100.98 78.3838 101.304 77.7971 101.304 77.2994C101.304 77.2958 101.304 77.2923 101.304 77.2852L101.367 77.2923L101.876 77.1643V77.1678Z" fill="#525050"/>
<path d="M100.263 78.0746L100.588 72.802L100.913 72.6313L101.238 77.5591L100.263 78.0746Z" fill="#363535"/>
<path d="M101.238 77.8752L100.94 82.7283C100.815 82.8101 100.694 82.8847 100.565 82.9558L100.263 78.3908L101.242 77.8752H101.238Z" fill="#363535"/>
<path d="M105.305 75.3723C105.305 75.511 105.297 75.6496 105.286 75.7918L100.901 78.4086V77.3882L105.305 75.3759V75.3723Z" fill="#363535"/>
<path d="M100.6 78.565L95.7263 80.7906V80.4493L100.6 77.541V78.565Z" fill="#363535"/>
<path d="M104.354 72.7414L101.355 77.9073L100.667 77.5482L104.123 72.5601C104.201 72.6134 104.279 72.6774 104.354 72.7414Z" fill="#363535"/>
<path d="M101.14 78.2417L97.4644 83.5427L97.2334 83.4218L100.451 77.8826L101.14 78.2417Z" fill="#363535"/>
<path d="M100.901 77.42L97.2258 75.9907L96.9949 76.3534L100.213 78.5079L100.901 77.42Z" fill="#363535"/>
<path d="M104.009 79.4717C103.923 79.6175 103.829 79.7633 103.735 79.9055L100.428 78.6185L101.121 77.5305L104.013 79.4682L104.009 79.4717Z" fill="#363535"/>
<path d="M100.197 78.842C100.197 79.4251 100.647 79.6597 101.206 79.3682C101.762 79.0767 102.216 78.3656 102.216 77.7825C102.216 77.1994 101.766 76.9648 101.206 77.2563C100.651 77.5514 100.197 78.2589 100.197 78.842Z" fill="#525050"/>
<path d="M100.718 78.6715C100.718 79.0661 101.023 79.2261 101.403 79.027C101.782 78.8279 102.088 78.3444 102.088 77.9497C102.088 77.5551 101.782 77.3951 101.403 77.5942C101.023 77.7933 100.718 78.2768 100.718 78.6715Z" fill="#999797"/>
<path d="M101.085 72.8447L97.4802 70.9568L99.6488 69.8191L103.254 71.707L101.085 72.8447Z" fill="#58B5B1"/>
<path d="M101.085 72.8445V78.6291L101.876 78.1882L103.254 71.7068L101.085 72.8445Z" fill="#428784"/>
<path d="M121.997 56.8867L100.143 68.135L100.705 69.0351L122.559 57.7868L121.997 56.8867Z" fill="#363535"/>
<path d="M101.058 58.1858V71.4082C101.046 71.4722 100.992 71.5362 100.898 71.5859C100.674 71.7033 100.306 71.7033 100.079 71.5859C99.9777 71.529 99.9229 71.4615 99.915 71.3939V58.1929H101.058V58.1858Z" fill="#363535"/>
<path d="M100.639 59.5583L122.724 47.9252V40.5229L100.639 52.1525V59.5583Z" fill="#363535"/>
<path d="M100.639 59.5581L99.6448 59.0319V51.6296L100.639 52.1523V59.5581Z" fill="#4F4E4E"/>
<path d="M121.73 40L122.724 40.5226L100.639 52.1522L99.6448 51.6296L121.73 40Z" fill="#696767"/>
<path d="M122.231 35.1219L103.633 44.7071C102.267 45.4075 101.398 46.7337 101.363 48.1665L101.285 51.5441V51.569C101.285 51.6401 101.222 51.7112 101.12 51.7645C100.897 51.8783 100.533 51.8783 100.31 51.7645C100.196 51.7041 100.142 51.633 100.142 51.5547V51.5441L100.22 48.1452C100.263 46.3533 101.355 44.6893 103.07 43.8112L121.667 34.2295L122.231 35.1326V35.1219Z" fill="#363535"/>
<path d="M135.211 56.4224C135.211 56.0277 134.906 55.5477 134.53 55.3486C134.35 55.2526 134.186 55.242 134.064 55.2989C134.056 55.3024 134.045 55.3095 134.037 55.3131L129.59 57.6454L130.588 59.1422L135.012 56.8241C135.012 56.8241 135.019 56.8241 135.019 56.8206C135.137 56.753 135.215 56.6143 135.215 56.4224H135.211Z" fill="#696767"/>
<path d="M130.748 58.7619C130.748 59.1566 130.443 59.3165 130.067 59.1174C129.692 58.9183 129.386 58.4384 129.386 58.0437C129.386 57.6491 129.692 57.4891 130.067 57.6882C130.443 57.8873 130.748 58.3673 130.748 58.7619Z" fill="#428784"/>
<path d="M130.361 20.2573C130.361 19.8627 130.056 19.3827 129.68 19.1836C129.5 19.0876 129.336 19.0769 129.214 19.1338C129.206 19.1374 129.195 19.1445 129.187 19.148L124.74 21.4804L125.738 22.9772L130.161 20.6591C130.161 20.6591 130.169 20.6591 130.169 20.6555C130.287 20.588 130.365 20.4493 130.365 20.2573H130.361Z" fill="#696767"/>
<path d="M125.899 22.593C125.899 22.9876 125.593 23.1476 125.217 22.9485C124.842 22.7494 124.536 22.2694 124.536 21.8748C124.536 21.4801 124.842 21.3202 125.217 21.5193C125.593 21.7184 125.899 22.1983 125.899 22.593Z" fill="#428784"/>
<path d="M130.377 58.6691C130.377 58.7935 130.326 58.8753 130.244 58.9109L126.2 60.909C125.75 61.1294 125.265 61.2396 124.779 61.2396C124.255 61.2396 123.73 61.1116 123.257 60.8556C122.344 60.365 121.8 59.4975 121.796 58.534L121.699 26.8451C121.687 24.8043 122.881 22.9022 124.814 21.8783C124.83 21.864 124.854 21.8534 124.877 21.8463C124.944 21.8214 125.038 21.8321 125.135 21.8854C125.359 22.0027 125.543 22.2907 125.543 22.5253C125.543 22.6249 125.507 22.6996 125.456 22.7422L125.402 22.7707C125.402 22.7707 125.394 22.7707 125.39 22.7778C123.808 23.6133 122.834 25.1705 122.842 26.8415L122.939 58.534C122.939 59.1277 123.276 59.6646 123.84 59.9668C124.403 60.2726 125.085 60.2797 125.656 59.9988L129.66 58.022C129.66 58.022 129.692 58.0042 129.707 57.9971C129.778 57.9687 129.872 57.9794 129.974 58.0327C130.197 58.1536 130.377 58.438 130.377 58.6727V58.6691Z" fill="#363535"/>
<path d="M134.498 49.3327C134.498 49.8766 134.471 50.4277 134.412 50.9823C133.919 45.3009 129.151 43.1463 123.346 46.2039C117.208 49.4358 112.233 57.2611 112.233 63.6856C112.233 69.7368 116.653 72.3856 122.301 69.9608C121.823 70.2666 121.334 70.551 120.841 70.8106C119.933 71.2905 119.04 71.6639 118.183 71.9376C116.394 72.51 114.734 72.6487 113.27 72.3998L113.525 72.9331L111.243 71.735C108.738 70.4621 107.184 67.6854 107.184 63.707C107.184 55.8141 113.298 46.2004 120.837 42.2291C124.591 40.2523 127.993 40.0496 130.463 41.3189L130.486 41.3296C130.486 41.3296 130.502 41.3367 130.51 41.3402L132.706 42.4993C132.706 42.4993 132.721 42.5064 132.729 42.5099L132.193 42.5953C133.191 43.6263 133.907 45.0271 134.26 46.7515C134.42 47.5443 134.502 48.4047 134.502 49.3291L134.498 49.3327Z" fill="#363535"/>
<path d="M132.729 42.51C132.729 42.51 132.714 42.5029 132.706 42.4993C130.259 41.3794 126.971 41.6354 123.347 43.5446C115.803 47.5159 109.693 57.1331 109.693 65.0225C109.693 68.88 111.157 71.6106 113.529 72.9331C116.011 74.3126 119.495 74.1526 123.347 72.1225C130.89 68.1548 137 58.534 137 50.6446C137 46.556 135.36 43.7295 132.725 42.51H132.729ZM112.237 63.6857C112.237 57.2611 117.213 49.4358 123.35 46.204C129.156 43.1464 133.923 45.2974 134.417 50.9824C133.708 57.99 128.655 65.9149 122.305 69.9644C116.657 72.3856 112.237 69.7404 112.237 63.6892V63.6857Z" fill="#696767"/>
<path d="M134.256 46.7515C132.338 43.4699 128.173 42.6878 123.347 45.2334C116.696 48.7354 111.306 57.2149 111.306 64.1728C111.306 69.2 114.116 72.0586 118.187 71.9377C119.753 71.895 121.503 71.4044 123.351 70.4338C130.001 66.9317 135.391 58.4522 135.391 51.4908C135.391 49.5816 134.988 47.9888 134.26 46.748L134.256 46.7515ZM112.234 63.6857C112.234 57.2612 117.209 49.4358 123.347 46.204C129.152 43.1464 133.919 45.2974 134.413 50.9824C133.704 57.99 128.651 65.9149 122.301 69.9644C116.653 72.3856 112.234 69.7405 112.234 63.6892V63.6857Z" fill="#363535"/>
<path d="M127.018 56.0669L124.936 54.9683C124.489 54.7194 123.863 54.7479 123.166 55.1141C121.808 55.8287 120.708 57.5602 120.708 58.9823C120.708 59.7041 120.994 60.2054 121.452 60.4329L123.609 61.5635L123.82 59.9814L123.75 59.8747C124.826 59.0321 125.625 57.5993 125.625 56.3905C125.625 56.3798 125.625 56.3691 125.625 56.3585L125.777 56.3762L127.022 56.0634L127.018 56.0669Z" fill="#525050"/>
<path d="M123.088 58.2709L123.883 45.4183L124.677 44.9988L125.472 57.0159L123.088 58.2709Z" fill="#363535"/>
<path d="M125.468 57.7874L124.74 69.6196C124.439 69.8151 124.133 70 123.824 70.1742L123.088 59.0424L125.468 57.7874Z" fill="#363535"/>
<path d="M135.387 51.6831C135.387 52.0209 135.368 52.3586 135.336 52.7035L124.646 59.0818V56.5895L135.387 51.6831Z" fill="#363535"/>
<path d="M123.91 59.4696L112.03 64.8951V64.0631L123.91 56.9773V59.4696Z" fill="#363535"/>
<path d="M133.058 45.2693L125.746 57.866L124.063 56.9913L132.495 44.832C132.69 44.9636 132.878 45.1129 133.058 45.2729V45.2693Z" fill="#363535"/>
<path d="M125.229 58.68L116.265 71.6073L115.706 71.3158L123.546 57.8054L125.229 58.68Z" fill="#363535"/>
<path d="M124.646 56.6822L115.682 53.198L115.122 54.0797L122.963 59.331L124.646 56.6822Z" fill="#363535"/>
<path d="M132.22 61.6772C132.009 62.0363 131.786 62.3883 131.551 62.7367L123.483 59.6009L125.171 56.9521L132.224 61.6772H132.22Z" fill="#363535"/>
<path d="M124.615 46.8623C117.937 50.3785 112.523 58.8936 112.523 65.8834C112.523 72.8732 117.937 75.6855 124.615 72.1693C131.293 68.653 136.706 60.1379 136.706 53.1517C136.706 46.1654 131.293 43.346 124.615 46.8623ZM124.811 70.9249C118.79 74.0927 113.913 71.5578 113.913 65.2577C113.913 58.9576 118.79 51.2816 124.811 48.1102C130.831 44.9424 135.708 47.4773 135.708 53.781C135.708 60.0846 130.831 67.7571 124.811 70.9285V70.9249Z" fill="#999797"/>
<path d="M119.186 73.4627C115.224 73.4627 112.766 70.558 112.766 65.8827C112.766 58.9746 118.136 50.5307 124.736 47.0535C126.607 46.0687 128.392 45.5674 130.04 45.5674C134.002 45.5674 136.46 48.4721 136.46 53.1474C136.46 60.0519 131.089 68.4994 124.49 71.973C122.618 72.9578 120.833 73.4592 119.182 73.4592L119.186 73.4627ZM129.7 46.5202C128.13 46.5202 126.443 46.9895 124.685 47.9139C118.606 51.1137 113.662 58.8929 113.662 65.2534C113.662 69.6585 116.117 72.5063 119.914 72.5063C121.483 72.5063 123.17 72.037 124.928 71.1126C131.003 67.9128 135.947 60.1337 135.947 53.7731C135.947 49.3645 133.493 46.5167 129.696 46.5167L129.7 46.5202Z" fill="#BDBABA"/>
<path d="M122.932 60.1483C122.932 61.5705 124.032 62.1429 125.39 61.4283C126.748 60.7136 127.848 58.9822 127.848 57.56C127.848 56.1379 126.748 55.5655 125.39 56.2801C124.032 56.9947 122.932 58.7262 122.932 60.1483Z" fill="#525050"/>
<path d="M124.2 59.7321C124.2 60.6991 124.947 61.0866 125.871 60.6031C126.795 60.116 127.543 58.9392 127.543 57.9722C127.543 57.0051 126.795 56.6176 125.871 57.1011C124.947 57.5882 124.2 58.765 124.2 59.7321Z" fill="#999797"/>
<path d="M121.961 33.2911C121.808 33.2271 121.624 33.2236 121.46 33.3089L109.709 39.449C109.153 39.7405 108.652 40.2774 108.288 40.9067C107.928 41.536 107.7 42.2648 107.7 42.9332L105.806 41.9306C105.806 40.5867 106.706 39.0259 107.814 38.4464L119.565 32.3027C119.769 32.1961 120 32.2245 120.164 32.3347L121.957 33.284L121.961 33.2911Z" fill="#929090"/>
<path d="M108.875 40.114C108.656 40.3486 108.456 40.6224 108.292 40.9104C107.931 41.5397 107.704 42.2685 107.704 42.9369L105.81 41.9343C105.81 40.953 106.291 39.8509 106.984 39.1042L108.875 40.1104V40.114Z" fill="#696767"/>
<path d="M122.278 33.7356V35.3142L107.705 42.9369C107.705 42.2649 107.932 41.5396 108.292 40.9103C108.656 40.2775 109.157 39.7442 109.713 39.4526L121.464 33.3125C121.628 33.2237 121.812 33.2272 121.965 33.2948L122.035 33.3303C122.176 33.4157 122.278 33.5614 122.278 33.7392V33.7356Z" fill="#363535"/>
<path d="M101.034 61.8442L98.2354 63.2877C97.6209 63.6041 97.159 64.1161 96.9476 64.7276L89.8899 84.8758C89.8899 84.8758 89.8899 84.8865 89.8899 84.89L89.8586 84.9789C89.8312 85.0216 89.7842 85.0607 89.7177 85.0963C89.4907 85.2207 89.111 85.2171 88.88 85.0963C88.7469 85.0287 88.6882 84.9327 88.7078 84.8438L88.7234 84.7976L95.8594 64.4112C96.1608 63.5508 96.8067 62.8291 97.6757 62.3846L100.474 60.9412L101.038 61.8442H101.034Z" fill="#363535"/>
<path d="M94.0155 67.405L93.2483 102.233C93.2561 102.4 93.1308 102.571 92.8882 102.703C92.575 102.863 92.1405 102.919 91.7412 102.873C91.522 102.848 91.3106 102.791 91.1384 102.699C90.9075 102.578 90.7861 102.425 90.7744 102.265L90.195 77.1289L89.9719 67.3623L94.0077 67.4085L94.0155 67.405Z" fill="#A38380"/>
<path d="M91.9998 75.8989L91.7454 102.87C91.5262 102.845 91.3148 102.788 91.1426 102.696C90.9116 102.575 90.7903 102.422 90.7786 102.262L90.1992 77.1255L91.9998 75.9025V75.8989Z" fill="#E3D5BB"/>
<path d="M93.4398 68.0912C92.6569 68.5036 91.3808 68.5001 90.594 68.0877C89.8072 67.6752 89.8033 67.0068 90.5862 66.5944C91.3691 66.182 92.6452 66.1855 93.432 66.598C94.2188 67.0104 94.2227 67.6788 93.4398 68.0912Z" fill="black"/>
<path d="M91.644 96.431L69.6567 107.947V105.664L91.644 94.1484V96.431Z" fill="#A38380"/>
<path d="M91.6435 94.1479L90.7941 93.675L68.803 105.219L69.6563 105.664L91.6435 94.1479Z" fill="#F0EEE0"/>
<path d="M71.8485 79.0202L71.0774 113.848C71.0852 114.019 70.9639 114.186 70.7173 114.314C70.361 114.499 69.8443 114.545 69.4059 114.46C69.2493 114.428 69.1045 114.378 68.9753 114.311C68.7444 114.19 68.623 114.037 68.6113 113.877L67.9537 85.4056L67.8049 78.9775L71.8446 79.0202H71.8485Z" fill="#A38380"/>
<path d="M70.1261 85.6829L69.4098 114.464C69.2532 114.432 69.1084 114.382 68.9792 114.314C68.7482 114.193 68.6269 114.04 68.6151 113.88L67.9575 85.4092L70.1261 85.6829Z" fill="#E3D5BB"/>
<path d="M71.273 79.7099C70.4902 80.1223 69.2141 80.1187 68.4273 79.7063C67.6405 79.2939 67.6366 78.6255 68.4194 78.2131C69.2023 77.8006 70.4784 77.8042 71.2652 78.2166C72.052 78.629 72.0559 79.2974 71.273 79.7099Z" fill="black"/>
<g style="mix-blend-mode:multiply">
<path d="M93.8515 74.8853L93.7653 78.8246C93.6949 78.8779 93.6088 78.9313 93.5187 78.981C92.6654 79.4254 91.2758 79.4254 90.4146 78.9739C90.3559 78.9419 90.2933 78.9099 90.2424 78.8708L90.2032 77.1216L90.1523 74.9101L93.8554 74.8853H93.8515Z" fill="#A38380"/>
</g>
<g style="mix-blend-mode:multiply">
<path d="M71.6957 85.9922L71.6096 89.9422C71.5431 89.9955 71.4648 90.0453 71.3787 90.088C70.5253 90.5359 69.1357 90.5324 68.2745 90.0844C68.2002 90.0453 68.1258 90.0026 68.0632 89.9529L67.9771 86.0206L71.6996 85.9922H71.6957Z" fill="#A38380"/>
</g>
<path d="M44.1776 41.2694L43.4104 76.0976C43.4182 76.2647 43.293 76.4354 43.0503 76.5634C42.7371 76.7234 42.3026 76.7803 41.9033 76.734C41.6841 76.7092 41.4728 76.6523 41.3005 76.5598C41.0696 76.439 40.9482 76.2861 40.9365 76.1261L40.3572 50.9897L40.134 41.2231L44.1698 41.2694H44.1776Z" fill="#A38380"/>
<path d="M42.1617 49.7627L41.9073 76.7336C41.6881 76.7087 41.4767 76.6519 41.3045 76.5594C41.0735 76.4385 40.9522 76.2857 40.9404 76.1257L40.3611 50.9893L42.1617 49.7627Z" fill="#E3D5BB"/>
<path d="M43.6019 41.9557C42.819 42.3681 41.5429 42.3646 40.7561 41.9522C39.9693 41.5397 39.9654 40.8713 40.7483 40.4589C41.5312 40.0465 42.8073 40.05 43.5941 40.4625C44.3809 40.8749 44.3848 41.5433 43.6019 41.9557Z" fill="black"/>
<path d="M41.8095 70.2955L19.8223 81.8077V79.5287L41.8095 68.0129V70.2955Z" fill="#A38380"/>
<path d="M41.8093 68.0127L40.956 67.5398L18.9648 79.084L19.8221 79.5285L41.8093 68.0127Z" fill="#F0EEE0"/>
<path d="M22.0104 52.8847L21.2392 87.713C21.2471 87.8836 21.1257 88.0507 20.8791 88.1787C20.5229 88.3636 20.0062 88.4098 19.5678 88.3245C19.4112 88.2925 19.2664 88.2427 19.1372 88.1752C18.9063 88.0543 18.7849 87.9014 18.7732 87.7414L18.1155 59.2701L17.9668 52.842L22.0065 52.8847H22.0104Z" fill="#A38380"/>
<path d="M20.288 59.5472L19.5716 88.3278C19.4151 88.2958 19.2702 88.246 19.141 88.1785C18.9101 88.0576 18.7887 87.9047 18.777 87.7447L18.1194 59.2734L20.288 59.5472Z" fill="#E3D5BB"/>
<path d="M21.4349 53.5744C20.652 53.9868 19.3759 53.9832 18.5891 53.5708C17.8023 53.1584 17.7984 52.49 18.5813 52.0776C19.3642 51.6651 20.6403 51.6687 21.4271 52.0811C22.2139 52.4935 22.2178 53.1619 21.4349 53.5744Z" fill="black"/>
<g style="mix-blend-mode:multiply">
<path d="M21.838 60.5894L21.7519 64.5571C21.6932 64.6034 21.6227 64.6425 21.5483 64.6851C20.695 65.1331 19.3054 65.1295 18.4442 64.6816C18.3698 64.6425 18.2955 64.5998 18.2368 64.5536L18.1506 60.6142L21.8419 60.5894H21.838Z" fill="#A38380"/>
</g>
<path d="M69.144 81.7008L14.3149 52.9487L41.8489 38.5139L96.6741 67.2625L69.144 81.7008Z" fill="#F0EEE0"/>
<path d="M69.144 81.3204L14.679 52.7603L14.3149 52.9487L69.144 81.7008L96.6741 67.2625L96.31 67.0741L69.144 81.3204Z" fill="white"/>
<path d="M96.6738 74.8783V67.2627L69.1438 81.701V89.313L96.6738 74.8783Z" fill="#A38380"/>
<path d="M14.3149 60.5645V52.949L69.144 81.7011V89.3132L14.3149 60.5645Z" fill="#E9DCC5"/>
<path d="M15.3835 60.3903V54.1506L67.8875 81.694V87.9336L15.3835 60.3903Z" fill="#E3D5BB"/>
<path d="M15.3794 60.3902L67.8872 87.9335V87.162L15.3794 59.6187V60.3902Z" fill="#F0EEE0"/>
<path d="M15.3794 60.3903L16.5146 60.241L16.5341 54.7515L15.3833 54.1506L15.3794 60.3903Z" fill="#A38380"/>
<path d="M40.1458 102.578C39.954 102.752 39.7505 102.951 39.7505 103.197C39.7505 103.367 39.8483 103.524 39.9501 103.669C40.5255 104.509 41.2027 105.287 41.966 105.991C42.0169 106.041 42.0756 106.091 42.15 106.101C42.2009 106.108 42.2518 106.094 42.2988 106.084C43.2226 105.867 44.2599 106.073 44.9958 106.628C44.8666 105.909 44.7531 105.177 44.8588 104.452C45.0428 103.175 45.8844 102.066 46.3619 100.854C46.7534 99.8617 46.9021 98.7915 46.7964 97.7427C46.4324 98.2973 45.8765 98.7631 45.1993 98.9586C44.5221 99.1542 43.7275 99.0475 43.1991 98.6173C43.0973 98.532 42.9681 98.4324 42.8429 98.4786C42.792 98.4964 42.7568 98.5355 42.7215 98.5746C42.2205 99.1613 42.3183 100 41.9191 100.651C41.4689 101.387 40.7956 101.988 40.1419 102.578H40.1458Z" fill="#F5CDAA"/>
<path d="M34.8459 98.8093C34.8029 98.8698 34.7441 98.916 34.6893 98.9657C34.3018 99.3284 34.3018 99.9292 34.5445 100.384C34.7872 100.839 35.2178 101.184 35.6405 101.518C36.2199 101.974 36.7992 102.432 37.3785 102.887C37.8404 103.25 38.3062 103.62 38.8464 103.879C39.0539 103.979 39.2927 104.064 39.5158 104.004C39.8133 103.922 39.966 103.623 40.0482 103.35C40.4592 101.991 40.1695 100.551 39.9072 99.1613C39.6489 97.7712 39.4297 96.3063 39.9738 94.9873C39.8798 95.4424 39.3749 95.7162 38.9169 95.9259C38.2358 96.2388 37.4294 96.5446 36.7327 96.2566C36.443 96.1357 36.212 95.9259 35.9576 95.7553C35.5388 95.4744 35.0416 96.7259 35.0025 97.0316C34.9359 97.5472 35.1512 98.3685 34.8459 98.8129V98.8093Z" fill="#F5A861"/>
<path d="M40.2985 101.12C40.2711 101.095 40.2398 101.074 40.2046 101.056C39.9854 100.935 39.727 100.893 39.4922 100.8C38.6819 100.477 38.3218 99.62 37.6563 99.0938C37.1787 98.7204 36.5407 98.5249 35.9105 98.564C35.0728 98.6138 34.3251 99.0511 33.9689 99.7337C33.3426 100.939 33.3231 102.414 34.2234 103.517C34.3995 103.733 34.6109 103.933 34.7596 104.167C35.1198 104.74 35.0689 105.447 34.9867 106.101C34.9319 106.532 34.8732 106.98 35.018 107.392C35.1707 107.822 35.5269 108.167 35.9027 108.466C36.3332 108.807 36.799 109.106 37.2844 109.376C37.7933 109.657 38.3296 109.909 38.9089 110.03C39.4882 110.147 40.1185 110.126 40.6508 109.881C40.7839 109.82 40.9092 109.742 40.9914 109.632C41.0775 109.515 41.1049 109.372 41.1245 109.234C41.3437 107.84 41.2067 106.404 40.9914 105.021C40.9522 104.768 40.9013 104.516 40.8544 104.263C40.8113 104.039 40.8505 103.84 40.8426 103.613C40.8231 103.115 40.6587 102.638 40.5804 102.148C40.5256 101.803 40.5999 101.376 40.3024 101.127L40.2985 101.12Z" fill="#57A09D"/>
<path d="M40.7447 107.872C41.0461 108.238 41.692 109.17 41.1048 109.55C40.5294 109.923 39.8013 110.066 39.0968 110.066C38.126 110.066 37.1552 109.799 36.3684 109.287C35.2606 108.565 34.4856 107.292 34.7165 106.034C34.7674 105.746 34.8731 105.461 34.8614 105.17C34.8418 104.74 34.5717 104.356 34.3134 103.993C33.8828 103.381 33.4522 102.695 33.413 101.956C33.4013 101.746 33.413 101.529 33.4952 101.33C34.0433 99.9185 36.388 100.992 36.9125 101.874C37.4253 102.734 37.1082 103.808 37.4018 104.75C37.5349 105.18 37.8011 105.579 38.1573 105.884C38.5213 106.197 38.9754 106.414 39.3864 106.677C39.907 107.008 40.365 107.413 40.7447 107.875V107.872Z" fill="#5F494D"/>
<path d="M38.1731 104.594C38.1457 104.754 38.1378 104.917 38.1496 105.077C38.1809 105.515 38.4275 105.867 38.5371 106.283C38.7954 107.264 38.9364 108.366 39.4531 109.269C39.6566 109.621 39.9228 109.937 40.1968 110.247C40.7957 110.919 41.4377 111.562 42.2166 112.06C42.9917 112.558 43.9155 112.896 44.8667 112.896C45.0898 112.896 45.3247 112.874 45.5047 112.757C45.7592 112.59 45.8414 112.284 45.9001 112.003C46.0958 111.029 46.2093 110.019 45.9745 109.052C45.8727 108.629 45.7239 108.217 45.5869 107.804C45.4499 107.392 45.3638 106.983 45.262 106.567C45.0781 105.82 45.0428 105.052 44.8706 104.306C44.7336 103.712 44.5927 103.033 44.0877 102.589C43.2657 101.863 42.3654 101.483 41.2067 101.693C40.0481 101.902 39.2025 102.571 38.6584 103.509C38.451 103.869 38.2396 104.181 38.1731 104.597V104.594Z" fill="#57A09D"/>
<path d="M45.2696 80.6734C46.0955 79.9836 47.2542 79.5499 48.3542 79.749C50.4758 80.133 50.7067 82.1666 50.7693 83.8128C50.8398 85.6971 50.4366 87.5672 50.0295 89.4053C49.3876 92.3101 48.7456 95.2184 48.1036 98.1231C47.9862 98.6635 47.9979 99.2892 47.8453 99.8048C47.7044 100.278 47.1094 100.679 46.671 100.925C45.6689 101.483 44.3928 101.625 43.2693 101.312C42.0167 100.964 41.8641 100.338 41.9032 99.275C42.0402 95.389 42.1733 91.503 42.3103 87.6134C42.3338 86.9841 42.3534 86.3477 42.5334 85.7398C43.0697 83.9052 43.6764 81.9995 45.2657 80.6698L45.2696 80.6734Z" fill="#5F494D"/>
<path d="M40.6899 96.0326C40.7212 96.2601 40.7643 96.4841 40.823 96.7081C40.8504 96.8112 40.8817 96.9143 40.8621 97.0174C40.8387 97.1277 40.7604 97.2165 40.6782 97.3019C39.9579 98.052 38.9362 98.5605 37.852 98.7062C36.9634 98.8271 35.8987 98.7311 35.104 98.3187C34.6813 98.0983 34.8379 97.8138 34.877 97.4085C34.924 96.9357 34.9592 96.4628 34.9866 95.9864C35.245 91.4746 34.6735 86.97 34.7987 82.4583C34.8222 81.669 34.8653 80.869 35.1432 80.1224C35.5777 78.942 36.5485 77.9785 37.6445 77.2319C38.5918 76.5848 40.1967 76.1724 40.9365 77.3421C41.4454 78.1456 41.2262 79.6815 41.2183 80.5561C41.1831 83.8626 41.0618 87.1727 40.8778 90.4756C40.8152 91.6133 40.7408 92.751 40.6625 93.8887C40.6116 94.5998 40.5881 95.318 40.686 96.029L40.6899 96.0326Z" fill="#3D2A2D"/>
<path d="M40.1735 103.524C40.3261 103.613 40.4631 103.709 40.5649 103.791C41.0777 104.196 41.473 104.726 41.6962 105.309C42.0289 106.169 41.9858 107.122 42.3264 107.982C42.8548 109.326 44.2092 110.233 45.1213 111.395C45.3287 111.662 45.638 112.007 45.728 112.33C45.775 112.501 45.7397 112.704 45.591 112.818C45.5205 112.867 45.4383 112.896 45.3522 112.921C44.1896 113.258 42.9449 112.921 41.9036 112.391C41.383 112.124 40.882 111.772 40.4514 111.399C39.7742 110.809 39.3671 110.005 39.0892 109.188C38.8112 108.373 38.6468 107.527 38.365 106.713C38.2554 106.393 38.1223 106.073 38.0636 105.742C37.9657 105.209 38.0636 104.64 38.2828 104.142C38.412 103.854 38.6429 103.446 38.96 103.289C39.3084 103.119 39.7977 103.303 40.1774 103.524H40.1735Z" fill="#5F494D"/>
<path d="M45.4496 115.943C45.0778 116.074 44.6589 115.907 44.518 115.569L33.8787 90.7884L36.4661 89.8711L45.8724 115.125C45.9977 115.455 45.8098 115.818 45.4536 115.946L45.4496 115.943Z" fill="#E3D5BB"/>
<path d="M0.457667 118.538C0.829536 118.669 1.24838 118.502 1.3893 118.164L12.0287 93.3835L8.36086 95.3639L0.0388257 117.72C-0.0864353 118.051 0.101456 118.413 0.457667 118.541V118.538Z" fill="#E3D5BB"/>
<path d="M20.3349 128.998C19.9396 128.952 19.6617 128.621 19.7126 128.262L23.533 101.888L26.2888 102.216L21.1374 128.461C21.0709 128.806 20.7146 129.041 20.3349 128.994V128.998Z" fill="#E3D5BB"/>
<path d="M37.8715 87.5173C43.9115 90.6851 43.1521 96.2137 36.1805 99.8721L27.0756 104.647L5.20972 93.1809L14.3146 88.4061C21.2862 84.7512 31.8355 84.353 37.8715 87.5208V87.5173Z" fill="#A38380"/>
<path d="M21.1531 82.4014C21.0043 82.4618 20.8595 82.5045 20.7303 82.5116C20.1471 82.54 19.419 81.3348 19.8065 80.8761C18.3191 82.6325 17.4227 84.7799 17.1721 86.9842C16.8864 89.5299 17.3483 92.2497 19.3799 94.1341C21.2157 95.8371 24.0967 96.7188 26.5315 95.5349C27.6197 95.0051 28.6335 94.3616 29.6474 93.7181C31.6907 92.4204 33.7575 91.1049 35.4133 89.4126C37.1082 87.6846 38.3217 85.619 39.4686 83.5533C39.7661 83.0165 40.0597 82.4796 40.2711 81.9107C40.5137 81.2495 40.639 80.5526 40.639 79.8558C40.639 79.0487 40.4355 78.1847 39.7739 77.6479C39.1359 77.1324 38.216 77.0292 37.3626 77.047C34.6226 77.1004 32.0273 78.0923 29.5064 79.0665C27.5101 79.838 25.5177 80.613 23.5213 81.3846C23.0046 81.5837 22.4957 81.7934 21.9829 81.9996C21.7559 82.0921 21.4388 82.277 21.1453 82.3978L21.1531 82.4014Z" fill="#3D2A2D"/>
<path d="M49.9317 84.9465C49.3798 85.9669 48.6321 86.9126 47.8532 87.741C46.0956 89.6147 44.3498 91.499 42.4982 93.2945C41.1243 94.6242 39.6603 95.9077 37.9341 96.8392C33.409 99.2817 25.9403 99.2923 22.801 94.9406C20.7302 92.0679 20.0765 88.3845 21.0551 85.0709C21.2508 84.4061 21.5209 83.7377 22.0337 83.2292C22.0964 83.1653 22.1746 83.1013 22.2686 83.1048C22.343 83.1048 22.4095 83.151 22.4682 83.1973C22.8244 83.4675 23.0671 83.8123 23.4703 84.0185C23.9322 84.2567 24.4019 84.4416 24.9304 84.5305C25.9795 84.7083 27.099 84.5625 28.0619 84.1465C28.8057 83.8266 29.4946 83.3644 30.3049 83.2257C31.1347 83.0835 31.8589 83.4568 32.4461 83.951C33.1741 84.5625 33.957 85.11 34.7321 85.6682C35.0687 85.91 35.7772 85.4371 36.0747 85.2558C37.9732 84.1003 39.856 82.9306 41.7858 81.8142C42.9836 81.1209 44.0836 80.225 45.4458 79.7983C46.7219 79.3966 48.4012 79.3646 49.4855 80.2001C50.9651 81.3378 50.7185 83.4995 49.9395 84.9429L49.9317 84.9465Z" fill="#5F494D"/>
<path d="M40.9678 58.1999C40.5764 58.0328 40.1145 58.1537 39.7035 58.2746C39.3512 58.3777 39.0028 58.4808 38.6505 58.5839C38.3139 58.6834 37.9694 58.7865 37.711 59.007C37.2022 59.4372 37.0847 60.0771 36.7677 60.6175C36.4663 61.1366 35.9143 61.6344 35.3428 61.9046C34.8692 62.1321 34.3721 62.2814 33.8593 62.4165C31.0918 63.1276 28.293 63.7462 25.4746 64.2724C25.5412 64.5249 25.8191 64.6742 25.9991 64.8733C26.2536 65.1542 26.3162 65.531 26.4689 65.8652C26.8564 66.7221 27.8076 67.266 28.7784 67.5469C29.3068 67.6998 29.8587 67.778 30.4068 67.8456C30.8726 67.9025 31.2484 67.6891 31.6633 67.5043C32.6341 67.067 33.5657 66.5514 34.4347 65.9648C34.9553 65.6128 35.4524 65.2359 35.9143 64.8271C36.1453 64.6244 36.3684 64.4111 36.6424 64.2582C37.2491 63.9205 37.8637 64.1942 38.4196 63.7036C38.8658 63.3089 39.2063 62.8076 39.7387 62.5196C40.1849 62.2779 40.776 62.1641 40.9991 61.7375C41.1753 61.4068 41.05 61.0157 41.0383 60.6495C41.0305 60.39 41.0853 60.1305 41.1949 59.8887C41.281 59.6967 41.4062 59.5154 41.4689 59.3163C41.602 58.8967 41.4062 58.3848 40.9678 58.2034V58.1999Z" fill="#F5A861"/>
<path d="M40.1105 60.2227C39.9774 60.4076 39.9069 60.6422 39.9774 60.8555C39.7973 60.9409 39.7778 61.1613 39.7856 61.3462C39.7895 61.531 39.7934 61.7124 39.7973 61.8972C39.7973 61.9541 39.7973 62.0146 39.8208 62.0679C39.8913 62.2492 40.1418 62.3132 40.3571 62.3132C40.6468 62.3132 40.9521 62.2457 41.1517 62.0537C41.3514 61.8652 41.4062 61.5346 41.2144 61.3391C41.1909 61.3142 41.1635 61.2928 41.1595 61.2608C41.1517 61.2182 41.183 61.1791 41.2144 61.1435C41.3866 60.9337 41.4336 60.6493 41.3357 60.404C41.3161 60.3578 41.2926 60.308 41.3044 60.2618C41.3122 60.2298 41.3318 60.2013 41.3514 60.1729C41.4727 59.988 41.5353 59.7711 41.5236 59.5578C41.5236 59.5187 41.5158 59.4761 41.5314 59.4369C41.5432 59.4014 41.5745 59.3729 41.598 59.3445C41.7624 59.1703 41.9033 58.9641 41.9229 58.7365C41.9424 58.509 41.8054 58.2566 41.5666 58.1855C41.3474 58.1215 41.1087 58.2139 40.9364 58.3561C40.6624 58.5801 40.5332 58.9072 40.5528 59.2343C40.5606 59.3801 40.6428 59.668 40.5802 59.7783C40.4941 59.9382 40.2279 60.0662 40.1144 60.2262L40.1105 60.2227Z" fill="#F5CDAA"/>
<path d="M48.1275 51.8035L58.2227 56.9872L47.325 68.6665L37.5703 63.1913L48.1275 51.8035Z" fill="#CCA5A1"/>
<path d="M16.3113 62.9075C15.1957 63.8496 15.2544 65.4389 15.3953 66.8148C15.9942 72.6776 16.5892 78.5404 17.1881 84.4031C17.3134 85.6191 17.6343 86.9275 18.7225 87.731C21.4548 89.7433 24.8838 89.6971 28.0662 88.7585C29.3502 88.3816 30.6302 87.9443 31.7497 87.2545C32.4112 86.8457 33.014 86.3444 33.429 85.7222C34.0044 84.8582 34.1727 83.8272 34.2667 82.8246C34.5563 79.7705 34.7364 76.6702 34.846 73.6091C34.8851 72.5247 35.3353 71.4581 35.6289 70.4022C35.7854 69.8333 36.216 68.4894 35.8716 67.9276C35.7228 67.6894 35.4566 67.533 35.1983 67.3908C32.2468 65.7589 29.1075 64.4398 26.0425 63.0212C24.5002 62.3102 22.7035 61.8017 20.9577 61.9369C19.5093 62.0471 17.4347 61.9617 16.3191 62.9039L16.3113 62.9075Z" fill="#DCD9D9"/>
<path d="M31.6005 50.0405C31.8158 50.3533 31.9959 50.6982 32.1446 51.068C32.2973 51.4484 32.4186 51.8502 32.3756 52.2519C32.3247 52.6999 32.0507 53.1087 32.0389 53.5567C32.0311 53.962 32.2073 54.3602 32.2738 54.7584C32.3482 55.2064 32.2621 55.6615 32.172 56.1095C32.0898 56.5219 32.0076 56.9343 31.9254 57.3467C31.8197 57.8694 31.6945 58.3671 31.3657 58.8151C31.0877 59.1955 30.6063 59.2986 30.1052 59.2844C29.9761 59.2844 29.8391 59.2702 29.7255 59.3235C29.6551 59.3591 29.6003 59.4195 29.5494 59.4764C28.5708 60.5857 27.1773 62.1145 27.8231 63.6433C27.9406 63.917 28.1363 64.205 28.0306 64.4859C27.9288 64.7597 27.5883 64.8841 27.2829 64.9623C25.0635 65.5169 22.5152 65.1543 20.785 63.7748C20.4993 63.5473 20.1157 63.1846 20.1313 62.8078C20.1431 62.5056 20.4875 62.2531 20.6715 62.0007C21.1491 61.343 21.4857 60.607 21.7049 59.8461C21.8615 59.2915 21.9594 58.7155 21.8889 58.1431C21.8145 57.5352 21.5562 56.9556 21.3291 56.3797C20.8477 55.1495 20.4954 53.8376 20.7185 52.547C20.9925 50.94 22.202 49.493 23.8304 48.821C24.5585 48.5188 25.3492 48.3695 26.1399 48.2735C27.1538 48.1526 28.2028 48.1241 29.1893 48.3659C30.2696 48.6326 31.0486 49.2334 31.6005 50.0369V50.0405Z" fill="#F5CDAA"/>
<path d="M20.1041 61.2683C19.7479 61.6487 19.419 62.214 19.4112 62.7153C19.4073 63.0033 19.5482 63.1882 19.7439 63.4015C20.2606 63.9633 20.9261 64.4112 21.6542 64.7241C22.5858 65.1259 23.6153 65.3179 24.6487 65.3534C25.2006 65.3747 25.7526 65.3498 26.3045 65.325C27.103 65.2894 27.9055 65.2361 28.7001 65.1756C29.0602 65.1472 29.4164 65.1223 29.7766 65.1045C29.9605 65.0939 30.1445 65.0939 30.3246 65.1081C30.4224 65.1152 30.8335 65.133 30.8843 65.2147C30.536 64.6708 30.1876 64.1268 29.8431 63.5828C29.4869 63.0246 29.0641 62.4771 28.4731 62.1074C28.3204 62.0114 28.1482 61.9225 27.9642 61.9403C27.7372 61.958 27.7489 62.0967 27.6432 62.2176C27.5493 62.3242 27.3692 62.4131 27.2244 62.4593C26.6216 62.6584 25.96 62.6798 25.3259 62.6478C24.2572 62.598 23.1808 62.4096 22.2452 61.9367C21.9908 61.8052 21.7364 61.6594 21.5289 61.471C21.4389 61.3892 21.3684 61.2932 21.3019 61.1936C21.2197 61.0692 21.3175 60.9341 21.3723 60.8168C21.4154 60.7279 21.4976 60.5857 21.3371 60.575C21.2353 60.5679 21.1296 60.6106 21.0357 60.6426C20.9143 60.6852 20.8008 60.7386 20.6912 60.799C20.4759 60.9199 20.2802 61.0728 20.1158 61.247C20.1119 61.2505 20.108 61.2576 20.1001 61.2612L20.1041 61.2683Z" fill="#E8E4E4"/>
<path d="M21.0944 48.7143C20.4485 49.2796 19.9514 50.1187 19.6969 50.9044C19.4268 51.747 19.4347 52.6572 19.4973 53.514C19.556 54.3282 19.8222 55.3059 20.104 56.0846C20.4328 57.0054 20.8438 57.9191 21.5054 58.6764C22.2961 59.5795 23.7209 60.4825 25.0244 59.9634C25.4354 59.7999 25.8973 59.6008 26.2066 59.3057C26.6215 58.9111 26.9934 58.4773 27.3183 58.0187C27.7528 57.4071 28.1129 56.7352 28.7157 56.2588C29.2637 55.825 29.9879 55.5832 30.716 55.5939C30.806 55.5939 30.9 55.601 30.9861 55.569C31.2327 55.4801 31.2562 55.1815 31.264 54.9433C31.2797 54.4171 31.4167 53.8945 31.6554 53.4145C31.8472 53.0341 32.1056 52.6785 32.2465 52.2768C32.6106 51.2493 32.2935 50.044 31.6907 49.1409C31.0839 48.2272 30.121 47.5766 29.0367 47.1891C28.1168 46.8584 27.0991 46.8264 26.1087 46.8868C24.222 46.9971 22.4096 47.5659 21.0905 48.7179L21.0944 48.7143Z" fill="#5F494D"/>
<path d="M25.2945 50.7229C25.2945 52.785 23.4547 54.456 21.1843 54.456C18.914 54.456 17.0742 52.785 17.0742 50.7229C17.0742 48.6608 18.914 46.9897 21.1843 46.9897C23.4547 46.9897 25.2945 48.6608 25.2945 50.7229Z" fill="#8A6B71"/>
<path d="M53.4392 66.5445C53.3961 66.484 53.3374 66.4307 53.3256 66.3596C53.2826 66.0787 53.5174 65.8547 53.4235 65.5561C53.3804 65.4139 53.263 65.2787 53.1025 65.2468C53.1456 65.101 53.2278 64.9659 53.2865 64.8272C53.4 64.5641 53.4352 64.2726 53.3922 63.9917C53.3765 63.8886 53.3452 63.7784 53.263 63.7037C53.1025 63.558 52.8285 63.6042 52.625 63.6966C52.5584 63.5651 52.5388 63.4157 52.4801 63.2806C52.4253 63.1455 52.3196 63.0104 52.1631 62.9784C52.0104 62.9464 51.8499 63.0247 51.7403 63.1313C51.6307 63.238 51.5681 63.3695 51.4819 63.494C51.2667 63.7997 50.9418 64.0273 50.5973 64.2193C50.2567 64.4077 49.8927 64.5677 49.56 64.7668C49.4699 64.8237 49.3799 64.8805 49.2977 64.9445C48.9063 65.2574 48.6949 65.7089 48.5775 66.1605C48.5227 66.3702 48.4757 66.5836 48.4326 66.7898C48.28 67.4973 48.2917 68.219 47.865 68.8519C47.2152 69.8154 44.3851 73.4987 44.2129 73.7334C44.0563 73.9467 43.9271 74.0996 43.6296 74.1494C43.3948 74.192 43.1638 74.0463 42.9838 73.9254C42.7724 73.7832 42.561 73.6374 42.3496 73.4881C41.9191 73.1894 41.4963 72.8837 41.0775 72.5708C40.2476 71.9557 39.4373 71.3193 38.6505 70.6651C38.858 71.2731 38.7523 71.945 38.4705 72.5317C38.1886 73.1148 37.7463 73.6232 37.2687 74.0925C37.1396 74.2205 36.9908 74.3556 36.8029 74.3876C36.6072 74.4231 36.4154 74.3485 36.2236 74.2916C35.8243 74.1742 35.4603 74.2027 35.0532 74.1849C34.9827 74.1849 34.1372 73.9894 34.1411 74.0569C34.1881 74.5476 34.4817 74.9884 34.8105 75.3831C35.0806 75.7102 35.3428 76.0479 35.6208 76.3715C35.8047 76.5883 36.0905 76.7483 36.3254 76.9154C36.9947 77.3812 37.7541 77.7225 38.5135 78.0531C39.6604 78.5544 40.823 79.0664 42.0639 79.3508C43.2656 79.6246 44.9057 79.813 45.9 78.9669C46.0957 78.7998 46.1662 78.5829 46.311 78.3838C46.542 78.0745 50.6169 70.1851 50.9496 69.5096C51.204 69.2536 51.5328 69.0581 51.889 68.9337C52.2139 68.8199 52.5506 68.7274 52.8363 68.5497C53.1221 68.3719 53.353 68.0804 53.3295 67.7639C53.3256 67.6822 53.3021 67.6004 53.3061 67.5151C53.3178 67.3337 53.4626 67.1809 53.5174 67.0031C53.5644 66.8467 53.5331 66.6724 53.4313 66.5373L53.4392 66.5445Z" fill="#F5CDAA"/>
<path d="M35.5112 67.3976C35.0023 67.1807 34.4621 67.0563 33.9141 67.1416C33.2604 67.2412 32.7829 67.8207 32.5128 68.3362C31.9804 69.3459 31.8512 70.4694 31.8238 71.5751C31.8121 72.2009 31.8473 72.8337 32.0117 73.4453C32.1292 73.8897 32.2623 74.423 32.6733 74.7252C32.9081 74.8994 33.19 74.8923 33.4561 75.0025C33.7732 75.1341 34.0551 75.3509 34.2469 75.6105C34.5639 76.0371 34.8614 76.4638 35.2215 76.8726C35.2685 76.926 35.3194 76.9828 35.386 77.0148C35.4525 77.0504 35.5308 77.0575 35.6091 77.0646C36.3841 77.1251 37.1474 76.8513 37.8129 76.4851C38.7406 75.9731 39.5431 75.2656 40.0558 74.3981C40.3416 73.9181 40.5295 73.3919 40.6078 72.8515C40.6743 72.3822 40.7487 71.6889 40.3846 71.312C39.1594 70.0357 37.8833 68.7771 36.3372 67.8314C36.0749 67.6714 35.797 67.5185 35.5034 67.394L35.5112 67.3976Z" fill="#E8E4E4"/>
<path d="M39.7661 58.9678C39.2259 59.0211 38.6896 59.1171 38.3608 59.5544C38.0907 59.91 37.9811 60.4397 38.1807 60.845C38.2277 60.941 38.3021 61.0299 38.4117 61.0655C38.4939 61.0903 38.5878 61.0797 38.6739 61.0583C39.1437 60.9552 39.5469 60.6424 39.7426 60.2442C39.77 60.1908 39.7895 60.134 39.8365 60.0948C39.8717 60.0628 39.9187 60.0451 39.9657 60.0273C40.1458 59.9597 40.3219 59.8886 40.5098 59.8389C40.7564 59.7713 41.0148 59.7358 41.2653 59.6718C41.5158 59.6078 41.7624 59.5082 41.9425 59.3376C42.0325 59.2522 42.103 59.1491 42.1617 59.0425C42.2126 58.9536 42.2595 58.8576 42.2674 58.7545C42.2791 58.6549 42.2517 58.5447 42.1773 58.47C42.0756 58.3705 41.9033 58.3492 41.7546 58.3847C41.6058 58.4167 41.4767 58.4949 41.3436 58.5589C40.8621 58.7971 40.3141 58.9109 39.77 58.9678H39.7661Z" fill="#F5CDAA"/>
<path d="M40.4043 96.0786C39.4922 96.9496 38.3336 97.6429 37.1631 98.0376C35.5778 98.5673 33.875 98.7806 32.1918 98.77C31.1976 98.7629 30.1994 98.6846 29.2482 98.4287C26.5394 97.6998 24.4883 95.6022 23.3218 93.2663C21.5603 89.7394 21.7717 85.8996 20.7148 82.2269C20.1629 80.3106 19.1921 78.4262 17.7085 76.9543C14.9998 74.2665 8.90504 72.9652 6.70514 76.8405C6.22367 77.6867 5.96532 78.6218 5.72654 79.5533C5.17853 81.7114 4.74403 83.8944 4.42696 86.0916C3.75368 90.7384 3.66365 95.4279 7.4528 99.0366C9.57441 101.06 12.2949 102.496 15.125 103.587C20.5935 105.692 26.559 105.938 32.137 103.989C32.9278 103.712 33.7028 103.395 34.4544 103.036C35.5073 102.535 36.5212 101.952 37.4019 101.227C39.5274 99.4739 41.0267 97.0812 41.6373 94.5213C41.3242 95.0795 40.9014 95.6093 40.4043 96.0857V96.0786Z" fill="#E3D5BB"/>
<path d="M20.0727 79.1587C19.8026 78.3125 19.4269 77.4841 18.8828 76.7517C18.6048 76.3784 18.2878 76.0335 17.9237 75.7277C17.1252 75.0522 16.0996 74.366 15.0897 73.9856C14.0093 73.5803 12.8193 73.4523 11.6568 73.4203C10.228 73.3812 8.77576 73.6087 7.45269 74.0994C6.2314 74.5509 4.9827 75.3295 4.31334 76.389C4.00801 76.8761 3.73009 77.6014 4.20765 78.0743C4.53646 78.4014 5.02576 78.5578 5.50332 78.6538C7.71496 79.1018 10.001 78.5329 12.2596 78.3836C13.6375 78.2912 15.0271 78.3552 16.3893 78.5756C16.4089 78.5756 16.4323 78.5827 16.4519 78.5863C17.3914 78.7427 18.2995 79.0804 19.0276 79.6529C19.8105 80.2679 20.245 81.2599 20.6834 82.0918C20.6403 82.0065 20.6599 81.8358 20.6482 81.7398C20.6325 81.6119 20.6168 81.4839 20.5973 81.3559C20.5581 81.0999 20.5112 80.8439 20.4564 80.5915C20.3507 80.1044 20.2254 79.6351 20.0727 79.1587Z" fill="#F0EEE0"/>
</svg>
