<svg width="30" height="30" viewBox="0 0 30 30" fill="none" xmlns="http://www.w3.org/2000/svg">
<path d="M13.0958 5.51367C10.9043 5.58398 8.9356 5.79492 7.2774 6.1289C6.47466 6.28711 6.19341 6.38672 5.98833 6.58008C5.66607 6.88476 4.70513 8.70703 4.08404 10.2129L3.99029 10.4297L3.79693 10.3125C3.61529 10.2012 3.50396 10.1953 2.12115 10.1953C0.451223 10.1953 0.369192 10.2129 0.210989 10.5996C-0.023386 11.1914 -0.0409641 11.7949 0.152395 12.457C0.29302 12.9492 0.345755 12.9727 1.32427 12.9961L2.16216 13.0137L1.92193 13.3184C1.5938 13.7344 1.25396 14.4727 1.16607 14.9648C1.06646 15.5566 1.13091 16.3535 1.31841 16.7344C1.44732 16.998 1.4649 17.1094 1.4649 17.7129V18.3867L1.29497 18.4453C1.20122 18.4805 1.09575 18.5625 1.05474 18.627C1.00786 18.7148 0.996145 19.4531 1.00786 21.1113C1.02544 23.4023 1.0313 23.4727 1.15435 23.707C1.31841 24.0117 1.68169 24.3398 1.9688 24.4395C2.14458 24.5039 2.61333 24.5215 3.95513 24.5215C5.45513 24.5215 5.74224 24.5098 5.92388 24.4277C6.23443 24.2812 6.52154 24.0059 6.67974 23.6895C6.80865 23.4258 6.82036 23.332 6.8438 22.3066L6.86724 21.2109H15.0938H23.3204V22.2773C23.3204 23.2793 23.3321 23.3672 23.461 23.6426C23.6309 24.0059 23.8594 24.2402 24.1993 24.3984C24.4512 24.5156 24.5567 24.5215 26.2501 24.5215C28.0372 24.5215 28.0372 24.5215 28.3243 24.375C28.6465 24.2109 28.8575 23.9824 29.0157 23.6309C29.1153 23.4082 29.1211 23.2148 29.1094 20.9648L29.0919 18.5449L28.9044 18.4629L28.711 18.375V17.7422C28.711 17.1445 28.7169 17.0977 28.8575 16.9453C29.0567 16.7344 29.1211 16.4824 29.1622 15.791C29.209 14.8535 28.9512 14.0215 28.3887 13.3301L28.1309 13.0195L28.8282 12.9961C29.6368 12.9727 29.7129 12.9375 29.8477 12.457C30.0411 11.7949 30.0235 11.1914 29.7891 10.5996C29.6309 10.2129 29.5489 10.1953 27.879 10.1953C26.4961 10.1953 26.3848 10.2012 26.2032 10.3125L26.0098 10.4297L25.9161 10.2129C25.4708 9.13476 24.6153 7.42383 24.2696 6.91406C23.9825 6.49219 23.7715 6.36328 23.1563 6.21679C20.795 5.66601 16.8458 5.38476 13.0958 5.51367ZM18.8086 7.40625C20.0215 7.51758 21.3516 7.69336 22.2071 7.85742C22.9278 7.99804 22.7989 7.86328 23.4727 9.2168C23.8946 10.0547 24.5508 11.5371 24.5508 11.6484C24.5508 11.6777 24.3165 11.666 23.9942 11.625C22.1309 11.3672 19.2422 11.2383 15.1172 11.2383C10.9161 11.2383 8.0274 11.3672 6.19927 11.6367C5.30865 11.7656 5.35552 11.8125 5.64849 11.1152C5.98247 10.3242 6.64458 8.92383 6.93755 8.40234L7.17193 7.98047L7.82232 7.85742C9.15825 7.59961 11.0977 7.38281 12.8321 7.30078C13.8633 7.2539 17.836 7.32422 18.8086 7.40625ZM22.7168 15.5391C22.7051 15.5801 22.6231 15.8437 22.5352 16.125L22.377 16.6406H15.0704H7.76372L7.59966 16.0957C7.51177 15.8027 7.44146 15.5391 7.44146 15.5098C7.44146 15.4863 10.8868 15.4687 15.0938 15.4687C21.1934 15.4687 22.7403 15.4863 22.7168 15.5391ZM4.68755 16.8164C5.76568 16.8809 6.75591 16.9512 6.88482 16.9629L7.12505 16.998L7.34185 17.6543C7.45904 18.0176 7.55865 18.334 7.55865 18.3574C7.55865 18.3809 6.34575 18.3984 4.86333 18.3984H2.16802V17.5195V16.6348L2.44927 16.6699C2.60161 16.6875 3.60943 16.752 4.68755 16.8164ZM27.9961 17.5371L28.0137 18.3984H25.2774C23.1153 18.3984 22.5528 18.3809 22.5704 18.3223C22.5879 18.2871 22.6876 17.9883 22.793 17.666C22.8985 17.3437 23.004 17.0566 23.0333 17.0273C23.0801 16.9805 27.6387 16.6406 27.8907 16.6641C27.961 16.6699 27.9786 16.8164 27.9961 17.5371ZM22.1192 17.4668C22.0958 17.5312 22.0196 17.7656 21.9493 17.9766L21.8145 18.3691L15.0821 18.3867L8.3438 18.3984L8.1856 17.9121C8.09771 17.6426 8.0274 17.4082 8.0274 17.3848C8.0274 17.3613 11.209 17.3437 15.0938 17.3437H22.1543L22.1192 17.4668ZM21.504 19.1133C21.504 19.1543 21.4278 19.4238 21.3399 19.7168L21.1758 20.2441L15.0821 20.2617L8.98247 20.2734L8.81841 19.7344C8.73052 19.4355 8.64263 19.1543 8.62505 19.1133C8.60747 19.0605 9.91411 19.043 15.0528 19.043C20.1739 19.043 21.504 19.0605 21.504 19.1133ZM4.87505 19.9219C4.93365 20.1328 4.98052 20.3379 4.98052 20.373C4.98052 20.4316 4.66411 20.4492 3.60357 20.4492H2.22661V19.9805V19.5117L3.4981 19.5234L4.76372 19.541L4.87505 19.9219ZM27.9493 19.9805V20.4492H26.5372C25.4297 20.4492 25.1309 20.4316 25.1485 20.373C25.1661 20.3379 25.2247 20.127 25.2833 19.9043L25.3887 19.5117H26.6661H27.9493V19.9805Z" fill="#00A9BF"/>
</svg>
