<svg width="30" height="30" viewBox="0 0 30 30" fill="none" xmlns="http://www.w3.org/2000/svg">
<path d="M10.6875 0.12324C10.3946 0.351799 6.77347 3.51646 6.63871 3.66883C6.46293 3.85637 6.46879 4.10837 6.64457 4.31349C6.77933 4.47172 6.80863 4.47758 7.40629 4.49516L8.02738 4.5186V17.0776C8.02738 23.9871 8.04496 29.6835 8.06254 29.7363C8.16215 29.9883 8.29105 30 11.045 30H13.6641L13.834 29.83L14.0039 29.6601V19.9375V10.2209L14.7657 10.9827L15.5274 11.7446V13.2331V14.7276L16.834 16.0403C17.5489 16.7612 18.2168 17.3882 18.3223 17.4351C18.4629 17.4937 18.8086 17.5172 19.67 17.5172H20.8243L21.5625 18.2497C22.2188 18.9002 22.3301 18.9823 22.5059 18.9823C22.6875 18.9823 22.9571 18.7303 26.3496 15.3312L30 11.686V10.2502V8.81434L26.795 5.60279C25.0254 3.83293 23.4786 2.32678 23.3496 2.2506C23.2207 2.17441 22.9571 2.08064 22.7578 2.04548C21.6914 1.84036 20.6543 2.59636 20.5254 3.68056L20.4903 3.96772L20.1446 4.03218C19.6758 4.11423 19.3243 4.30177 19.0196 4.62409C18.75 4.91712 18.5157 5.4387 18.5157 5.76103C18.5157 5.97201 18.4278 6.02475 18.1055 6.03061C17.8887 6.03061 17.3907 6.28261 17.127 6.52289C16.9981 6.6401 16.8282 6.85694 16.752 7.00931C16.6758 7.16755 16.6055 7.30234 16.5938 7.31992C16.5879 7.33164 15.9961 6.76317 15.293 6.05991C14.3731 5.13982 14.0039 4.73544 14.0039 4.64167C14.0039 4.51274 14.0215 4.50688 14.5313 4.50688C15.3047 4.50688 15.5157 4.36623 15.4571 3.88567C15.4453 3.74502 15.0879 3.41097 13.4473 1.96929C12.3516 1.00817 11.3789 0.170124 11.2793 0.105658C11.0508 -0.0408535 10.8926 -0.0349941 10.6875 0.12324ZM12.3868 2.36781L13.6582 3.4813L13.4414 3.51646C13.2012 3.55749 13.0137 3.75674 13.0078 3.96772C13.0078 4.08493 12.9903 4.09079 12.8496 4.05563C12.7559 4.02632 12.5215 4.0146 12.3223 4.02046C11.0098 4.04977 10.1309 5.49145 10.6817 6.69284C10.8047 6.96829 11.0508 7.24959 11.9239 8.13453L13.0078 9.2363V19.1171V29.0037H11.0157H9.02347L9.01176 16.4037L8.99418 3.80949L8.87113 3.68056C8.80082 3.61609 8.65433 3.5399 8.54886 3.51646L8.35551 3.47544L9.668 2.32678C10.4297 1.65869 11.0098 1.18985 11.045 1.21329C11.086 1.23673 11.6836 1.75245 12.3868 2.36781ZM22.6758 3.04176C22.834 3.08865 23.5723 3.7919 25.9395 6.15954L29.0039 9.22458V10.2502V11.2757L25.752 14.5283L22.5059 17.775L21.8672 17.148L21.2286 16.5209H19.9746H18.7207L17.625 15.425L16.5235 14.3232V13.532V12.7467L16.834 13.0515L17.1446 13.3562L17.4903 13.0046L17.836 12.653L14.7246 9.52932C11.9707 6.76903 11.6016 6.38224 11.543 6.15954C11.3614 5.47386 11.9825 4.85265 12.6739 5.04019C12.8907 5.09293 13.2832 5.46214 16.0371 8.21657L19.1602 11.3285L19.5118 10.9827L19.8633 10.6311L18.7559 9.5176C18.1465 8.90811 17.6192 8.3455 17.584 8.27518C17.3965 7.90597 17.584 7.35508 17.9707 7.12652C18.1875 7.00345 18.6094 6.98001 18.8203 7.0855C18.8907 7.12652 19.4473 7.6481 20.0567 8.24587L21.1524 9.33592L21.5039 8.99016L21.8555 8.64439L20.7188 7.49573C19.4942 6.26503 19.4473 6.1947 19.5411 5.69656C19.5938 5.42112 19.8868 5.12223 20.1914 5.04019C20.6543 4.91712 20.7774 4.9933 22.0196 6.22401L23.1446 7.34336L23.4961 6.99759L23.8477 6.64596L22.7696 5.56177C22.1778 4.964 21.6504 4.39553 21.5977 4.29004C21.4102 3.91497 21.5215 3.45786 21.8614 3.2C22.1485 2.98902 22.3477 2.94799 22.6758 3.04176Z" fill="#00A9BF"/>
<path d="M6.01758 6.013C5.99414 6.03058 5.97656 7.27301 5.97656 8.76743V11.4808H6.47461H6.97266V8.72641V5.97198H6.51562C6.26367 5.97198 6.03516 5.98956 6.01758 6.013Z" fill="#00A9BF"/>
<path d="M3.51562 10.7484V13.4735H4.01367H4.51172V10.7484V8.02326H4.01367H3.51562V10.7484Z" fill="#00A9BF"/>
<path d="M6.01758 12.5183C5.99414 12.5358 5.97656 12.7644 5.97656 13.0164V13.4735H6.47461H6.97266V12.9754V12.4772H6.51562C6.26367 12.4772 6.03516 12.4948 6.01758 12.5183Z" fill="#00A9BF"/>
<path d="M3.51562 14.9972V15.5305L4.00195 15.5129L4.48242 15.4954V14.9972V14.4991L4.00195 14.4815L3.51562 14.4639V14.9972Z" fill="#00A9BF"/>
<path d="M0.369141 20.0196C0.292969 20.0313 0.181641 20.1134 0.117188 20.1954C0 20.3419 0 20.4181 0 25.001V29.6601L0.169922 29.83L0.339844 30H2.95898C5.71289 30 5.8418 29.9883 5.94141 29.7363C5.95898 29.6835 5.97656 27.5386 5.97656 24.9658V20.2892L5.82422 20.1485L5.67188 20.0079L3.08789 20.002C1.66406 19.9962 0.439453 20.002 0.369141 20.0196ZM4.98047 24.9893V29.0037H2.98828H0.996094V24.9893V20.9749H2.98828H4.98047V24.9893Z" fill="#00A9BF"/>
<path d="M16.3008 20.0665C16.1953 20.1134 16.084 20.2188 16.0547 20.3009C16.0195 20.4005 15.9961 22.1528 15.9961 25.0538V29.6601L16.166 29.83L16.3359 30H18.9551C21.709 30 21.8379 29.9883 21.9375 29.7363C21.9551 29.6835 21.9727 27.5386 21.9727 24.9658V20.2892L21.8203 20.1485L21.668 20.0079L19.084 19.9962C16.9453 19.9844 16.459 19.9962 16.3008 20.0665ZM20.9766 24.9893V29.0037H18.9844H16.9922V24.9893V20.9749H18.9844H20.9766V24.9893Z" fill="#00A9BF"/>
<path d="M24.375 20.0196C24.3281 20.0372 24.2285 20.1075 24.1582 20.172L24.0234 20.2892V24.9658C24.0234 27.5386 24.041 29.6835 24.0586 29.7363C24.1582 29.9883 24.2871 30 27.041 30H29.6602L29.8301 29.83L30 29.6601V24.9951V20.3361L29.8594 20.172L29.7188 20.0079L27.0879 19.9962C25.6465 19.9903 24.4219 20.002 24.375 20.0196ZM29.0039 24.9893V29.0037H27.0117H25.0195V24.9893V20.9749H27.0117H29.0039V24.9893Z" fill="#00A9BF"/>
</svg>
