<svg width="390" height="220" viewBox="0 0 390 220" fill="none" xmlns="http://www.w3.org/2000/svg">
<path d="M309.872 216.267H287.39V216.425H309.872V216.267Z" fill="#EBEBEB"/>
<path d="M229.31 217.98H223.412V218.137H229.31V217.98Z" fill="#EBEBEB"/>
<path d="M286.711 210.425H273.684V210.583H286.711V210.425Z" fill="#EBEBEB"/>
<path d="M69.4028 211.483H40.085V211.64H69.4028V211.483Z" fill="#EBEBEB"/>
<path d="M79.7479 211.483H75.451V211.64H79.7479V211.483Z" fill="#EBEBEB"/>
<path d="M157.309 214.139H93.7178V214.297H157.309V214.139Z" fill="#EBEBEB"/>
<path d="M165.36 178.061H34.2879C32.1496 178.061 30.4119 176.45 30.4119 174.467V3.59459C30.4119 1.61159 32.1496 0 34.2879 0H165.36C167.498 0 169.236 1.61159 169.236 3.59459V174.467C169.236 176.45 167.498 178.061 165.36 178.061ZM34.2879 0.157381C32.2447 0.157381 30.5816 1.69972 30.5816 3.59459V174.467C30.5816 176.362 32.2447 177.904 34.2879 177.904H165.36C167.403 177.904 169.066 176.362 169.066 174.467V3.59459C169.066 1.69972 167.403 0.157381 165.36 0.157381H34.2879Z" fill="#7D97F4"/>
<path d="M312.187 178.061H181.108C178.97 178.061 177.232 176.45 177.232 174.467V3.59459C177.232 1.61159 178.97 0 181.108 0H312.187C314.325 0 316.063 1.61159 316.063 3.59459V174.467C316.063 176.45 314.325 178.061 312.187 178.061ZM181.108 0.157381C179.065 0.157381 177.402 1.69972 177.402 3.59459V174.467C177.402 176.362 179.065 177.904 181.108 177.904H312.187C314.23 177.904 315.893 176.362 315.893 174.467V3.59459C315.893 1.69972 314.23 0.157381 312.187 0.157381H181.108Z" fill="#7D97F4"/>
<path d="M343.88 206.138H4.47449V206.296H343.88V206.138Z" fill="#EBEBEB"/>
<path d="M74.5483 102.04V98.5775H65.106L45.6173 89.0088V98.5775H43.3773V102.04H40.9946V206.101H76.9309V102.04H74.5483Z" fill="#EBEBEB"/>
<path d="M57.7747 106.61H51.7672V112.182H57.7747V106.61Z" fill="#FAFAFA"/>
<path d="M57.7747 115.008H51.7672V120.579H57.7747V115.008Z" fill="#FAFAFA"/>
<path d="M49.3847 123.412H43.3772V128.983H49.3847V123.412Z" fill="#FAFAFA"/>
<path d="M66.1581 123.412H60.1506V128.983H66.1581V123.412Z" fill="#FAFAFA"/>
<path d="M74.5481 123.412H68.5406V128.983H74.5481V123.412Z" fill="#FAFAFA"/>
<path d="M66.1581 131.81H60.1506V137.381H66.1581V131.81Z" fill="#FAFAFA"/>
<path d="M57.7747 140.214H51.7672V145.786H57.7747V140.214Z" fill="#FAFAFA"/>
<path d="M74.5481 140.214H68.5406V145.786H74.5481V140.214Z" fill="#FAFAFA"/>
<path d="M49.3847 148.618H43.3772V154.19H49.3847V148.618Z" fill="#FAFAFA"/>
<path d="M57.7747 148.618H51.7672V154.19H57.7747V148.618Z" fill="#FAFAFA"/>
<path d="M66.1581 148.618H60.1506V154.19H66.1581V148.618Z" fill="#FAFAFA"/>
<path d="M74.5481 157.016H68.5406V162.588H74.5481V157.016Z" fill="#FAFAFA"/>
<path d="M49.3847 165.42H43.3772V170.992H49.3847V165.42Z" fill="#FAFAFA"/>
<path d="M74.5481 173.818H68.5406V179.39H74.5481V173.818Z" fill="#FAFAFA"/>
<path d="M49.4353 182.088L43.4285 182.009L43.3424 187.58L49.3493 187.659L49.4353 182.088Z" fill="#FAFAFA"/>
<path d="M74.5481 190.627H68.5406V196.198H74.5481V190.627Z" fill="#FAFAFA"/>
<path d="M131.161 143.198H95.218V206.101H131.161V143.198Z" fill="#EBEBEB"/>
<path d="M128.778 148.619H122.771V154.19H128.778V148.619Z" fill="#FAFAFA"/>
<path d="M103.608 157.017H97.6006V162.588H103.608V157.017Z" fill="#FAFAFA"/>
<path d="M120.388 157.017H114.381V162.588H120.388V157.017Z" fill="#FAFAFA"/>
<path d="M128.778 157.017H122.771V162.588H128.778V157.017Z" fill="#FAFAFA"/>
<path d="M111.998 165.421H105.991V170.992H111.998V165.421Z" fill="#FAFAFA"/>
<path d="M103.608 173.819H97.6006V179.39H103.608V173.819Z" fill="#FAFAFA"/>
<path d="M120.388 173.819H114.381V179.39H120.388V173.819Z" fill="#FAFAFA"/>
<path d="M128.778 173.819H122.771V179.39H128.778V173.819Z" fill="#FAFAFA"/>
<path d="M128.829 182.425L122.823 182.346L122.737 187.916L128.743 187.996L128.829 182.425Z" fill="#FAFAFA"/>
<path d="M111.998 190.627H105.991V196.199H111.998V190.627Z" fill="#FAFAFA"/>
<path d="M120.388 190.627H114.381V196.199H120.388V190.627Z" fill="#FAFAFA"/>
<path d="M221.077 115.783V110.64H209.863V115.783H191.256V206.101H223.792V115.783H221.077Z" fill="#EBEBEB"/>
<path d="M206.57 122.286H201.764V126.743H206.57V122.286Z" fill="#FAFAFA"/>
<path d="M213.284 122.286H208.478V126.743H213.284V122.286Z" fill="#FAFAFA"/>
<path d="M199.857 129.01H195.051V133.467H199.857V129.01Z" fill="#FAFAFA"/>
<path d="M206.57 129.01H201.764V133.467H206.57V129.01Z" fill="#FAFAFA"/>
<path d="M219.99 129.01H215.184V133.467H219.99V129.01Z" fill="#FAFAFA"/>
<path d="M199.857 135.733H195.051V140.19H199.857V135.733Z" fill="#FAFAFA"/>
<path d="M213.284 135.733H208.478V140.19H213.284V135.733Z" fill="#FAFAFA"/>
<path d="M219.99 135.733H215.184V140.19H219.99V135.733Z" fill="#FAFAFA"/>
<path d="M199.857 149.173H195.051V153.63H199.857V149.173Z" fill="#FAFAFA"/>
<path d="M213.284 149.173H208.478V153.63H213.284V149.173Z" fill="#FAFAFA"/>
<path d="M199.857 155.897H195.051V160.354H199.857V155.897Z" fill="#FAFAFA"/>
<path d="M206.57 155.897H201.764V160.354H206.57V155.897Z" fill="#FAFAFA"/>
<path d="M219.99 155.897H215.184V160.354H219.99V155.897Z" fill="#FAFAFA"/>
<path d="M219.99 162.614H215.184V167.071H219.99V162.614Z" fill="#FAFAFA"/>
<path d="M199.857 169.337H195.051V173.794H199.857V169.337Z" fill="#FAFAFA"/>
<path d="M206.57 169.337H201.764V173.794H206.57V169.337Z" fill="#FAFAFA"/>
<path d="M213.321 176.132L208.516 176.068L208.447 180.525L213.252 180.589L213.321 176.132Z" fill="#FAFAFA"/>
<path d="M220.033 176.221L215.227 176.157L215.158 180.614L219.964 180.678L220.033 176.221Z" fill="#FAFAFA"/>
<path d="M199.857 182.778H195.051V187.235H199.857V182.778Z" fill="#FAFAFA"/>
<path d="M335.832 77.4568V60.4785C324.842 60.4785 315.705 67.7936 313.75 77.4568H308.652V206.107H338.703V77.4568H335.832Z" fill="#EBEBEB"/>
<path d="M316.011 84.1866H311.205V88.6437H316.011V84.1866Z" fill="#FAFAFA"/>
<path d="M316.011 90.9098H311.205V95.3669H316.011V90.9098Z" fill="#FAFAFA"/>
<path d="M329.438 90.9098H324.632V95.3669H329.438V90.9098Z" fill="#FAFAFA"/>
<path d="M336.144 90.9098H331.338V95.3669H336.144V90.9098Z" fill="#FAFAFA"/>
<path d="M322.724 97.6334H317.918V102.09H322.724V97.6334Z" fill="#FAFAFA"/>
<path d="M336.144 97.6334H331.338V102.09H336.144V97.6334Z" fill="#FAFAFA"/>
<path d="M316.011 104.35H311.205V108.807H316.011V104.35Z" fill="#FAFAFA"/>
<path d="M329.438 104.35H324.632V108.807H329.438V104.35Z" fill="#FAFAFA"/>
<path d="M329.438 111.074H324.632V115.531H329.438V111.074Z" fill="#FAFAFA"/>
<path d="M336.144 111.074H331.338V115.531H336.144V111.074Z" fill="#FAFAFA"/>
<path d="M322.724 117.797H317.918V122.254H322.724V117.797Z" fill="#FAFAFA"/>
<path d="M336.144 117.797H331.338V122.254H336.144V117.797Z" fill="#FAFAFA"/>
<path d="M322.724 124.514H317.918V128.971H322.724V124.514Z" fill="#FAFAFA"/>
<path d="M329.438 124.514H324.632V128.971H329.438V124.514Z" fill="#FAFAFA"/>
<path d="M329.438 131.237H324.632V135.695H329.438V131.237Z" fill="#FAFAFA"/>
<path d="M336.144 131.237H331.338V135.695H336.144V131.237Z" fill="#FAFAFA"/>
<path d="M322.764 144.66L317.959 144.596L317.89 149.053L322.695 149.117L322.764 144.66Z" fill="#FAFAFA"/>
<path d="M336.18 144.838L331.374 144.775L331.306 149.231L336.111 149.295L336.18 144.838Z" fill="#FAFAFA"/>
<path d="M336.144 151.401H331.338V155.858H336.144V151.401Z" fill="#FAFAFA"/>
<path d="M308.194 206.1H276.317V105.118L308.194 117.13V206.1Z" fill="#E0E0E0"/>
<path d="M291.305 115.568H286.499V120.025H291.305V115.568Z" fill="#FAFAFA"/>
<path d="M284.591 122.285H279.785V126.742H284.591V122.285Z" fill="#FAFAFA"/>
<path d="M284.591 129.009H279.785V133.466H284.591V129.009Z" fill="#FAFAFA"/>
<path d="M291.305 129.009H286.499V133.466H291.305V129.009Z" fill="#FAFAFA"/>
<path d="M298.018 129.009H293.212V133.466H298.018V129.009Z" fill="#FAFAFA"/>
<path d="M284.591 142.449H279.785V146.906H284.591V142.449Z" fill="#FAFAFA"/>
<path d="M298.018 142.449H293.212V146.906H298.018V142.449Z" fill="#FAFAFA"/>
<path d="M291.305 149.172H286.499V153.629H291.305V149.172Z" fill="#FAFAFA"/>
<path d="M284.591 155.896H279.785V160.353H284.591V155.896Z" fill="#FAFAFA"/>
<path d="M298.018 155.896H293.212V160.353H298.018V155.896Z" fill="#FAFAFA"/>
<path d="M304.732 155.896H299.926V160.353H304.732V155.896Z" fill="#FAFAFA"/>
<path d="M291.305 162.613H286.499V167.07H291.305V162.613Z" fill="#FAFAFA"/>
<path d="M284.591 169.336H279.785V173.793H284.591V169.336Z" fill="#FAFAFA"/>
<path d="M291.305 169.336H286.499V173.793H291.305V169.336Z" fill="#FAFAFA"/>
<path d="M304.732 169.336H299.926V173.793H304.732V169.336Z" fill="#FAFAFA"/>
<path d="M284.633 175.945L279.828 175.881L279.759 180.338L284.564 180.402L284.633 175.945Z" fill="#FAFAFA"/>
<path d="M298.056 176.13L293.25 176.066L293.182 180.523L297.987 180.586L298.056 176.13Z" fill="#FAFAFA"/>
<path d="M304.761 176.219L299.955 176.155L299.886 180.611L304.692 180.675L304.761 176.219Z" fill="#FAFAFA"/>
<path d="M291.305 182.777H286.499V187.234H291.305V182.777Z" fill="#FAFAFA"/>
<path d="M83.8956 39.4397C78.1665 39.4586 62.099 41.8949 62.099 32.8612C62.099 25.1873 69.9528 25.7538 69.9528 25.7538C69.9528 25.7538 69.7288 19.106 76.7206 18.2184C83.8956 17.3119 84.9817 24.4948 84.9817 24.4948C84.9817 24.4948 97.4379 19.9181 95.544 31.4007C95.544 31.4007 102.448 30.1227 102.448 35.2912C102.448 41.0639 89.4483 39.4208 83.9024 39.4334L83.8956 39.4397Z" fill="#AEEBF3"/>
<path d="M186.661 53.1951C178.699 53.2202 156.359 56.6071 156.359 44.0543C156.359 33.3839 167.274 34.1708 167.274 34.1708C167.274 34.1708 166.962 24.9293 176.683 23.7018C186.654 22.4427 188.161 32.427 188.161 32.427C188.161 32.427 205.478 26.0688 202.837 42.0273C202.837 42.0273 212.436 40.252 212.436 47.4349C212.436 55.4613 194.372 53.1699 186.654 53.1951H186.661Z" fill="#AEEBF3"/>
<path d="M284.449 36.7958C278.618 36.8147 262.279 39.2951 262.279 30.1103C262.279 22.3042 270.262 22.877 270.262 22.877C270.262 22.877 270.031 16.1159 277.145 15.2157C284.442 14.2903 285.542 21.5991 285.542 21.5991C285.542 21.5991 298.208 16.9469 296.281 28.6246C296.281 28.6246 303.3 27.3278 303.3 32.5843C303.3 38.4578 290.083 36.7833 284.435 36.7958H284.449Z" fill="#AEEBF3"/>
<path d="M362.215 19.909C360.871 20.4005 358.597 21.1907 357.404 21.9858C356.9 22.2944 356.282 22.9978 356.714 23.1246C357.569 23.3593 361.315 20.5414 362.213 19.9095C360.809 21.4411 356.539 25.2245 356.051 23.2566C355.346 21.3403 360.259 20.1566 362.213 19.9095L362.215 19.909Z" fill="#26282D"/>
<path d="M364.092 27.5575C364.092 27.5575 363.354 23.8814 363.915 22.9672C364.474 22.0529 364.422 19.4373 364.289 18.746C364.156 18.0564 363.731 17.0707 363.393 17.1456C363.055 17.2205 361.822 16.8966 361.578 16.9506C361.334 17.0046 360.748 17.1352 360.309 17.2327C359.87 17.3302 359.423 18.9567 359.113 19.4617C358.804 19.9667 360.995 26.2846 360.995 26.2846L364.091 27.5575H364.092Z" fill="#FD5E5A"/>
<path d="M385.576 112.183L362.534 20.0477L363.308 19.8247L386.35 111.962L386.249 113.488L385.576 112.183Z" fill="#00587E"/>
<path d="M363.931 19.2214L361.752 19.8762L364.303 27.9725L365.305 27.5666L363.931 19.2214Z" fill="#4B5059"/>
<path d="M384.996 110.794L383.33 103.913L384.423 103.58L386.236 110.416L384.996 110.794Z" fill="#172866"/>
<path d="M361.534 16.646L361.529 16.9629C361.529 16.9629 361.234 19.1188 361.719 19.4601C362.205 19.8014 362.476 17.0622 362.476 17.0622C362.476 17.0622 362.04 19.5454 362.488 19.7509C363.116 20.04 363.451 17.454 363.451 17.454C363.451 17.454 362.998 18.9342 363.144 19.6882C363.29 20.4405 364.287 18.7479 364.287 18.7479C364.287 18.7479 364.378 17.9834 363.993 17.2328C363.609 16.4805 363.295 16.7853 363.064 16.6233C362.832 16.4597 361.807 16.484 361.534 16.6477V16.646Z" fill="#FC7575"/>
<path d="M361.988 18.3454C362.526 18.7233 360.244 19.965 360.039 20.6789C359.834 21.3929 360.221 22.4465 359.784 22.5562C359.639 22.5928 358.816 19.9563 359.014 19.6341C359.211 19.3119 361.446 17.9641 361.988 18.3454Z" fill="#FC7575"/>
<path d="M258.355 37.9346C258.355 37.9346 258.38 34.1749 257.657 33.4017C256.935 32.6285 256.49 30.0565 256.49 29.3512C256.49 28.6459 256.717 27.5889 257.062 27.5889C257.407 27.5889 258.554 27.002 258.802 27.002C259.051 27.002 257.109 21.6211 257.955 21.3512C258.802 21.0812 259.648 27.002 260.097 27.002C260.546 27.002 260.645 20.5727 261.343 20.5727C262.041 20.5727 261.293 28.4979 261.691 28.9246C262.09 29.3512 261.143 36.0156 261.143 36.0156L258.353 37.9346H258.355Z" fill="#FD5E5A"/>
<path d="M258.788 26.6936L258.853 27.0036C258.853 27.0036 259.551 29.0498 259.139 29.4903C258.728 29.9309 257.942 27.3066 257.942 27.3066C257.942 27.3066 258.841 29.6419 258.44 29.9431C257.88 30.3628 257.06 27.9039 257.06 27.9039C257.06 27.9039 257.786 29.2553 257.786 30.0232C257.786 30.7912 256.488 29.351 256.488 29.351C256.488 29.351 256.254 28.6231 256.488 27.8029C256.722 26.9827 257.086 27.2126 257.282 27.0036C257.478 26.7929 258.487 26.5944 258.786 26.6936H258.788Z" fill="#FC7575"/>
<path d="M261.244 29.0292C261.244 29.0292 259.124 27.967 258.666 28.458C258.21 28.9456 260.522 30.1333 260.857 30.788C261.193 31.4428 261.162 31.7563 261.48 32.0958C261.797 32.4354 262.028 29.2643 261.774 28.9909C261.52 28.7192 261.244 29.0292 261.244 29.0292Z" fill="#FC7575"/>
<path d="M327.303 60.9166C327.303 60.9166 319.259 64.0006 311.264 63.109C310.148 62.9854 306.8 62.6301 305.633 62.4769C296.277 61.2492 286.334 60.739 286.334 60.8852L286.99 64.8766C286.99 64.8766 299.201 70.5292 308.744 72.699C316.189 74.3916 324.076 73.4147 327.15 73.4147C334.163 73.4147 331.65 60.9148 327.301 60.9148L327.303 60.9166Z" fill="#FF9739"/>
<path d="M325.634 61.674C325.634 61.674 317.607 73.5417 314.528 73.5417C311.449 73.5417 305.631 62.4768 305.631 62.4768L304.974 79.5827C304.974 79.5827 308.261 85.7682 314.835 85.7682C321.41 85.7682 331.274 60.5508 331.274 60.5508L325.634 61.674Z" fill="#3F2344"/>
<path d="M348.938 118.616V205.567H343.659L336.801 122.881L334.651 112.854L348.938 118.616Z" fill="#0F1D5B"/>
<path d="M328.231 203.961L328.748 209.586L318.096 208.862C318.096 208.862 322.535 206.662 324.71 206.662L325.175 203.96H328.23L328.231 203.961Z" fill="#0F1D5B"/>
<path d="M343.813 203.961V209.062H355.099L347.437 205.698L346.713 203.961H343.813Z" fill="#0F1D5B"/>
<path d="M326.427 117.596L325.125 122.583L322.667 204.698H328.921L340.863 117.596H326.427Z" fill="#2A417F"/>
<path d="M358.844 25.5119C358.844 25.5119 358.445 37.6565 357.014 40.8433C354.426 46.6074 345.892 57.5731 345.892 57.5731L351.215 71.5497C351.215 71.5497 361.155 55.1595 364.262 44.2878C365.639 39.4659 365.013 26.0918 365.013 26.0918C363.408 24.5019 360.447 23.9185 358.844 25.5102V25.5119Z" fill="#FBCE5D"/>
<path d="M309.034 207.432L308.311 207.101L308.344 206.123L305.529 206.328L305.013 208.977L305.115 210.412H315.632C315.632 210.412 310.992 208.094 309.034 207.43V207.432Z" fill="#6E1D6B"/>
<path d="M307.488 116.241L295.425 129.709L296.487 132.612C296.487 132.612 303.302 161.92 303.302 164.9C303.302 167.879 303.785 206.453 303.785 206.453L309.068 206.067L310.325 164.583L307.49 116.24L307.488 116.241Z" fill="#6D70A8"/>
<path d="M285.053 112.699C285.207 114.679 280.576 157.972 280.576 157.972L274.632 205.146L278.101 205.224C277.276 202.354 289.01 165.097 289.01 165.097C289.01 165.097 298.466 134.347 298.105 134.347L303.671 121.746C303.671 121.746 308.165 118.249 308.499 111.245C301.571 110.472 285.054 112.697 285.054 112.697L285.053 112.699Z" fill="#A1AAFF"/>
<path d="M278.101 205.224L274.632 205.145V213.172H280.885C280.885 213.172 278.927 208.094 278.101 205.224Z" fill="#6E1D6B"/>
<path d="M282.757 124.591C281.956 118.54 282.33 88.2132 281.985 77.1169C281.974 76.7634 284.229 62.7607 284.229 62.7607C284.773 62.7607 291.092 61.8169 296.041 61.8169C300.991 61.8169 305.631 62.4786 305.631 62.4786C305.631 62.4786 307.796 69.7647 307.796 77.3816C307.796 81.6934 309.518 108.595 308.931 120.912C302.184 121.871 289.503 124.435 282.756 124.591H282.757Z" fill="#542F5A"/>
<path d="M305.631 62.4769C307.027 67.1334 307.895 71.9972 308.017 76.9184C308.289 85.8275 309.811 107.498 308.933 120.91C309.1 106.886 307.539 83.5201 307.56 76.9237C307.562 72.3211 306.76 66.9663 305.631 62.4752V62.4769Z" fill="#95719C"/>
<path d="M300.721 51.8158C300.721 51.8158 299.114 52.9842 296.902 52.4966C296.902 52.4966 298.125 53.9995 299.047 54.003C299.969 54.0064 300.721 51.8158 300.721 51.8158Z" fill="white"/>
<path d="M284.839 62.3531C284.839 62.3531 284.021 67.0323 284.745 66.9417C285.469 66.8512 286.007 63.6783 286.007 63.6783C286.007 63.6783 285.796 67.9413 286.466 67.8577C287.136 67.7741 287.404 63.7097 287.404 63.7097C287.404 63.7097 287.622 67.1716 288.179 67.6435C288.737 68.1154 288.915 63.4659 288.915 63.4659C288.915 63.4659 289.093 66.3479 289.455 66.3009C289.818 66.2556 290.443 63.5686 290.576 62.2713C290.709 60.9756 289.442 60.5647 288.219 60.7179C286.995 60.8712 287.377 60.7545 286.334 60.8851C285.292 61.0157 284.839 62.3531 284.839 62.3531Z" fill="#FD5E5A"/>
<path d="M289.586 44.8678C288.872 44.2983 287.822 44.0162 286.58 44.3819L286.738 44.8242C287.831 44.3157 288.844 44.4394 289.586 44.8678Z" fill="#1B2B80"/>
<path d="M286.238 47.1487C286.427 46.4957 286.847 45.8183 287.434 45.4264C288.019 45.0364 288.452 45.0486 288.924 45.0364C289.098 45.0451 289.27 45.0816 289.446 45.1043C289.395 45.0956 288.771 44.9406 288.397 45.0015C287.307 45.0555 286.404 45.9837 286.027 47.0808L286.238 47.1487Z" fill="#1B2B80"/>
<path d="M297.295 57.0819C297.295 57.0819 296.734 63.4067 298.471 66.5116C299.029 67.5077 298.406 68.7999 297.323 68.8451C296.69 68.8713 295.854 68.7668 294.748 68.4359C293.683 68.1172 292.006 67.0637 291.607 65.6514C290.378 61.2944 292.712 53.5346 292.712 53.5346L297.295 57.0819Z" fill="#FC7575"/>
<path d="M292.094 55.9675C292.419 54.5116 292.712 53.533 292.712 53.533L297.295 57.0802C297.295 57.0802 297.134 58.893 297.251 61.0541C295.755 60.6989 293.793 59.506 292.092 55.9657L292.094 55.9675Z" fill="#FD5E5A"/>
<path d="M298.676 42.003C298.676 42.003 299.67 41.5885 300.499 42.9485C301.327 44.3086 302.101 48.8624 301.383 53.0592C300.665 57.2577 300.112 58.8546 298.4 58.8546C296.687 58.8546 293.54 58.0867 291.22 52.4096C288.901 46.7326 289.673 40.2285 298.676 42.003Z" fill="#FC7575"/>
<path d="M298.953 45.458C299.34 45.458 301.067 45.7279 301.667 41.9439C302.267 38.1598 298.483 33.5137 295.887 34.7553C293.291 35.9969 296.578 38.1598 296.578 38.1598C296.578 38.1598 294.701 37.0365 294.148 38.3374C293.595 39.6382 294.424 40.2303 294.148 40.5246C293.871 40.8206 292.09 38.165 290.108 40.2878C288.125 42.4123 289.454 43.7166 288.958 44.899C288.46 46.0815 286.18 47.7828 288.46 51.7585C289.909 54.2835 292.38 54.7589 292.38 54.7589C292.38 54.7589 291.994 53.4145 291.994 51.64C291.994 49.8655 293.32 51.2848 293.32 51.2848C293.32 51.2848 292.713 51.149 292.713 49.3919C292.713 47.5059 291.996 45.9805 291.996 45.4981C291.996 45.0157 291.83 43.7741 293.709 44.6012C295.586 45.4284 298.956 45.4545 298.956 45.4545L298.953 45.458Z" fill="#1B2B80"/>
<path d="M298.193 53.1081C298.048 53.1238 298.025 52.887 298.172 52.873L299.608 52.7233L299.25 48.7302C299.413 49.8639 299.719 51.978 299.855 52.9357C299.808 52.941 298.092 53.1186 298.193 53.1081Z" fill="#172866"/>
<path d="M294.719 48.6657C295.823 46.8495 297.565 48.0058 297.583 48.0162C297.707 48.0998 297.588 48.3001 297.464 48.2165C297.401 48.1729 295.89 47.1716 294.903 48.7946C294.87 48.8486 294.802 48.8643 294.75 48.8294C294.699 48.7929 294.685 48.7197 294.717 48.6657H294.719Z" fill="#172866"/>
<path d="M301.238 46.9766C301.3 46.9766 301.348 47.0288 301.348 47.095C301.348 47.1612 301.3 47.2134 301.238 47.2134C300.294 47.2134 300.103 48.2252 300.094 48.267C300.067 48.4202 299.85 48.3767 299.878 48.2234C299.88 48.2112 300.111 46.9766 301.238 46.9766Z" fill="#172866"/>
<path d="M297.119 54.6703L297.123 54.6737C297.656 55.2658 298.94 55.2293 299.699 55.0934H299.704C299.876 55.0621 299.927 55.3372 299.756 55.379C297.645 55.8962 296.438 55.0464 296.807 54.665C296.895 54.5745 297.035 54.578 297.119 54.672V54.6703Z" fill="white"/>
<path d="M293.782 52.2564C293.782 52.2564 293.893 49.5955 291.959 49.0626C290.026 48.5297 290.277 50.8685 291.352 52.0195C292.427 53.1706 293.782 52.2564 293.782 52.2564Z" fill="#FC7575"/>
<path d="M291.96 49.8532C292.77 49.6163 293.117 50.8266 293.152 50.9468C293.268 51.3403 293.213 51.706 292.531 51.8436C291.85 51.9812 291.15 50.09 291.96 49.8532Z" fill="#FD5E5A"/>
<path d="M327.303 60.9164C327.303 60.9164 319.884 64.1763 312.697 64.4549L314.273 73.5155C320.528 74.2956 324.572 73.4162 327.151 73.4162C334.165 73.4162 331.652 60.9164 327.303 60.9164Z" fill="#FF9739"/>
<path d="M334.03 60.0214C334.03 60.0214 327.815 60.105 325.778 62.2852C323.742 64.4655 322.667 124.004 322.667 124.004C322.667 124.004 351.24 122.872 351.292 121.42C351.596 112.927 351.627 80.1521 351.217 71.5513C350.802 62.839 346.455 56.697 346.455 56.697C342.935 56.697 334.03 60.0231 334.03 60.0231V60.0214Z" fill="#F9B406"/>
<path d="M325.634 61.6738C325.634 61.6738 325.569 66.4349 326.268 66.2137C326.967 65.9926 326.993 62.7675 326.993 62.7675C326.993 62.7675 327.462 67.0078 328.108 66.8023C328.755 66.5968 328.374 62.5428 328.374 62.5428C328.374 62.5428 329.137 65.9142 329.762 66.2781C330.386 66.6421 329.825 62.0274 329.825 62.0274C329.825 62.0274 330.458 64.8345 330.808 64.7231C331.157 64.6116 331.348 61.8497 331.274 60.5489C331.201 59.2463 329.915 59.2463 328.732 59.6207C327.55 59.9951 327.88 59.6364 326.873 59.9551C325.866 60.2738 325.634 61.6721 325.634 61.6721V61.6738Z" fill="#FD5E5A"/>
<path d="M338.187 43.1609C338.187 43.1609 338.882 41.0242 339.908 41.026C340.934 41.026 341.339 44.1361 340.212 44.7787C339.083 45.4213 337.868 44.7595 338.189 43.1627L338.187 43.1609Z" fill="#FD5E5A"/>
<path d="M330.567 47.9776C330.567 47.9776 332.637 58.7065 333.916 60.5384C335.194 62.3704 339.205 62.4575 340.503 61.0295L339.075 51.8209L330.569 47.9776H330.567Z" fill="#FC7575"/>
<path d="M339.495 54.5288L339.075 51.8209L330.569 47.9776C330.569 47.9776 330.985 50.1387 331.561 52.6864C332.73 53.8288 333.983 54.7082 335.05 55.1993C336.834 56.0229 338.456 55.6694 339.496 54.5288H339.495Z" fill="#FD5E5A"/>
<path d="M335.154 35.2427C335.154 35.2427 337.507 35.2253 338.459 36.9702C339.41 38.7151 341.468 47.8523 340.994 50.1788C340.521 52.5053 338.276 53.6355 335.601 52.4897C332.924 51.3438 329.035 48.0874 328.127 44.4809C327.22 40.8762 330.596 34.1787 335.155 35.2427H335.154Z" fill="#FC7575"/>
<path d="M331.956 34.1388C330.525 34.9451 326.595 33.6721 325.772 37.7209C324.947 41.7714 327.246 41.7523 326.948 43.2168C326.65 44.6813 326.963 45.2107 328.143 47.3788C329.326 49.5468 330.147 50.3427 330.516 50.7066C330.995 51.1768 331.248 51.2726 331.248 51.2726L330.588 48.0736C330.588 48.0736 329.139 46.8929 329.323 45.9909C329.506 45.0871 330.964 45.8515 331.312 45.2473C331.863 44.2825 329.245 39.5145 332.641 37.5642C335.611 35.8593 338.216 36.7109 339.223 39.0931C340.137 38.6769 337.86 30.8127 331.958 34.1405L331.956 34.1388Z" fill="#111F59"/>
<path d="M331.162 45.9734C331.162 45.9734 329.923 44.2703 329.001 44.7736C328.078 45.2768 328.609 48.4462 329.807 48.5072C331.008 48.5698 331.909 47.3439 331.162 45.9734Z" fill="#FC7575"/>
<path d="M330.741 45.921C330.741 45.921 329.048 44.9406 328.843 45.9471C328.638 46.9536 329.508 47.9654 330.458 47.3124C331.406 46.6593 330.741 45.921 330.741 45.921Z" fill="#FD5E5A"/>
<path d="M335.282 49.2628C336.507 49.3377 337.818 49.1096 338.895 48.5018C339.267 48.3051 339.6 48.0404 339.942 47.7704C339.672 48.117 339.366 48.4513 338.997 48.6882C338.276 49.2576 336.691 49.7069 335.282 49.2628Z" fill="white"/>
<path d="M331.927 44.8223C331.93 44.7666 332.027 43.4327 332.927 42.6334C333.846 41.8166 334.965 42.3739 335.012 42.3983C335.165 42.4766 335.056 42.7257 334.901 42.6473C334.861 42.6264 333.882 42.144 333.091 42.8458C332.28 43.5668 332.185 44.8293 332.184 44.8415C332.179 44.9181 332.117 44.9756 332.045 44.9686C331.972 44.9634 331.92 44.8955 331.927 44.8206V44.8223Z" fill="#172866"/>
<path d="M336.97 41.6583C337.372 40.589 339.275 40.892 339.573 41.2368C339.688 41.3709 339.498 41.5573 339.383 41.4232C339.383 41.4232 339.153 41.202 338.294 41.1933C337.447 41.1846 337.218 41.7401 337.21 41.7627C337.143 41.9299 336.907 41.8254 336.97 41.6583Z" fill="#172866"/>
<path d="M337.953 46.083C337.611 45.7626 337.105 45.4839 337.089 45.4735C337.074 45.5066 336.822 45.9576 336.699 46.3651C336.86 46.1718 337.019 45.9158 337.144 45.6912C337.392 45.8392 337.683 45.9942 337.953 46.0847V46.083Z" fill="#18287D"/>
<path d="M331.086 39.4257C331.086 39.4257 331.897 36.7422 331.727 35.5198C331.554 34.2973 330.334 33.6425 329.676 34.0953C329.017 34.548 329.183 35.1384 329.183 35.1384C329.183 35.1384 328.807 33.9281 329.334 33.1044C329.863 32.2807 330.98 32.5054 331.551 32.6395C332.122 32.7718 332.286 33.0905 332.286 33.0905C332.286 33.0905 332.421 32.0352 331.749 31.6677C331.078 31.3003 330.362 31.7653 330.362 31.7653C330.362 31.7653 331.094 30.7431 332.345 31.0356C333.595 31.3282 333.674 32.0578 333.862 32.3713C334.051 32.6847 333.851 33.4092 333.851 33.4092C333.851 33.4092 334.636 32.8676 334.773 32.1971C334.91 31.5267 333.805 30.4627 333.805 30.4627C333.805 30.4627 337.066 29.8898 336.406 33.1392C336.406 33.1392 337.068 33.188 337.416 32.5681C337.764 31.9481 337.361 31.1871 337.361 31.1871C337.361 31.1871 342.606 36.7666 339.225 39.0931C339.095 39.1819 338.862 37.0975 335.851 37.0435C333.007 36.993 331.087 39.4275 331.087 39.4275L331.086 39.4257Z" fill="#1B2B80"/>
<path d="M332.543 44.4132C332.304 45.5869 332.94 46.7328 333.963 46.9714C334.986 47.2099 336.009 46.4507 336.247 45.277C336.486 44.1032 335.85 42.9574 334.827 42.7188C333.804 42.4802 332.781 43.2395 332.543 44.4132Z" fill="#172866"/>
<g opacity="0.69">
<path d="M333.491 42.9677L335.721 46.3565C335.611 46.4836 335.485 46.5951 335.352 46.6874L333.114 43.2846C333.228 43.1627 333.355 43.0548 333.491 42.9677Z" fill="#757AD8"/>
<path d="M332.818 43.6835L334.937 46.9051C334.858 46.9347 334.775 46.9591 334.692 46.9765L332.691 43.936C332.729 43.8489 332.771 43.7636 332.818 43.6835Z" fill="#757AD8"/>
</g>
<path d="M337.062 42.8651C336.822 44.0388 337.458 45.1847 338.481 45.4232C339.505 45.6618 340.528 44.9025 340.765 43.7288C341.004 42.5551 340.368 41.4093 339.345 41.1707C338.322 40.9321 337.299 41.6914 337.062 42.8651Z" fill="#172866"/>
<g opacity="0.69">
<path d="M338.008 41.4193L340.238 44.8081C340.127 44.9352 340.002 45.0467 339.869 45.139L337.631 41.7363C337.745 41.6144 337.871 41.5064 338.008 41.4193Z" fill="#757AD8"/>
<path d="M337.336 42.1351L339.456 45.3567C339.376 45.3863 339.293 45.4107 339.21 45.4281L337.209 42.3876C337.247 42.3005 337.289 42.2152 337.336 42.1351Z" fill="#757AD8"/>
</g>
<path d="M337.205 43.5018L335.952 44.0079L336.067 44.3321L337.319 43.826L337.205 43.5018Z" fill="#172866"/>
<path d="M330.571 44.762L330.502 45.1006L332.689 45.6106L332.758 45.272L330.571 44.762Z" fill="#172866"/>
<path d="M284.231 62.7588C284.231 62.7588 284.049 70.9155 281.987 77.115C281.987 77.115 272.408 68.744 265.525 62.9068C259.804 58.0552 257.064 36.0594 257.064 36.0594L262.589 33.7486C262.589 33.7486 265.617 51.753 271.099 56.6952C278.213 63.1088 284.231 62.7588 284.231 62.7588Z" fill="#76597B"/>
<path d="M297.295 49.4441C297.295 49.7767 297.043 50.0484 296.731 50.0484C296.418 50.0484 296.166 49.7784 296.166 49.4441C296.166 49.1097 296.418 48.8398 296.731 48.8398C297.043 48.8398 297.295 49.1097 297.295 49.4441Z" fill="#172866"/>
<path d="M301.285 49.2229C301.285 49.5555 301.033 49.8271 300.721 49.8271C300.408 49.8271 300.156 49.5572 300.156 49.2229C300.156 48.8885 300.408 48.6186 300.721 48.6186C301.033 48.6186 301.285 48.8885 301.285 49.2229Z" fill="#172866"/>
<path d="M241.849 74.9165C237.668 74.7615 227.178 73.6888 218.895 67.1428C206.823 57.6033 204.586 52.4905 204.586 52.4905C204.586 52.4905 204.633 50.1901 204.267 49.0216C203.903 47.8532 203.973 46.1501 203.298 46.3921C202.621 46.6342 202.994 48.13 203.15 48.6316C203.205 48.8075 203.135 48.9363 203.021 49.0321C202.724 49.2811 202.285 49.1819 202.077 48.8458C201.863 48.5044 201.571 47.888 201.224 46.7787C200.494 44.4417 199.671 42.4112 199.393 43.0051C199.116 43.5989 200.577 47.6198 200.837 48.4557C201.097 49.2898 199.084 45.3473 198.181 43.7521C197.278 42.157 196.974 43.2872 197.529 44.1405C198.083 44.9938 200.097 48.9119 199.811 49.0147C199.525 49.1174 197.072 44.736 196.371 44.9885C195.67 45.2393 196.558 45.8087 196.963 46.4896C197.368 47.1705 199.212 49.0269 198.911 49.6695C198.911 49.6695 196.094 47.5362 196.166 48.0012C196.202 48.2328 198.77 51.0696 199.954 52.1423C202.74 54.6673 214.638 72.0118 219.347 74.5107C223.937 76.947 235.984 85.4242 240.756 84.0589C243.874 80.2713 243.152 79.0819 241.851 74.9165H241.849Z" fill="#FD5E5A"/>
<path d="M234.112 53.2257C234.112 53.2257 238.707 52.9627 240.299 57.5548C241.892 62.1469 246.808 81.3129 237.222 79.077C234.876 78.5302 229.026 72.5101 229.394 67.7874C229.761 63.0647 232.559 53.0637 234.11 53.2257H234.112Z" fill="#001429"/>
<path d="M242.147 75.6757C242.147 75.6757 241.454 92.7224 242.84 98.9689C244.224 105.215 244.818 106.274 244.818 106.274C244.818 106.274 235.324 113.05 231.171 111.674C231.171 111.674 224.348 94.3106 222.964 90.4987C221.58 86.6867 229.211 73.8577 229.211 73.8577C229.211 73.8577 240.368 76.3114 242.149 75.6775L242.147 75.6757Z" fill="#C0B4FE"/>
<path d="M230.871 67.0992L229.293 78.004C229.293 78.004 228.336 79.7976 227.46 82.4585C226.253 86.1224 236.175 76.2364 236.175 76.2364L234.982 65.0722L230.871 67.0992Z" fill="#FD5E5A"/>
<path d="M253.767 167.074C253.767 167.074 258.168 176.683 251.023 197.408L249.705 201.23L246.054 200.187C246.054 200.187 246.277 172.713 244.496 170.012C242.716 167.312 253.767 167.074 253.767 167.074Z" fill="#FD5E5A"/>
<path d="M285.542 123.709C285.542 123.709 276.24 144.679 274.609 146.428C272.977 148.174 271.79 135.072 271.79 135.072L276.364 129.461C276.364 129.461 282.767 121.256 283.286 121.256C283.805 121.256 285.542 122.281 285.542 123.709Z" fill="#FC7575"/>
<path d="M272.67 130.091C272.67 130.091 270.133 134.013 267.265 133.379C264.398 132.744 258.464 108.287 244.818 106.274C244.818 106.274 233.84 113.262 231.171 111.674C231.171 111.674 240.93 165.625 239.842 172.93C239.842 172.93 251.817 177.188 257.057 170.412C262.298 163.636 273.826 167.119 279.09 151.53C281.181 145.332 278.141 131.941 272.67 130.091Z" fill="#006282"/>
<path d="M238.821 57.675L240.301 57.5548C240.301 57.5548 243.907 63.6689 248.241 65.0969C252.576 66.5249 253.41 71.2023 251.325 74.1732C249.242 77.1457 254.16 76.5206 253.742 79.7335C253.326 82.9464 249.447 90.6121 245.005 82.8576C240.563 75.1013 238.821 57.675 238.821 57.675Z" fill="#001429"/>
<path d="M234.148 56.1284L227.426 60.1005C227.426 60.1005 226.03 60.1336 226.03 58.4706C226.03 56.8075 227.743 55.1776 229.486 54.2267C231.23 53.2759 233.418 52.8667 233.418 52.8667L234.148 56.1284Z" fill="#001429"/>
<path d="M231.705 54.3296C231.705 54.3296 229.104 54.805 228.406 56.1285C227.709 57.452 227.518 60.6109 226.82 61.3562C226.123 62.1033 225.514 62.267 225.514 62.267C225.514 62.267 225.329 62.6118 226.027 62.9862C226.725 63.3606 226.59 64.0032 226.157 64.0032C225.724 64.0032 225.898 64.8686 226.232 64.9696C226.232 64.9696 225.856 65.1281 225.934 65.5687C226.014 66.0093 226.378 66.2774 226.157 66.8208C225.936 67.3641 226.079 69.1316 229.483 68.4176C229.483 68.4176 234.541 67.1447 234.842 65.6175C235.143 64.0902 237.394 58.5369 235.477 56.4837C233.559 54.4306 231.703 54.3296 231.703 54.3296H231.705Z" fill="#FC7575"/>
<path d="M234.169 52.8007C234.169 52.8007 233.26 52.2243 230.088 53.1908C226.916 54.159 226.158 57.6732 226.158 57.6732C226.158 57.6732 228.151 55.1516 229.434 55.1516C230.718 55.1516 233.675 55.674 234.146 55.169C234.618 54.664 234.167 52.8007 234.167 52.8007H234.169Z" fill="#001429"/>
<path d="M233.71 52.6649C233.266 52.6649 230.391 55.8917 231.152 58.4377C231.913 60.9836 233.72 59.8465 234.862 60.5256C236.004 61.2048 234.641 64.3445 234.847 65.6175C235.052 66.8905 238.256 74.1731 238.256 74.1731C238.256 74.1731 240.952 58.779 239.317 55.9265C237.682 53.0741 233.71 52.6649 233.71 52.6649Z" fill="#001429"/>
<path d="M234.514 60.832C234.514 60.832 235.431 58.6936 235.861 59.1516C236.29 59.6095 236.501 62.7667 234.992 63.0732C233.483 63.378 234.514 60.832 234.514 60.832Z" fill="#FC7575"/>
<path d="M234.58 61.0914C234.58 61.0914 235.054 59.9264 235.311 60.1998C235.568 60.4732 235.291 62.3104 234.946 62.3104C234.602 62.3104 234.497 61.6782 234.582 61.0896L234.58 61.0914Z" fill="#FD5E5A"/>
<path d="M228.031 62.9321C228.031 63.2751 228.595 63.552 229.291 63.552C229.987 63.552 230.552 63.2751 230.552 62.9321C230.552 62.589 229.987 62.3121 229.291 62.3121C228.595 62.3121 228.031 62.5908 228.031 62.9321Z" fill="#FD5E5A"/>
<path d="M240.761 76.8182C236.841 75.2509 227.795 71.8064 221.876 62.7841C213.252 49.6382 212.647 44.0291 212.647 44.0291C212.647 44.0291 213.373 41.8628 213.373 40.6316C213.373 39.4004 213.943 37.8088 213.231 37.8088C212.519 37.8088 212.428 39.3534 212.428 39.8828C212.428 40.0674 212.323 40.1667 212.187 40.2189C211.831 40.353 211.444 40.1109 211.344 39.7209C211.243 39.3256 211.148 38.6412 211.148 37.4709C211.148 35.0068 210.967 32.8022 210.528 33.2707C210.089 33.7391 210.284 38.0491 210.284 38.9303C210.284 39.8114 209.541 35.3865 209.157 33.5684C208.773 31.7487 208.15 32.7169 208.423 33.7147C208.698 34.7126 209.445 39.1131 209.144 39.1131C208.843 39.1131 207.813 34.1257 207.073 34.1257C206.333 34.1257 207.006 34.9668 207.19 35.7487C207.374 36.5306 208.573 38.9181 208.096 39.4266C208.096 39.4266 206.055 36.447 205.987 36.912C205.952 37.1436 207.546 40.7065 208.352 42.1257C210.246 45.4658 216.393 65.9552 220.118 69.9239C223.75 73.7934 232.665 85.9223 237.594 86.2479C241.674 83.7142 240.758 81.2083 240.758 76.8164L240.761 76.8182Z" fill="#FC7575"/>
<path d="M234.992 63.0715C234.992 63.0715 232.718 64.0067 234.553 69.2971C236.791 75.7508 239.078 76.1478 236.174 79.258C233.271 82.3664 237.318 97.3582 247.737 94.316C247.737 94.316 242.116 93.6786 243.347 90.1087C244.579 86.5388 249.317 90.3699 249.317 86.3142C249.317 82.2584 247.106 84.1722 246.264 79.5523C245.421 74.9323 247.843 77.0429 247.21 72.2679C246.579 67.493 239.315 55.9265 239.315 55.9265L234.99 63.0715H234.992Z" fill="#001429"/>
<path d="M229.673 60.5826C229.673 60.5826 228.699 59.3967 228.369 59.3967C228.039 59.3967 228.032 59.7415 228.032 59.7415L229.675 60.5808L229.673 60.5826Z" fill="#001429"/>
<path d="M227.46 59.8043C227.46 59.8043 228.424 60.3023 228.831 60.7377C229.237 61.1731 229.211 61.3611 229.211 61.3611C229.211 61.3611 228.24 60.5113 227.866 60.3703C227.492 60.2292 227.46 59.8043 227.46 59.8043Z" fill="#001429"/>
<path d="M227.806 60.9414C227.806 61.227 227.905 61.4586 228.029 61.4586C228.153 61.4586 228.252 61.227 228.252 60.9414C228.252 60.6558 228.153 60.4242 228.029 60.4242C227.905 60.4242 227.806 60.6558 227.806 60.9414Z" fill="#001429"/>
<path d="M286.798 115.775C286.798 115.775 288.963 118.273 290.478 120.021C291.994 121.769 294.608 124.362 295.366 125.236C296.124 126.111 296.941 131.189 296.132 131.607C295.324 132.023 292.99 128.994 290.984 128.2C288.977 127.405 284.355 126.926 284.386 126.159C284.416 125.393 282.287 122.717 282.326 121.748C282.365 120.78 286.007 115.751 286.799 115.777L286.798 115.775Z" fill="#FDB647"/>
<path d="M286.263 117.47C291.279 125.463 291.539 121.503 295.67 130.092C294.862 127.81 293.357 124.735 291.506 123.295C290.498 122.513 289.631 121.512 288.767 120.53C287.907 119.537 287.084 118.506 286.263 117.47Z" fill="#FFF7CF"/>
<path d="M288.582 123.9C288.772 123.889 288.932 124.046 288.94 124.248C288.966 124.957 289.093 126.456 289.392 127.724C289.15 127.664 288.899 127.605 288.645 127.548C288.322 125.998 288.257 124.394 288.253 124.286C288.247 124.082 288.395 123.91 288.584 123.9H288.582Z" fill="#FFF7CF"/>
<path d="M287.199 124.537C287.38 124.598 287.478 124.805 287.419 124.998C287.414 125.016 287.123 125.993 287.077 127.205C286.842 127.152 286.612 127.1 286.394 127.048C286.458 125.815 286.744 124.852 286.767 124.777C286.824 124.584 287.019 124.476 287.199 124.537Z" fill="#FFF7CF"/>
<path d="M251.182 208.681C251.182 208.681 248.002 208.554 245.776 208.465C243.549 208.376 239.989 208.521 238.875 208.477C237.762 208.434 233.829 205.461 234.127 204.552C234.423 203.645 238.073 204.021 240.016 203.063C241.96 202.107 245.546 198.947 246.031 199.511C246.516 200.077 249.788 200.357 250.402 201.071C251.013 201.785 251.76 208.099 251.182 208.679V208.681Z" fill="#FDB647"/>
<path d="M250.441 207.078C241.614 205.223 244.047 208.22 235.452 205.275C237.531 206.276 240.626 207.313 242.886 206.93C244.115 206.721 245.389 206.771 246.648 206.811C247.911 206.862 249.174 206.966 250.439 207.078H250.441Z" fill="#FFF7CF"/>
<path d="M244.554 204.286C244.427 204.437 244.211 204.448 244.071 204.31C243.585 203.829 242.505 202.865 241.456 202.194C241.667 202.053 241.882 201.903 242.1 201.752C243.352 202.602 244.458 203.688 244.532 203.761C244.67 203.901 244.68 204.134 244.553 204.284L244.554 204.286Z" fill="#FFF7CF"/>
<path d="M245.112 202.79C244.945 202.884 244.738 202.812 244.652 202.63C244.644 202.614 244.205 201.703 243.437 200.812C243.639 200.67 243.834 200.533 244.024 200.404C244.793 201.323 245.228 202.222 245.26 202.29C245.348 202.471 245.281 202.696 245.112 202.788V202.79Z" fill="#FFF7CF"/>
<path d="M69.7428 82.2994C73.7554 80.6938 83.612 76.0094 89.6691 66.7764C98.4961 53.3205 99.1158 47.5791 99.1158 47.5791C99.1158 47.5791 98.3725 45.3622 98.3725 44.1015C98.3725 42.8407 97.787 41.2125 98.5173 41.2125C99.2476 41.2125 99.3403 42.7937 99.3403 43.3352C99.3403 43.525 99.4476 43.6261 99.5859 43.6783C99.9502 43.8159 100.345 43.5686 100.448 43.1698C100.55 42.7658 100.65 42.0657 100.65 40.8659C100.65 38.3426 100.835 36.0857 101.282 36.5664C101.731 37.047 101.533 41.458 101.533 42.36C101.533 43.2621 102.292 38.7327 102.686 36.8711C103.08 35.0095 103.717 36.0004 103.436 37.0209C103.154 38.0413 102.39 42.5464 102.699 42.5464C103.008 42.5464 104.06 37.4423 104.818 37.4423C105.576 37.4423 104.887 38.3026 104.7 39.1036C104.513 39.9047 103.285 42.3479 103.771 42.8685C103.771 42.8685 105.859 39.8193 105.931 40.2947C105.967 40.5316 104.334 44.1781 103.509 45.6322C101.57 49.0523 95.2773 70.0241 91.4648 74.0851C87.7482 78.0451 80.873 87.9851 80.1427 92.5441C75.9675 89.9511 71.8004 86.7748 69.7412 82.2994H69.7428Z" fill="#FD5E5A"/>
<path d="M97.735 48.483C97.735 48.483 91.7365 63.9015 87.0879 67.1092C82.4394 70.3169 74.3427 80.1524 68.9443 80.3718C68.9443 80.3718 78.1503 93.2548 80.1444 92.5425C82.1401 91.8303 93.9095 73.4497 96.2354 70.9612C98.5613 68.4727 102.384 50.5692 102.384 50.5692L97.735 48.483Z" fill="#F57408"/>
<path d="M49.2245 194.581C49.2245 194.581 45.7763 198.354 45.4006 200.841C45.0265 203.33 44.8752 206.861 44.8752 206.861H54.997C54.997 206.861 53.7868 202.677 53.7868 199.911C53.7868 197.146 49.2245 194.579 49.2245 194.579V194.581Z" fill="#1F0140"/>
<path d="M108.457 197.792C108.457 197.792 107.333 201.403 107.333 202.528V206.382L124.203 206.783C124.203 206.783 124.428 203.812 122.703 202.929C120.979 202.046 116.03 201.003 114.381 198.595C112.731 196.186 108.457 197.792 108.457 197.792Z" fill="#1F0140"/>
<path d="M87.5384 123.137L113.479 144.971L114.379 198.595H107.481L103.883 159.421L69.7592 132.006L87.5384 123.137Z" fill="#2E34A2"/>
<path d="M83.4884 128.114C83.4884 128.114 85.5883 138.068 85.5883 140.156C85.5883 142.244 78.9147 175.235 76.8914 177.403C74.868 179.571 54.9987 200.362 54.9987 200.362L46.3018 197.151C46.3018 197.151 65.0455 173.069 65.945 169.537C66.8445 166.006 68.4937 135.984 68.4937 135.984L82.7386 128.118H83.4884V128.114Z" fill="#757AD8"/>
<path d="M44.8769 206.863C48.6488 206.863 52.4222 206.863 56.1941 206.863C56.8024 206.863 56.0233 203.033 55.6134 202.68C54.779 201.959 47.7477 200.047 45.521 204.042C45.3909 204.273 44.6118 206.863 44.8769 206.863Z" fill="#2D015C"/>
<path d="M53.6487 85.7301C53.6487 85.7301 50.4998 92.7671 50.4998 94.707C50.4998 96.647 68.6434 133.413 66.6948 139.353C66.6948 139.353 86.1884 132.128 90.5377 125.225C90.5377 125.225 80.3412 82.6808 72.3941 80.4327C64.447 78.1845 55.5988 83.6438 53.6503 85.7301H53.6487Z" fill="#F78500"/>
<path d="M90.5377 125.223C88.0394 116.248 79.1977 82.8079 72.394 80.4309C80.0321 82.4944 88.6737 116.468 90.5377 125.223Z" fill="#FFF7CF"/>
<path d="M56.4983 87.1755C56.4983 87.1755 59.1218 88.2186 61.8966 87.1755C64.6714 86.1324 65.9352 84.3231 65.945 82.1986C65.9547 80.074 63.6955 78.1045 61.2216 78.1045C58.7477 78.1045 54.5481 80.8333 54.5481 83.2417C54.5481 85.65 56.4983 87.1755 56.4983 87.1755Z" fill="#753A00"/>
<path d="M67.4626 86.3917C67.4626 86.3917 69.0566 80.591 64.0453 77.8082C60.1563 75.6489 50.3502 80.591 51.2496 85.8362C51.8287 89.2093 56.8204 89.4809 60.1889 90.235C64.4454 91.1875 63.2987 88.2358 62.588 87.8005C60.5792 86.571 56.3032 85.6185 56.3032 83.6907C56.3032 80.2706 60.9338 78.0102 62.1456 79.3076C63.3557 80.6032 66.2134 87.7291 67.4626 86.3917Z" fill="#F57408"/>
<path d="M48.4569 68.8631C47.546 68.6663 46.4611 68.9118 45.495 69.8801L45.8414 70.2301C46.6043 69.1974 47.5851 68.8161 48.4569 68.8631Z" fill="#1B2B80"/>
<path d="M46.4515 72.7238C46.3246 71.9993 46.3962 71.1356 46.7524 70.4669C47.1069 69.7999 47.5071 69.5962 47.9316 69.3524C48.0942 69.274 48.2683 69.2253 48.4374 69.1591C48.387 69.1748 47.7478 69.335 47.4339 69.5788C46.4661 70.1709 46.0676 71.5135 46.227 72.7621L46.4515 72.722V72.7238Z" fill="#1B2B80"/>
<path d="M63.5459 80.5932C62.2154 78.3747 61.7844 76.4765 61.7844 76.4765L55.2751 75.6981C55.2751 75.6981 55.7907 77.3002 56.5503 79.4822C57.4172 81.9742 58.603 85.2202 59.7041 87.7121C63.3654 88.2206 65.257 87.073 66.215 85.9672C66.1304 85.6869 64.3299 81.901 63.5443 80.5932H63.5459Z" fill="#FC7575"/>
<path d="M56.7666 80.097C58.9885 80.4069 61.7193 80.393 63.4028 80.3495C62.1845 78.2371 61.7844 76.4748 61.7844 76.4748L55.2751 75.6964C55.2751 75.6964 55.7907 77.2985 56.5503 79.4805C56.6203 79.6808 56.6918 79.888 56.7666 80.097Z" fill="#FD5E5A"/>
<path d="M55.4281 61.5962C55.4281 61.5962 56.1438 60.7045 57.5214 61.6101C58.8991 62.5156 61.6885 66.5348 62.9572 70.951C64.2259 75.3655 64.4536 77.1835 62.8938 78.0299C61.3339 78.8762 58.1135 79.6912 53.3999 75.3498C48.6863 71.0085 46.4124 64.3354 55.4265 61.5979L55.4281 61.5962Z" fill="#FC7575"/>
<path d="M57.2628 64.8001C57.6157 64.6086 61.0851 63.3704 59.8993 59.4157C58.712 55.4592 53.3803 55.8841 50.625 62.4074C50.4559 62.8079 47.6697 61.1432 46.8353 64.1784C46.0009 67.2137 47.8112 67.818 47.899 69.2076C47.9885 70.5973 46.6889 73.3696 50.5876 76.0862C53.0648 77.812 55.5338 77.0475 55.5338 77.0475C55.5338 77.0475 54.5661 75.9382 53.7528 74.2229C52.9396 72.5076 54.7986 73.2233 54.7986 73.2233C54.7986 73.2233 54.1822 73.3923 53.3787 71.6944C52.515 69.8711 51.1618 68.7514 50.9406 68.2847C50.7194 67.818 50.0005 66.7 52.0905 66.5711C54.1806 66.4423 57.2612 64.8001 57.2612 64.8001H57.2628Z" fill="#1B2B80"/>
<path d="M60.0733 72.5737C59.9481 72.6608 59.8196 72.4431 59.9464 72.356L61.1875 71.501L59.0323 67.8162C59.7008 68.8314 60.9451 70.7243 61.5095 71.5828C61.4688 71.6107 59.9871 72.6329 60.0733 72.572V72.5737Z" fill="#172866"/>
<path d="M54.8734 69.9965C55.0474 67.6943 57.1651 67.9486 57.1863 67.952C57.3376 67.9729 57.3197 68.2237 57.17 68.2028C57.092 68.1924 55.2573 67.9712 55.1011 70.0296C55.0962 70.0975 55.0409 70.148 54.9775 70.1393C54.9141 70.1306 54.8685 70.0661 54.8734 69.9965Z" fill="#172866"/>
<path d="M60.0392 65.1378C60.0945 65.1082 60.1644 65.1343 60.1937 65.197C60.2229 65.2597 60.2034 65.3363 60.1465 65.3659C59.2877 65.8326 59.5756 66.9053 59.587 66.9506C59.6325 67.1125 59.4146 67.177 59.369 67.015C59.3658 67.0011 59.0096 65.695 60.0375 65.136L60.0392 65.1378Z" fill="#172866"/>
<path d="M59.8115 74.6144H59.8164C60.5743 74.9261 61.7259 74.2539 62.3553 73.7472L62.3586 73.7437C62.5017 73.6288 62.5456 73.8029 62.5375 73.9945C62.3635 78.1442 59.3609 75.3144 59.5236 74.7642C59.5626 74.6336 59.6911 74.5656 59.8115 74.6161V74.6144Z" fill="white"/>
<path d="M55.6655 73.9323C55.6655 73.9323 54.5481 71.3045 52.5426 71.7468C50.5371 72.1891 51.8367 74.3258 53.3428 74.9057C54.849 75.4874 55.6655 73.9323 55.6655 73.9323Z" fill="#FC7575"/>
<path d="M52.9037 72.5096C53.5331 71.881 54.4049 72.8788 54.4912 72.9781C54.7774 73.302 54.8929 73.6816 54.3366 74.1535C53.7787 74.6237 52.2759 73.14 52.9053 72.5114L52.9037 72.5096Z" fill="#FD5E5A"/>
<path d="M56.8577 69.8957C57.0139 70.2265 57.305 70.4059 57.5083 70.2962C57.71 70.1865 57.7474 69.8295 57.5913 69.4986C57.4351 69.1678 57.144 68.9884 56.9407 69.0981C56.739 69.2078 56.7016 69.5648 56.8577 69.8957Z" fill="#00147D"/>
<path d="M60.319 67.7833C60.4573 68.0758 60.685 68.2482 60.8281 68.1716C60.9713 68.095 60.9745 67.7955 60.8363 67.5029C60.698 67.2103 60.4703 67.0379 60.3272 67.1146C60.184 67.1912 60.1808 67.4907 60.319 67.7833Z" fill="#00147D"/>
<path d="M51.2495 85.8362C51.8285 89.2093 56.8203 89.481 60.1904 90.235C64.4469 91.1876 63.3003 88.2359 62.5895 87.8005C60.802 86.7052 57.2269 85.8293 56.4592 84.2916C54.7644 84.2707 53.2485 83.6769 51.7749 82.942C51.2934 83.865 51.0787 84.8454 51.2495 85.8362Z" fill="#F57408"/>
<path d="M61.0508 101.304C61.0508 101.304 74.0839 95.6213 76.3675 92.0723C76.3675 92.0723 79.967 103.069 79.967 103.552C79.967 103.552 70.7333 110.096 66.5337 111.245L61.0508 101.304Z" fill="#FFF7CF"/>
<path d="M72.3924 129.077C72.3518 129.077 72.3127 129.069 72.2737 129.051C72.1208 128.981 72.0509 128.792 72.1176 128.63C74.2092 123.458 71.7077 118.608 71.6817 118.559C71.6003 118.404 71.6507 118.209 71.7955 118.122C71.9386 118.035 72.1224 118.089 72.2038 118.244C72.3144 118.453 74.8761 123.423 72.6673 128.884C72.6185 129.006 72.5079 129.077 72.3924 129.077Z" fill="#F57408"/>
<path d="M85.2142 123.9C81.566 123.9 79.7492 115.383 79.6727 115.019C79.637 114.847 79.7378 114.674 79.9004 114.636C80.0696 114.598 80.2225 114.707 80.2583 114.88C80.2762 114.963 82.0442 123.258 85.2142 123.258C85.3801 123.258 85.5135 123.402 85.5135 123.578C85.5135 123.754 85.3785 123.898 85.2142 123.898V123.9Z" fill="#F57408"/>
<path d="M56.321 78.7888C54.4229 80.0131 52.1442 81.8711 51.6058 84.1785C50.4087 88.7846 56.9505 89.2112 60.1888 90.2369C57.1099 89.8242 52.4792 89.5699 51.2236 86.7541C49.7955 83.4384 53.0843 80.1942 56.321 78.7888Z" fill="#F78500"/>
<path d="M60.4329 98.4371C58.081 96.7149 63.1036 95.5621 63.1036 91.9103C63.1036 90.8951 62.9263 88.8228 62.1342 89.3679C61.8008 89.5942 61.4787 89.0701 61.7991 88.835C61.9829 88.7009 62.4026 88.5372 62.8059 88.7653C63.4094 89.1084 63.7021 90.1358 63.7021 91.9103C63.7021 94.0523 62.3456 95.3409 61.3567 96.283C60.3906 97.2007 60.1499 97.4515 60.7712 97.906C61.0965 98.1463 60.7631 98.6757 60.4329 98.4371Z" fill="#FFF7CF"/>
<path d="M71.4117 94.0193C69.05 94.0193 67.8935 92.3058 67.8935 89.6362C67.8935 86.3205 67.3763 85.9984 67.3178 85.9723C67.1746 85.92 66.9876 86.3414 66.7127 86.0628C66.3646 85.7041 67.038 85.166 67.5357 85.3749C67.9472 85.5491 68.4921 86.1795 68.4921 89.6362C68.4921 92.6993 70.0958 93.8156 72.5177 93.2305C72.8901 93.1086 73.0707 93.7268 72.6836 93.8469C72.6413 93.8609 72.1094 94.0193 71.41 94.0193H71.4117Z" fill="#FFF7CF"/>
<path d="M15.177 84.9483C13.0235 83.4925 11.4458 82.1638 10.7936 81.26C10.361 80.6836 9.49241 74.7123 7.91145 75.3531C7.66422 75.4524 7.51784 75.7537 7.64795 76.1281C7.72277 76.3457 7.8903 76.5286 8.14241 77.0876C8.54741 77.9861 8.55879 78.7785 8.3441 78.7506C7.60729 78.6618 3.63375 72.5442 2.79122 72.9709C2.09508 73.3244 4.33965 75.7954 4.9317 76.4781C5.99543 77.7058 6.42645 78.7489 6.14344 78.4215C5.86043 78.0941 3.77851 75.6944 2.89207 75.0014C2.00562 74.3083 0.774363 72.943 0.214846 73.5003C-0.34467 74.0575 0.883338 74.613 0.883338 74.613C2.23171 75.6788 4.83736 78.7663 5.72706 79.8007C3.97369 79.0449 0.0440637 74.1812 0.000148187 75.4419C-0.0275023 76.243 3.82243 80.0602 4.78531 80.7393C6.01007 81.6048 4.46977 81.0458 3.69393 80.7515C2.9799 80.4816 1.08177 78.8952 1.34689 80.0758C1.63966 81.2008 7.88054 83.8826 9.98036 85.3872C10.387 85.678 11.3499 86.5452 12.6771 87.7346C13.4058 86.7577 14.2564 85.8417 15.1787 84.9466L15.177 84.9483Z" fill="#FC7575"/>
<path d="M52.4092 88.6502C48.4698 90.0085 46.4123 92.3595 40.6333 92.7931C32.9709 93.3677 21.304 87.0133 15.1754 82.8705C14.2531 83.7638 11.7873 87.6733 11.0603 88.6502C15.4746 92.6137 25.5703 99.2903 31.294 101.552C36.7769 103.719 47.881 105.638 54.8717 105.237L52.4076 88.6502H52.4092Z" fill="#F78500"/>
<path d="M188.741 101.661C188.741 103.033 187.702 104.148 186.418 104.148C185.135 104.148 184.096 103.035 184.096 101.661C184.096 100.287 185.135 99.1742 186.418 99.1742C187.702 99.1742 188.741 100.287 188.741 101.661Z" fill="#241145"/>
<path d="M153.44 102.197C153.719 100.932 152.987 99.6653 151.806 99.3668C150.625 99.0683 149.441 99.8515 149.162 101.116C148.884 102.381 149.615 103.648 150.796 103.946C151.977 104.245 153.161 103.462 153.44 102.197Z" fill="#241145"/>
<path d="M152.423 105.44L151.307 148.402L185.397 148.998L185.93 105.44H152.423Z" fill="#270708"/>
<path d="M151.307 148.898C150.743 148.898 150.286 148.409 150.286 147.805V101.661C150.286 101.057 150.743 100.567 151.307 100.567C151.871 100.567 152.329 101.057 152.329 101.661V147.805C152.329 148.409 151.871 148.898 151.307 148.898Z" fill="#9A1C1F"/>
<path d="M185.442 149.496H185.42C184.855 149.482 184.408 148.982 184.421 148.378L185.397 101.636C185.408 101.032 185.875 100.546 186.441 100.567C187.005 100.581 187.453 101.081 187.44 101.685L186.464 148.426C186.452 149.022 185.997 149.496 185.442 149.496Z" fill="#9A1C1F"/>
<path d="M195.797 174.198H135.689V176.799H195.797V174.198Z" fill="#241145"/>
<path d="M140.976 136.414H140.18C139.167 136.414 138.345 137.294 138.345 138.379V199.995C138.345 201.08 139.167 201.959 140.18 201.959H140.976C141.989 201.959 142.81 201.08 142.81 199.995V138.379C142.81 137.294 141.989 136.414 140.976 136.414Z" fill="#352F4C"/>
<path d="M190.854 136.414H190.436C189.5 136.414 188.741 137.227 188.741 138.229V200.145C188.741 201.147 189.5 201.959 190.436 201.959H190.854C191.79 201.959 192.549 201.147 192.549 200.145V138.229C192.549 137.227 191.79 136.414 190.854 136.414Z" fill="#352F4C"/>
<path d="M194.992 194.28C194.258 194.28 193.663 193.862 193.663 193.345V144.763C193.663 144.245 194.258 143.828 194.992 143.828C195.725 143.828 196.32 144.245 196.32 144.763V193.345C196.32 193.862 195.725 194.28 194.992 194.28Z" fill="#B5B2C1"/>
<path d="M198.069 186.168C197.335 186.168 196.74 185.884 196.74 185.533V152.512C196.74 152.16 197.335 151.876 198.069 151.876C198.802 151.876 199.398 152.16 199.398 152.512V185.533C199.398 185.884 198.802 186.168 198.069 186.168Z" fill="#B5B2C1"/>
<path d="M135.689 194.945C136.423 194.945 137.018 194.527 137.018 194.01V145.428C137.018 144.911 136.423 144.493 135.689 144.493C134.956 144.493 134.36 144.911 134.36 145.428V194.01C134.36 194.527 134.956 194.945 135.689 194.945Z" fill="#B5B2C1"/>
<path d="M132.612 186.832C133.346 186.832 133.941 186.548 133.941 186.196V153.175C133.941 152.824 133.346 152.54 132.612 152.54C131.878 152.54 131.283 152.824 131.283 153.175V186.196C131.283 186.548 131.878 186.832 132.612 186.832Z" fill="#B5B2C1"/>
<path d="M144.767 207.474C144.738 207.474 144.707 207.474 144.676 207.469C144.113 207.415 143.698 206.872 143.747 206.255C144.585 195.737 146.761 168.108 146.761 166.602C146.761 165.983 147.218 165.48 147.782 165.48C148.347 165.48 148.804 165.982 148.804 166.602C148.804 168.512 145.905 204.902 145.782 206.45C145.735 207.034 145.289 207.474 144.765 207.474H144.767Z" fill="#9A1C1F"/>
<path d="M186.417 207.274C185.88 207.274 185.431 206.828 185.398 206.247L183.084 165.818C183.05 165.215 183.478 164.697 184.04 164.658C184.616 164.637 185.088 165.08 185.122 165.684L187.436 206.114C187.471 206.717 187.043 207.236 186.48 207.274C186.459 207.274 186.438 207.274 186.417 207.274Z" fill="#9A1C1F"/>
<path d="M158.831 204.688H144.35V207.473H158.831V204.688Z" fill="#9A1C1F"/>
<path d="M186.418 204.47H165.698V207.265H186.418V204.47Z" fill="#9A1C1F"/>
<path d="M187.067 162.025H144.341V166.6H187.067V162.025Z" fill="#270708"/>
<path d="M144.686 137.76L144.381 164.313L151.187 149.048V134.48L144.686 137.76Z" fill="#270708"/>
<path d="M144.341 162.025L151.307 148.4L185.395 148.998C185.395 148.998 187.531 162.025 187.067 162.025H144.341Z" fill="#523939"/>
<path d="M174.159 200.908C174.159 200.908 173.263 208.312 173.263 209.435C173.263 210.558 173.12 212.169 173.712 212.801C174.302 213.433 179.61 211.567 179.61 209.548C179.61 207.53 178.457 200.909 178.457 200.909H174.159V200.908Z" fill="#FC7575"/>
<path d="M177.886 101.495C180.769 99.9473 180.795 98.4445 180.83 98.3992C181.03 96.7466 178.431 93.7618 177.347 92.5707C178.779 93.6277 180.766 95.491 181.449 97.1645C182.362 99.4684 180.343 101.516 178.211 102.363L177.887 101.497L177.886 101.495Z" fill="#231919"/>
<path d="M169.856 87.7819C169.856 87.7819 172.424 88.6212 173.948 90.2529C175.472 91.8846 176.734 94.5403 176.428 97.1037C176.124 99.667 175.47 100.134 175.47 100.134C175.47 100.134 176.911 103.723 176.474 106.798C176.036 109.873 172.772 112.811 170.638 113.229C170.638 113.229 173.597 109.593 173.205 107.683C173.205 107.683 171.072 110.805 168.94 112.017C166.808 113.229 158.361 112.017 158.057 113.602C158.057 113.602 155.271 113.741 153.487 108.708C151.702 103.676 156.621 99.108 156.621 99.108C156.621 99.108 152.79 101.299 150.788 98.3627C148.786 95.4267 152.224 93.1419 152.398 93.33C152.572 93.5163 151.048 96.1737 152.834 96.872C154.619 97.5703 155.033 94.751 157.841 91.7453C160.648 88.7396 168.506 86.3382 169.856 87.7836V87.7819Z" fill="#312E78"/>
<path d="M168.942 112.017C169.405 111.754 169.867 111.4 170.308 111.009C170.368 107.294 170.993 102.641 171.916 98.8745C173.572 92.1213 169.116 89.093 166.025 91.8932C163.117 94.5262 162.177 92.1736 158.618 100.37C155.059 108.567 158.059 113.602 158.059 113.602C158.363 112.017 166.808 113.229 168.942 112.017Z" fill="#321F48"/>
<path d="M162.893 113.003C158.709 112.848 148.222 111.775 139.938 105.229C127.866 95.6896 125.629 90.5751 125.629 90.5751C125.629 90.5751 125.677 88.2747 125.311 87.1062C124.946 85.9377 125.016 84.2346 124.341 84.4766C123.666 84.7187 124.037 86.2146 124.193 86.7161C124.249 86.892 124.179 87.0208 124.065 87.1166C123.767 87.3656 123.328 87.2664 123.12 86.9303C122.907 86.589 122.614 85.9725 122.266 84.8632C121.536 82.5262 120.713 80.4958 120.434 81.0896C120.158 81.6834 121.618 85.7043 121.879 86.5402C122.139 87.3743 120.125 83.4318 119.223 81.8366C118.32 80.2415 118.016 81.3717 118.57 82.225C119.125 83.0783 121.139 86.9965 120.852 87.0992C120.566 87.2019 118.113 82.8205 117.412 83.073C116.711 83.3238 117.599 83.8933 118.004 84.5741C118.409 85.255 120.254 87.1114 119.953 87.754C119.953 87.754 117.136 85.6207 117.207 86.0857C117.243 86.3173 119.811 89.1541 120.996 90.2268C123.782 92.7518 135.68 110.096 140.388 112.595C144.978 115.031 157.027 123.509 161.798 122.143C164.916 118.356 164.194 117.166 162.893 113.001V113.003Z" fill="#FD5E5A"/>
<path d="M170.62 113.003C174.803 112.848 185.291 111.775 193.575 105.229C205.647 95.6896 207.883 90.5751 207.883 90.5751C207.883 90.5751 207.836 88.2747 208.202 87.1062C208.566 85.9377 208.496 84.2346 209.171 84.4766C209.846 84.7187 209.476 86.2146 209.319 86.7161C209.264 86.892 209.334 87.0208 209.448 87.1166C209.746 87.3656 210.185 87.2664 210.393 86.9303C210.606 86.589 210.899 85.9725 211.245 84.8632C211.976 82.5262 212.799 80.4958 213.077 81.0896C213.353 81.6834 211.893 85.7043 211.632 86.5402C211.372 87.3743 213.386 83.4318 214.288 81.8366C215.191 80.2415 215.495 81.3717 214.941 82.225C214.386 83.0783 212.372 86.9965 212.659 87.0992C212.945 87.2019 215.398 82.8205 216.099 83.073C216.8 83.3238 215.912 83.8933 215.507 84.5741C215.102 85.255 213.257 87.1114 213.558 87.754C213.558 87.754 216.375 85.6207 216.304 86.0857C216.268 86.3173 213.7 89.1541 212.516 90.2268C209.729 92.7518 197.831 110.096 193.123 112.595C188.533 115.031 176.484 123.509 171.713 122.143C168.595 118.356 169.317 117.166 170.618 113.001L170.62 113.003Z" fill="#FD5E5A"/>
<path d="M177.959 132.806C177.959 127.908 178.434 111.974 178.434 111.974C178.434 111.974 175.065 110.011 169.649 110.011C164.233 110.011 157.589 112.418 157.589 112.418C157.589 112.418 158.711 127.451 156.956 137.713C156.645 139.526 157.969 141.191 159.692 141.191H176.804C177.957 141.191 178.835 140.08 178.647 138.861C178.243 136.259 177.96 134.077 177.96 132.806H177.959Z" fill="#FFDA88"/>
<path d="M157.759 115.423H178.335C178.367 114.269 178.395 113.328 178.411 112.724H157.608C157.639 113.18 157.697 114.126 157.758 115.423H157.759Z" fill="#FFF7CF"/>
<path d="M157.927 121.036H178.183C178.208 120.108 178.23 119.199 178.255 118.337H157.87C157.894 119.178 157.915 120.083 157.927 121.036Z" fill="#FFF7CF"/>
<path d="M157.897 126.647H178.05C178.068 125.771 178.089 124.864 178.112 123.948H157.938C157.933 124.829 157.92 125.733 157.897 126.647Z" fill="#FFF7CF"/>
<path d="M157.611 132.259H177.959C177.964 131.516 177.975 130.595 177.993 129.56H157.787C157.741 130.462 157.683 131.366 157.611 132.259Z" fill="#FFF7CF"/>
<path d="M156.954 137.713C156.944 137.766 156.938 137.818 156.931 137.87H178.494C178.348 136.885 178.222 135.974 178.131 135.171H157.322C157.216 136.042 157.094 136.893 156.954 137.713Z" fill="#FFF7CF"/>
<path d="M159.69 141.191H176.802C177.23 141.191 177.62 141.038 177.931 140.784H158.283C158.694 141.041 159.174 141.191 159.69 141.191Z" fill="#FFF7CF"/>
<path d="M158.394 140.785C155.529 143.16 155.246 143.74 154.431 144.811C151.733 148.357 151.268 152.961 150.974 156.456C150.573 161.202 151.548 162.885 152.794 164.094C160.91 171.969 162.917 149.181 166.881 149.395C167.912 149.45 163.891 163.706 164.846 163.918C166.495 164.286 172.886 165.928 174.024 163.772C176.695 158.718 179.346 156.374 179.966 153.785C180.608 151.105 179.507 148.278 177.655 140.874L158.395 140.783L158.394 140.785Z" fill="#464A7F"/>
<path d="M166.085 158.941C166.085 158.941 169.625 156.059 173.645 159.03C176.002 160.77 177.183 190.544 177.936 192.075C178.688 193.606 180.929 192.956 179.846 194.639C178.762 196.321 178.595 197.35 179.325 197.888C180.054 198.426 180.457 199.344 179.992 200.065C179.527 200.786 179.616 202.447 179.616 202.447L173.262 203.696C173.262 203.696 172.077 199.626 171.955 198.915C171.833 198.205 170.727 196.324 170.727 196.324C170.727 196.324 172.868 194.539 171.523 193.545C170.178 192.551 171.001 190.499 170.549 187.861C170.096 185.223 162.192 160.23 166.085 158.941Z" fill="#6B6E99"/>
<path d="M164.158 101.95C164.158 101.95 165.428 109.262 164.158 111.667C162.888 114.072 165.394 123.19 167.019 122.608C168.644 122.027 171.363 112.764 170.308 111.011C169.252 109.257 170.249 102.673 170.249 102.673L164.156 101.952L164.158 101.95Z" fill="#FC7575"/>
<path d="M164.158 101.95C164.158 101.95 164.334 102.927 164.521 104.317C165.9 106.6 167.445 107.578 168.25 107.183C168.592 107.014 169.285 106.378 170.002 105.454C170.117 103.864 170.251 102.673 170.251 102.673L164.158 101.952V101.95Z" fill="#FD5E5A"/>
<path d="M163.021 90.765C163.021 90.765 161.889 92.3497 161.889 94.213C161.889 96.0763 161.627 99.7594 163.369 102.415C165.111 105.071 167.2 106.237 168.245 105.818C169.29 105.398 173.078 101.995 173.078 98.5474C173.078 95.0994 171.99 90.0179 170.64 89.7846C169.29 89.5512 164.109 90.3906 163.021 90.7633V90.765Z" fill="#FC8484"/>
<path d="M166.025 98.8746C166.025 99.3204 165.324 99.6827 164.459 99.6827C163.594 99.6827 162.893 99.3204 162.893 98.8746C162.893 98.4288 163.594 98.0666 164.459 98.0666C165.324 98.0666 166.025 98.4288 166.025 98.8746Z" fill="#FD5E5A"/>
<path d="M172.965 98.8746C172.965 99.3204 172.264 99.6827 171.399 99.6827C170.534 99.6827 169.833 99.3204 169.833 98.8746C169.833 98.4288 170.534 98.0666 171.399 98.0666C172.264 98.0666 172.965 98.4288 172.965 98.8746Z" fill="#FD5E5A"/>
<path d="M171.114 89.9689C171.114 89.9689 170.4 91.3934 168.811 93.0947C167.222 94.7961 162.891 94.5854 162.891 94.5854C162.891 94.5854 165.459 93.0947 165.199 92.8144C164.937 92.534 162.893 93.6572 161.414 95.2402L155.612 94.6881C155.612 94.6881 156.884 90.2963 160.018 87.921C163.153 85.544 167.549 85.0773 169.029 86.103C170.509 87.1287 172.194 88.877 172.194 88.877C172.194 88.877 171.349 88.8718 171.116 89.9689H171.114Z" fill="#312E78"/>
<path d="M166.025 101.919C166.025 101.919 169.086 102.089 169.508 101.638C169.508 101.638 169.023 102.788 168.351 103.068C167.679 103.348 167.31 103.188 167.011 103.068C166.546 102.882 166.024 101.919 166.024 101.919H166.025Z" fill="#432960"/>
<path d="M162.086 96.9869C162.086 96.9869 163.675 96.3809 164.35 96.7065C165.025 97.0322 165.7 97.6678 165.7 97.6678C165.7 97.6678 164.939 97.0322 164.155 97.0322C163.371 97.0322 162.087 96.9852 162.087 96.9852L162.086 96.9869Z" fill="#231919"/>
<path d="M162.086 95.2856C162.086 95.2856 164.262 94.7963 165.176 94.9826C166.09 95.169 166.798 95.4371 166.547 95.7053C166.297 95.9735 164.807 95.2856 164.067 95.2856H162.086Z" fill="#231919"/>
<path d="M162.086 96.9869C162.086 96.9869 163.675 96.3809 164.35 96.7065C165.025 97.0322 165.7 97.6678 165.7 97.6678C165.7 97.6678 164.939 97.0322 164.155 97.0322C163.371 97.0322 162.087 96.9852 162.087 96.9852L162.086 96.9869Z" fill="#231919"/>
<path d="M162.086 95.2856C162.086 95.2856 164.262 94.7963 165.176 94.9826C166.09 95.169 166.798 95.4371 166.547 95.7053C166.297 95.9735 164.807 95.2856 164.067 95.2856H162.086Z" fill="#2A2853"/>
<path d="M172.435 96.6369C172.435 96.6369 170.846 96.0309 170.171 96.3565C169.496 96.6822 168.821 97.3178 168.821 97.3178C168.821 97.3178 169.582 96.6822 170.366 96.6822C171.15 96.6822 172.434 96.6351 172.434 96.6351L172.435 96.6369Z" fill="#231919"/>
<path d="M172.98 94.8711C172.98 94.8711 170.804 94.3818 169.89 94.5681C168.976 94.7544 168.268 95.0226 168.519 95.2908C168.769 95.559 170.261 94.8711 171.001 94.8711H172.982H172.98Z" fill="#2A2853"/>
<path d="M153.15 201.634C153.15 201.634 154.046 209.038 154.046 210.161C154.046 211.285 154.189 212.895 153.597 213.527C153.007 214.16 147.699 212.293 147.699 210.273C147.699 208.253 148.853 201.634 148.853 201.634H153.15Z" fill="#FC7575"/>
<path d="M167.138 100.123C167.211 99.5119 167.253 98.899 167.204 98.2738C166.967 99.0975 166.936 99.7906 166.879 100.37C167.061 100.358 167.497 100.363 168.081 100.242C167.767 100.175 167.452 100.139 167.138 100.123Z" fill="#432960"/>
<path d="M144.204 216.673C143.435 216.673 142.81 216.004 142.81 215.18V140.845C142.81 140.021 143.435 139.352 144.204 139.352C144.973 139.352 145.598 140.021 145.598 140.845V215.18C145.598 216.004 144.973 216.673 144.204 216.673Z" fill="#ED1C24"/>
<path d="M187.662 216.673C186.893 216.673 186.269 216.004 186.269 215.18V140.845C186.269 140.021 186.893 139.352 187.662 139.352C188.432 139.352 189.056 140.021 189.056 140.845V215.18C189.056 216.004 188.432 216.673 187.662 216.673Z" fill="#ED1C24"/>
<path d="M186.482 133.797H184.603L185.307 138.572V140.944H190.722V138.572L186.482 133.797Z" fill="#523939"/>
<path d="M150.165 134.48L141.223 137.793V141.626H146.637V138.473L152.393 134.48H150.165Z" fill="#523939"/>
<path d="M151.185 156.12C153.386 154.556 156.391 154.953 158.903 157.79C161.416 160.629 159.344 165.865 158.408 170.821C157.471 175.777 154.858 187.95 155.053 189.573C155.248 191.194 156.473 193.038 155.601 194.534C154.729 196.03 154.508 195.631 155.287 196.887C156.066 198.144 155.385 198.802 155.175 199.915C154.965 201.028 153.843 204.364 153.843 204.364L147.797 203.055C147.797 203.055 148.679 196.824 147.626 194.069C146.574 191.314 148.7 186.301 148.853 185.491C149.006 184.681 147.307 183.262 147.976 179.721C148.644 176.181 149.99 156.966 151.185 156.118V156.12Z" fill="#6B6E99"/>
<path d="M152.394 134.48V137.562L146.637 141.626V138.473L152.394 134.48Z" fill="#1B0D34"/>
<path d="M184.603 133.797V137.37L185.307 140.944L185.53 138.053L184.603 133.797Z" fill="#1B0D34"/>
<path d="M164.857 97.3074C164.857 97.5929 164.641 97.8246 164.374 97.8246C164.108 97.8246 163.891 97.5929 163.891 97.3074C163.891 97.0218 164.108 96.7902 164.374 96.7902C164.641 96.7902 164.857 97.0218 164.857 97.3074Z" fill="#231919"/>
<path d="M170.628 97.1401C170.628 97.4327 170.449 97.6695 170.23 97.6695C170.01 97.6695 169.831 97.4327 169.831 97.1401C169.831 96.8476 170.01 96.6107 170.23 96.6107C170.449 96.6107 170.628 96.8476 170.628 97.1401Z" fill="#231919"/>
<path d="M162.086 98.4846C162.086 98.4846 161.848 97.6696 161.349 97.6696C160.85 97.6696 161.3 101.004 162.25 101.004C163.2 101.004 162.086 98.4846 162.086 98.4846Z" fill="#FC8484"/>
<path d="M161.887 98.6186C161.887 98.6186 161.624 98.2738 161.448 98.2738C161.272 98.2738 161.798 100.593 162.024 100.477C162.248 100.36 161.887 98.6186 161.887 98.6186Z" fill="#FD5E5A"/>
<path d="M159.017 97.8245C156.383 99.0087 152.572 101.297 151.85 104.259C151.047 107.352 151.922 112.36 154.022 112.982L153.648 114.223C150.734 113.112 150.191 107.411 151.268 104.059C151.795 102.352 153.142 101.051 154.57 100.083C155.969 99.1393 157.468 98.4009 159.013 97.8245H159.017Z" fill="#312E78"/>
<path d="M153.599 213.526C154.189 212.894 154.048 211.281 154.048 210.16C154.048 209.756 153.932 208.537 153.783 207.144C151.221 208.032 149.363 207.213 148.137 206.151C147.903 207.783 147.701 209.428 147.701 210.271C147.701 212.291 153.008 214.158 153.599 213.524V213.526Z" fill="#464A7F"/>
<path d="M179.61 209.547C179.61 208.8 179.452 207.42 179.252 205.98C178.076 207.615 175.869 209.818 173.37 207.962C173.305 208.655 173.263 209.191 173.263 209.435C173.263 210.557 173.12 212.169 173.712 212.801C174.302 213.434 179.61 211.567 179.61 209.548V209.547Z" fill="#464A7F"/>
<path d="M141.4 220C140.621 220 139.99 219.325 139.99 218.491V205.322C139.99 204.488 140.621 203.812 141.4 203.812C142.179 203.812 142.81 204.488 142.81 205.322V218.491C142.81 219.325 142.179 220 141.4 220Z" fill="#023135"/>
<path d="M190.151 220C189.372 220 188.741 219.325 188.741 218.491V205.322C188.741 204.488 189.372 203.812 190.151 203.812C190.93 203.812 191.561 204.488 191.561 205.322V218.491C191.561 219.325 190.93 220 190.151 220Z" fill="#023135"/>
</svg>
