<svg width="30" height="30" viewBox="0 0 30 30" fill="none" xmlns="http://www.w3.org/2000/svg">
<path d="M24.8656 3.29998H26.6656C26.8314 3.29998 26.9656 3.43424 26.9656 3.59998V5.39998C26.9656 7.38821 25.3539 8.99998 23.3656 8.99998H20.0656C18.0774 8.99998 16.4656 7.38821 16.4656 5.39998V3.59998C16.4656 3.43424 16.5999 3.29998 16.7656 3.29998H18.5656C18.897 3.29998 19.1656 3.03135 19.1656 2.69998C19.1656 2.3686 18.897 2.09998 18.5656 2.09998H16.7656C15.9372 2.09998 15.2656 2.77152 15.2656 3.59998V5.39998C15.2656 8.05093 17.4147 10.2 20.0656 10.2H23.3656C26.0166 10.2 28.1656 8.05093 28.1656 5.39998V3.59998C28.1656 2.77152 27.4941 2.09998 26.6656 2.09998H24.8656C24.5342 2.09998 24.2656 2.3686 24.2656 2.69998C24.2656 3.03135 24.5342 3.29998 24.8656 3.29998Z" fill="#00A9BF"/>
<path d="M21.2656 10.05V22.47C21.2656 23.2936 20.5892 23.97 19.7656 23.97H17.3656C17.0342 23.97 16.7656 24.2386 16.7656 24.57C16.7656 24.9013 17.0342 25.17 17.3656 25.17H19.7656C21.252 25.17 22.4656 23.9563 22.4656 22.47V10.05C22.4656 9.71857 22.197 9.44995 21.8656 9.44995C21.5342 9.44995 21.2656 9.71857 21.2656 10.05Z" fill="#00A9BF"/>
<path d="M16.7655 24.4499C16.7655 23.2072 15.7582 22.1999 14.5155 22.1999C13.2728 22.1999 12.2655 23.2072 12.2655 24.4499C12.2655 25.6927 13.2728 26.6999 14.5155 26.6999C15.7582 26.6999 16.7655 25.6927 16.7655 24.4499ZM17.9655 24.4499C17.9655 26.3554 16.421 27.9 14.5155 27.9C12.61 27.9 11.0655 26.3554 11.0655 24.4499C11.0655 22.5445 12.61 20.9999 14.5155 20.9999C16.421 20.9999 17.9655 22.5445 17.9655 24.4499ZM14.3611 10.2301C16.0012 11.8702 16.0012 14.5295 14.3611 16.1699L9.90608 20.6246C9.32046 21.2102 8.37057 21.2102 7.78495 20.6246L3.32989 16.1699C1.68983 14.5294 1.68983 11.8702 3.32998 10.23C4.83546 8.72488 7.19907 8.60107 8.8455 9.85867C10.4919 8.60107 12.8555 8.72488 14.3611 10.2301ZM8.42125 11.0786C7.24976 9.90713 5.35024 9.90713 4.17848 11.0786C3.00698 12.2501 3.00698 14.1496 4.17848 15.3214L8.63348 19.7761C8.75046 19.8931 8.94057 19.8931 9.05755 19.7761L13.5125 15.3214C14.684 14.1496 14.684 12.2501 13.5126 11.0787C12.3408 9.9071 10.4412 9.9071 9.26978 11.0786C9.03546 11.3129 8.65557 11.3129 8.42125 11.0786V11.0786Z" fill="#00A9BF"/>
</svg>
