<svg width="30" height="30" viewBox="0 0 30 30" fill="none" xmlns="http://www.w3.org/2000/svg">
<g clip-path="url(#clip0_1899_618)">
<path d="M7.91016 2.63672C4.125 4.08399 0.867188 5.33789 0.673828 5.41992C0.228516 5.60742 0.0292969 5.87109 0.0292969 6.26953C0.0292969 6.46289 0.0703125 6.60352 0.175781 6.75586C0.351562 7.01367 0.380859 7.03125 3.24023 8.0918L5.33203 8.86524V11.1914C5.33203 13.6875 5.34961 13.875 5.64844 14.4609C6.48047 16.0957 9.5332 17.3496 13.3887 17.6367C18.4102 18.0059 23.2559 16.6055 24.3516 14.4609C24.6504 13.875 24.668 13.6875 24.668 11.1914V8.86524L26.3848 8.23242C27.3223 7.88672 28.1309 7.58789 28.1719 7.57031C28.2246 7.55274 28.2422 8.68945 28.2422 13.1484C28.2422 18.6504 28.2422 18.7617 28.3594 18.9844C28.4941 19.248 28.8281 19.4531 29.1211 19.4531C29.4141 19.4531 29.748 19.248 29.8828 18.9844C30 18.7559 30 18.6504 30 12.4219C30 6.14063 30 6.08789 29.877 5.85352C29.7891 5.67188 29.6895 5.58399 29.4551 5.47852C28.6172 5.09766 15.1406 1.90735e-06 14.9824 0.00586128C14.877 0.00586128 11.6953 1.18946 7.91016 2.63672ZM19.6816 3.60938L24.2812 5.36133L19.5059 5.39063C14.1504 5.42578 14.4727 5.39649 14.2383 5.85938C14.0918 6.15234 14.0918 6.38672 14.2383 6.67969C14.4727 7.14258 14.1562 7.11328 19.459 7.14844L24.1816 7.17774L19.5879 8.88867L15 10.6055L9.24023 8.45508C6.07617 7.27734 3.46875 6.29297 3.44531 6.27539C3.39844 6.23438 14.9414 1.81641 15.0293 1.83985C15.0645 1.85156 17.1562 2.64844 19.6816 3.60938ZM10.9453 10.9688C13.834 12.0527 14.8008 12.3867 15 12.3867C15.1992 12.3867 16.166 12.0527 19.0547 10.9688C21.1406 10.1895 22.8633 9.55078 22.8809 9.55078C22.8984 9.55078 22.9102 10.4238 22.9102 11.4961V13.4355L22.7637 13.6875C22.2949 14.4844 20.4141 15.3164 18.2812 15.668C17.127 15.8613 16.5117 15.9023 15 15.9023C13.4883 15.9023 12.873 15.8613 11.7188 15.668C9.5918 15.3164 7.70508 14.4844 7.24219 13.6934L7.08984 13.4355V11.4961C7.08984 10.4238 7.10156 9.55078 7.11914 9.55078C7.13672 9.55078 8.85938 10.1895 10.9453 10.9688Z" fill="white"/>
<path d="M2.13858 21.293C1.49405 21.498 1.01358 21.9609 0.621 22.752C0.0760776 23.8594 -0.117282 25.2656 0.0877964 26.625C0.328031 28.207 0.954984 29.3789 1.78702 29.7832C2.34951 30.0645 2.51944 30.0527 3.96084 29.6895C6.91983 28.9336 9.29873 28.5527 12.2519 28.3594C13.4648 28.2832 16.6171 28.2773 17.7245 28.3594C21.0116 28.5879 24.0351 29.1035 26.8944 29.918C28.2597 30.3047 29.4784 29.0684 29.8886 26.8945C29.9823 26.4023 29.9823 24.8086 29.8886 24.3164C29.619 22.8867 28.9628 21.7793 28.1659 21.416C27.6034 21.1582 27.4804 21.1641 25.9276 21.5566C23.414 22.1836 21.6269 22.4941 18.8671 22.7754C17.2558 22.9395 12.6269 22.9219 10.8808 22.7461C8.19131 22.4766 5.85928 22.0547 3.50967 21.4102C2.71866 21.1934 2.50186 21.1758 2.13858 21.293ZM5.97647 23.7949C7.9042 24.1758 9.96084 24.4512 11.912 24.5859L12.4804 24.627L12.4394 24.8379C12.4101 24.9551 12.3925 25.3008 12.3925 25.6055C12.3925 25.9102 12.4101 26.2559 12.4394 26.373L12.4804 26.584L11.912 26.625C9.16983 26.8125 6.25772 27.2813 3.67373 27.9375L2.57803 28.2188L2.43741 28.0664C2.24405 27.873 2.02139 27.3691 1.89248 26.8652C1.75186 26.2969 1.75186 24.9141 1.89248 24.3457C2.02139 23.8418 2.24405 23.3379 2.43741 23.1445L2.57803 22.9922L3.67373 23.2734C4.28311 23.4258 5.31436 23.6602 5.97647 23.7949ZM27.8144 23.5137C28.1073 24.0938 28.2011 24.6152 28.2011 25.6055C28.2011 26.3496 28.1776 26.5957 28.078 26.9648C27.9374 27.4863 27.7265 27.9258 27.5272 28.1133L27.3808 28.2422L27.2284 28.125C27.0292 27.9668 26.748 27.3867 26.619 26.8652C26.4667 26.25 26.4843 24.8496 26.6483 24.2461C26.8007 23.6895 27.0175 23.25 27.2226 23.0918L27.3808 22.9688L27.5272 23.0977C27.6034 23.1738 27.7323 23.3613 27.8144 23.5137ZM24.9608 23.666C24.9608 23.6953 24.9198 23.918 24.8612 24.1523C24.7206 24.7734 24.7206 26.4023 24.8671 27.0586C24.9257 27.3281 24.9608 27.5625 24.9433 27.5742C24.9315 27.5859 24.5917 27.5332 24.1933 27.4512C21.4628 26.8945 18.9433 26.6133 16.0839 26.5547L14.3261 26.5137L14.244 26.3379C14.121 26.0977 14.121 25.1133 14.244 24.873L14.3261 24.6973L16.0839 24.6562C18.9433 24.5977 21.5917 24.3047 24.1405 23.7656C24.9315 23.6016 24.9608 23.5957 24.9608 23.666Z" fill="white"/>
</g>
<defs>
<clipPath id="clip0_1899_618">
<rect width="30" height="30" fill="white"/>
</clipPath>
</defs>
</svg>
