<svg width="30" height="30" viewBox="0 0 30 30" fill="none" xmlns="http://www.w3.org/2000/svg">
<g clip-path="url(#clip0_742_597)">
<path fill-rule="evenodd" clip-rule="evenodd" d="M18.75 23.75C18.7502 24.3807 18.512 24.9882 18.0831 25.4507C17.6543 25.9132 17.0664 26.1964 16.4375 26.2438L16.25 26.25H13.75C13.1193 26.2502 12.5118 26.012 12.0493 25.5831C11.5868 25.1543 11.3035 24.5664 11.2562 23.9375L11.25 23.75H18.75ZM15 2.5C17.2687 2.49996 19.4488 3.38112 21.0803 4.95759C22.7118 6.53407 23.6672 8.68261 23.745 10.95L23.75 11.25V15.955L26.0275 20.51C26.1269 20.7088 26.1766 20.9286 26.1725 21.1508C26.1683 21.373 26.1103 21.5908 26.0036 21.7857C25.8968 21.9806 25.7444 22.1467 25.5593 22.2698C25.3743 22.3929 25.1622 22.4693 24.9412 22.4925L24.7975 22.5H5.20249C4.9802 22.5001 4.7612 22.4462 4.56427 22.3431C4.36734 22.24 4.19834 22.0907 4.07177 21.9079C3.94519 21.7252 3.8648 21.5145 3.8375 21.2939C3.8102 21.0733 3.83679 20.8493 3.91499 20.6413L3.97249 20.51L6.24999 15.955V11.25C6.24999 8.92936 7.17187 6.70376 8.81281 5.06282C10.4538 3.42187 12.6793 2.5 15 2.5ZM15 5C13.3894 5.00009 11.841 5.62193 10.6778 6.73583C9.5145 7.84972 8.82614 9.36969 8.75624 10.9788L8.74999 11.25V15.955C8.75001 16.265 8.69236 16.5723 8.57999 16.8612L8.48624 17.0738L7.02374 20H22.9775L21.515 17.0725C21.3763 16.7953 21.2902 16.4948 21.2612 16.1863L21.25 15.955V11.25C21.25 9.5924 20.5915 8.00269 19.4194 6.83058C18.2473 5.65848 16.6576 5 15 5Z" fill="black"/>
</g>
<defs>
<clipPath id="clip0_742_597">
<rect width="30" height="30" fill="white"/>
</clipPath>
</defs>
</svg>
