<svg width="36" height="36" viewBox="0 0 36 36" fill="none" xmlns="http://www.w3.org/2000/svg">
<g filter="url(#filter0_d_744_726)">
<path d="M24.25 27.1875H11.75C6.2375 27.1875 4.5625 25.5125 4.5625 20V10C4.5625 4.4875 6.2375 2.8125 11.75 2.8125H24.25C29.7625 2.8125 31.4375 4.4875 31.4375 10V20C31.4375 25.5125 29.7625 27.1875 24.25 27.1875ZM11.75 4.6875C7.275 4.6875 6.4375 5.5375 6.4375 10V20C6.4375 24.4625 7.275 25.3125 11.75 25.3125H24.25C28.725 25.3125 29.5625 24.4625 29.5625 20V10C29.5625 5.5375 28.725 4.6875 24.25 4.6875H11.75Z" fill="#00A9BF"/>
<path d="M26.75 10.9373H20.5C19.9875 10.9373 19.5625 10.5123 19.5625 9.99984C19.5625 9.48734 19.9875 9.06234 20.5 9.06234H26.75C27.2625 9.06234 27.6875 9.48734 27.6875 9.99984C27.6875 10.5123 27.2625 10.9373 26.75 10.9373ZM26.75 15.9373H21.75C21.2375 15.9373 20.8125 15.5123 20.8125 14.9998C20.8125 14.4873 21.2375 14.0623 21.75 14.0623H26.75C27.2625 14.0623 27.6875 14.4873 27.6875 14.9998C27.6875 15.5123 27.2625 15.9373 26.75 15.9373ZM26.75 20.9373H24.25C23.7375 20.9373 23.3125 20.5123 23.3125 19.9998C23.3125 19.4873 23.7375 19.0623 24.25 19.0623H26.75C27.2625 19.0623 27.6875 19.4873 27.6875 19.9998C27.6875 20.5123 27.2625 20.9373 26.75 20.9373ZM13.625 15.0523C11.8625 15.0523 10.425 13.6148 10.425 11.8523C10.425 10.0898 11.8625 8.65234 13.625 8.65234C15.3875 8.65234 16.825 10.0898 16.825 11.8523C16.825 13.6148 15.3875 15.0523 13.625 15.0523ZM13.625 10.5273C12.9 10.5273 12.3 11.1273 12.3 11.8523C12.3 12.5773 12.9 13.1773 13.625 13.1773C14.35 13.1773 14.95 12.5773 14.95 11.8523C14.95 11.1273 14.35 10.5273 13.625 10.5273ZM18 21.3523C17.525 21.3523 17.1125 20.9898 17.0625 20.5023C16.9931 19.8423 16.6975 19.2265 16.2259 18.7594C15.7543 18.2924 15.1357 18.0028 14.475 17.9398C13.9011 17.8898 13.3239 17.8898 12.75 17.9398C11.3875 18.0648 10.3 19.1398 10.1625 20.5023C10.1125 21.0148 9.64997 21.4023 9.13747 21.3398C8.89066 21.3146 8.66392 21.1925 8.50693 21.0004C8.34995 20.8083 8.27553 20.5617 8.29997 20.3148C8.52497 18.0648 10.3125 16.2773 12.575 16.0773C13.2625 16.0148 13.9625 16.0148 14.65 16.0773C16.9 16.2898 18.7 18.0773 18.925 20.3148C18.9494 20.5617 18.875 20.8083 18.718 21.0004C18.561 21.1925 18.3343 21.3146 18.0875 21.3398C18.0625 21.3523 18.025 21.3523 18 21.3523Z" fill="#00A9BF"/>
</g>
<defs>
<filter id="filter0_d_744_726" x="-1" y="0" width="38" height="38" filterUnits="userSpaceOnUse" color-interpolation-filters="sRGB">
<feFlood flood-opacity="0" result="BackgroundImageFix"/>
<feColorMatrix in="SourceAlpha" type="matrix" values="0 0 0 0 0 0 0 0 0 0 0 0 0 0 0 0 0 0 127 0" result="hardAlpha"/>
<feOffset dy="4"/>
<feGaussianBlur stdDeviation="2"/>
<feComposite in2="hardAlpha" operator="out"/>
<feColorMatrix type="matrix" values="0 0 0 0 0 0 0 0 0 0 0 0 0 0 0 0 0 0 0.25 0"/>
<feBlend mode="normal" in2="BackgroundImageFix" result="effect1_dropShadow_744_726"/>
<feBlend mode="normal" in="SourceGraphic" in2="effect1_dropShadow_744_726" result="shape"/>
</filter>
</defs>
</svg>
