<svg width="70" height="70" viewBox="0 0 70 70" fill="none" xmlns="http://www.w3.org/2000/svg">
<path d="M52.5 37.9107H37.9166V52.4941C37.9166 53.2676 37.6094 54.0095 37.0624 54.5565C36.5154 55.1034 35.7735 55.4107 35 55.4107C34.2264 55.4107 33.4846 55.1034 32.9376 54.5565C32.3906 54.0095 32.0833 53.2676 32.0833 52.4941V37.9107H17.5C16.7264 37.9107 15.9846 37.6034 15.4376 37.0565C14.8906 36.5095 14.5833 35.7676 14.5833 34.9941C14.5833 34.2205 14.8906 33.4786 15.4376 32.9317C15.9846 32.3847 16.7264 32.0774 17.5 32.0774H32.0833V17.4941C32.0833 16.7205 32.3906 15.9786 32.9376 15.4317C33.4846 14.8847 34.2264 14.5774 35 14.5774C35.7735 14.5774 36.5154 14.8847 37.0624 15.4317C37.6094 15.9786 37.9166 16.7205 37.9166 17.4941V32.0774H52.5C53.2735 32.0774 54.0154 32.3847 54.5624 32.9317C55.1094 33.4786 55.4166 34.2205 55.4166 34.9941C55.4166 35.7676 55.1094 36.5095 54.5624 37.0565C54.0154 37.6034 53.2735 37.9107 52.5 37.9107Z" fill="#49494A"/>
</svg>
