<svg width="30" height="30" viewBox="0 0 30 30" fill="none" xmlns="http://www.w3.org/2000/svg">
<g clip-path="url(#clip0_1899_590)">
<path d="M24.3457 0.0644808C21.914 0.515653 20.2265 2.62503 20.3496 5.06253C20.414 6.35159 20.8945 7.41214 21.8086 8.30276C23.7539 10.1895 26.8418 10.1074 28.6933 8.12112C29.4785 7.27151 29.9004 6.29885 29.9824 5.15042C30.1757 2.34964 27.9023 -0.0351286 25.0781 0.00588703C24.8379 0.0117464 24.5097 0.0351839 24.3457 0.0644808ZM26.4375 1.18362C27.5918 1.61722 28.4882 2.543 28.8457 3.66214C28.9511 4.00784 28.9746 4.2012 28.9746 4.8926C28.9687 5.63089 28.9511 5.75393 28.8164 6.1055C28.5879 6.71487 28.3125 7.13089 27.8437 7.59964C27.5039 7.93948 27.3105 8.0801 26.8769 8.28518C26.1972 8.61331 25.834 8.69534 25.1367 8.68948C24.082 8.68362 23.1914 8.31448 22.4414 7.55862C21.6855 6.80862 21.3164 5.918 21.3105 4.86331C21.3047 4.19534 21.3867 3.81448 21.6738 3.19339C22.1484 2.168 23.0742 1.40042 24.1992 1.08987C24.4336 1.01956 24.7265 1.00198 25.2832 1.01956C25.9218 1.03128 26.1093 1.06057 26.4375 1.18362Z" fill="#00A9BF"/>
<path d="M24.6679 2.22656C24.6679 2.48438 24.6503 2.53125 24.5331 2.57227C24.287 2.66602 24.0058 2.95312 23.871 3.25195C23.6249 3.77344 23.7069 4.38281 24.0702 4.80469C24.3222 5.09766 24.6151 5.25586 25.0253 5.30859C25.5233 5.36719 25.7636 5.67773 25.5819 6.0293C25.4823 6.21094 25.3827 6.26953 25.1425 6.26953C24.9374 6.26953 24.7499 6.13477 24.703 5.94727C24.6679 5.80664 24.6503 5.80078 24.1991 5.80078C23.7597 5.80078 23.7304 5.80664 23.7304 5.92383C23.7304 6.33398 24.0585 6.84961 24.4569 7.06055C24.6561 7.16602 24.6679 7.19531 24.6679 7.45312V7.73438H25.1659H25.664L25.6698 7.45312C25.6698 7.18945 25.6815 7.17188 25.9452 7.00195C26.3436 6.74414 26.5663 6.35742 26.5897 5.86523C26.6073 5.53125 26.5897 5.4375 26.4433 5.15625C26.2206 4.74023 25.8866 4.48242 25.4472 4.40039C24.914 4.29492 24.8202 4.25391 24.7382 4.08398C24.5858 3.76172 24.8085 3.39844 25.1542 3.39844C25.3534 3.39844 25.5468 3.55078 25.6229 3.76172C25.6522 3.84961 25.7343 3.86719 26.1386 3.86719H26.619L26.5839 3.63281C26.537 3.26953 26.2792 2.88281 25.9511 2.67773C25.6698 2.50781 25.664 2.49609 25.664 2.2207V1.93359H25.1659H24.6679V2.22656Z" fill="#00A9BF"/>
<path d="M7.48242 1.54685C6.43945 1.84568 5.60742 2.71873 5.39648 3.73826C5.31445 4.14256 5.31445 5.53123 5.39648 5.92967C5.49609 6.3867 5.68945 6.78513 5.99414 7.16599L6.26953 7.49998V8.05076V8.6074L5.91211 9.21091C5.71289 9.5449 5.51953 9.84959 5.47852 9.8906C5.42578 9.95506 5.25 9.58006 4.64062 8.0742C3.9375 6.33982 3.87305 6.14646 3.84961 5.74217C3.80859 4.98045 3.43945 4.40623 2.77148 4.07224C2.47852 3.92576 2.36719 3.90232 1.93359 3.90232C1.53516 3.90232 1.38281 3.93162 1.16016 4.03709C0.744141 4.23631 0.398438 4.57615 0.205078 4.95701C0.0585938 5.25584 0.0351562 5.37303 0.0292969 5.80076C0.0292969 6.18748 0.0585938 6.3574 0.158203 6.56834C0.275391 6.82615 0.720703 7.33591 0.949219 7.47068C1.00195 7.50584 2.25586 10.4531 3.89062 14.414L6.73828 21.2988L5.99414 23.1562C5.46094 24.4863 5.22656 25.0195 5.16211 25.0195C5.10938 25.0195 4.85742 24.9551 4.59961 24.873C3.62109 24.5625 2.98242 24.6328 2.47852 25.0957C2.08594 25.459 1.96289 25.7226 1.96289 26.25C1.96289 26.7187 2.0625 26.9824 2.37305 27.3515C2.5957 27.6152 2.88867 27.7324 4.19531 28.0898C7.68164 29.0332 10.7168 29.5605 14.3555 29.8594C15.832 29.9824 22.7461 30.0469 23.127 29.9472C24.1934 29.6601 24.5332 28.2715 23.7188 27.498C23.3027 27.0937 23.4141 27.1054 19.7168 27.0644C17.8828 27.041 16.2891 27.0058 16.1895 26.9824L15.9961 26.9355V24.3691V21.7969L16.9453 21.8086L17.8887 21.8261L19.1309 23.8476C20.2734 25.6992 20.3965 25.8808 20.625 25.998C20.8711 26.1269 20.9297 26.1328 22.459 26.1328C23.5371 26.1328 24.1172 26.1094 24.2812 26.0625C24.5801 25.9687 24.9785 25.582 25.0781 25.2832C25.1953 24.9258 25.1309 24.416 24.9258 24.123C24.6738 23.7656 24.3926 23.6426 23.4141 23.4433C22.9336 23.3437 22.541 23.2617 22.5352 23.25C22.5234 23.2383 21.668 21.9023 20.6191 20.2734C19.5762 18.6445 18.6211 17.1972 18.4922 17.0625C18.3633 16.9219 18.123 16.7344 17.959 16.6523C17.6895 16.5117 17.5957 16.4941 16.834 16.4765L15.9961 16.4531V15.9609V15.4687H16.7051H17.4141L17.3906 14.9238C17.373 14.4726 17.3379 14.3203 17.1855 13.9922C16.9453 13.4765 16.5234 13.0547 16.0078 12.8144L15.6152 12.6269L14.2559 12.6094L12.9023 12.5918L12.5977 11.8769C11.9531 10.3711 11.4492 9.52732 10.6113 8.53709C10.0195 7.83396 10.002 7.71677 10.4062 7.21873C10.9688 6.53318 11.1328 5.98826 11.1328 4.83396C11.1328 3.95506 11.0391 3.48045 10.7754 2.9824C10.4531 2.37889 9.82617 1.84568 9.16992 1.61131C8.78906 1.47068 7.86328 1.44139 7.48242 1.54685ZM8.68945 2.49021C9.25781 2.6367 9.67969 2.9824 9.97266 3.53318C10.0957 3.7617 10.1074 3.84959 10.1074 4.83396C10.1074 5.86521 10.1016 5.89451 9.94922 6.18162C9.76172 6.5449 9.33984 6.94334 8.97656 7.1074C8.61914 7.2656 7.875 7.27732 7.5293 7.12498C6.91992 6.86131 6.51562 6.39256 6.35156 5.74217C6.22852 5.25584 6.26367 4.09568 6.41602 3.67967C6.52734 3.36912 6.93164 2.88279 7.23047 2.70115C7.43555 2.57224 7.96289 2.41404 8.20312 2.40818C8.28516 2.40232 8.50195 2.44334 8.68945 2.49021ZM2.38477 4.96287C2.9707 5.23826 3.06445 6.14646 2.54297 6.55662C2.05664 6.93748 1.2832 6.7617 1.05469 6.21091C0.949219 5.95896 1.00781 5.4492 1.16016 5.2324C1.40625 4.88084 1.96289 4.75779 2.38477 4.96287ZM3.99609 9.06443C4.40039 10.0605 5.55469 12.8906 6.5625 15.3633L8.39648 19.8633H10.7285H13.0664V20.332V20.8008H10.3242H7.57617L4.9043 14.3379C3.43945 10.7871 2.22656 7.84568 2.21484 7.79881C2.20312 7.75193 2.29688 7.6992 2.47266 7.65232C2.625 7.61131 2.84766 7.5117 2.9707 7.42381C3.09375 7.34177 3.21094 7.27146 3.22852 7.27146C3.24609 7.2656 3.5918 8.0742 3.99609 9.06443ZM8.20312 8.17381C8.50781 8.17381 8.85938 8.15037 8.98242 8.12693C9.19336 8.08006 9.19922 8.08591 9.19922 8.24412C9.19922 8.36716 9.30469 8.52537 9.59766 8.85349C10.3301 9.66795 10.7754 10.3066 11.2266 11.2031C11.4316 11.6133 11.8359 12.5215 11.8359 12.5742C11.8359 12.5918 11.6484 12.5976 11.4141 12.5859L10.998 12.5683L10.6934 11.6601C10.3477 10.6289 10.2188 10.3476 9.97852 10.1308C9.36328 9.55662 8.44922 9.53904 7.82812 10.084C7.41211 10.4531 7.29492 10.7109 7.29492 11.3086V11.8066L8.08008 13.6347L8.86523 15.4687H10.9688H13.0664V17.1679V18.8672H11.0508C9.49219 18.8672 9.0293 18.8496 9.00586 18.791C8.98828 18.7558 8.29688 17.0566 7.4707 15.0293C6.63867 12.9961 5.94727 11.2851 5.93555 11.2148C5.91797 11.1386 6.14062 10.7168 6.58594 9.96677L7.26562 8.84177V8.46091V8.0742L7.45898 8.12693C7.55859 8.15037 7.89844 8.17381 8.20312 8.17381ZM9.19922 10.7519C9.38672 10.8515 9.41602 10.9101 9.9375 12.4922L10.2773 13.5293L12.832 13.5469C15.6562 13.5644 15.5449 13.5527 15.9844 13.9687C16.1602 14.1269 16.3477 14.4082 16.3477 14.5019C16.3477 14.5195 14.8125 14.5312 12.9316 14.5312H9.52148L8.89453 13.0488C8.54883 12.2402 8.25 11.5136 8.23242 11.4375C8.17969 11.25 8.30273 10.9219 8.47852 10.7812C8.6543 10.6406 8.95898 10.6289 9.19922 10.7519ZM15 21.1816V26.9004L14.6953 26.8652C14.5254 26.8476 14.2969 26.8183 14.1973 26.8008L14.0039 26.7715V21.1582C14.0039 18.0703 14.0215 15.5273 14.0449 15.5097C14.0625 15.4863 14.291 15.4687 14.543 15.4687H15V21.1816ZM17.4961 17.5136C17.6309 17.5722 17.8066 17.7129 17.8828 17.8183C17.9883 17.959 20.9062 22.4941 21.9434 24.1289C21.9492 24.1406 23.9473 24.5508 24 24.5508C24.0059 24.5508 24.0586 24.5918 24.1055 24.6445C24.2227 24.7617 24.2227 24.9258 24.1055 25.0429C24.0293 25.125 23.8008 25.1367 22.541 25.1367H21.0645L19.1309 22.0019L17.2031 18.8672H16.5996H15.9961V18.1347V17.4023H16.6289C17.1152 17.4023 17.3086 17.4316 17.4961 17.5136ZM16.957 20.3027C17.1035 20.5488 17.2266 20.7597 17.2266 20.7715C17.2266 20.789 16.9512 20.8008 16.6113 20.8008H15.9961V20.332V19.8633H16.3418H16.6816L16.957 20.3027ZM8.94727 21.8672C8.93555 21.9082 8.625 22.7578 8.26172 23.7597C7.89844 24.7617 7.58789 25.5996 7.56445 25.623C7.50586 25.6816 6.21094 25.3594 6.21094 25.2832C6.21094 25.2539 6.52148 24.4511 6.89648 23.5136L7.58203 21.7969H8.2793C8.8125 21.7969 8.9707 21.8144 8.94727 21.8672ZM13.0664 24.2285C13.0664 26.4258 13.0547 26.6601 12.9727 26.6601C12.5742 26.6601 8.66016 25.9687 8.57227 25.8808C8.54297 25.8515 9.90234 22.0136 10.002 21.8379C10.0137 21.8144 10.7109 21.7969 11.5488 21.7969H13.0664V24.2285ZM4.74609 25.9277C8.7832 27.1113 12.9551 27.8086 17.168 28.0078C17.8594 28.0371 19.4355 28.0664 20.6719 28.0664H22.916L23.0566 28.2129C23.25 28.4004 23.2559 28.6992 23.0625 28.8808L22.9219 29.0156L18.9727 28.9863C14.7891 28.9629 14.3379 28.9394 11.8008 28.623C9.19336 28.2949 6.87305 27.8261 4.10156 27.0644C3.39844 26.8711 3.22266 26.8008 3.09375 26.6543C2.85938 26.4082 2.86523 26.0683 3.09961 25.834C3.3457 25.5879 3.64453 25.6054 4.74609 25.9277Z" fill="#00A9BF"/>
<path d="M28.0664 12.5684V15.4688H27.5684H27.0703V13.0664V10.6641H26.6016H26.1328V13.0664V15.4688H25.6348H25.1367V13.7695V12.0703H24.668H24.1992V13.7695V15.4688H23.7012H23.2031V14.502V13.5352H22.7344H22.2656V14.502V15.4688H21.7676H21.2695V15V14.5312H20.8008H20.332V15V15.4688H19.834H19.3359V15.9668V16.4648H24.668H30V15.9668V15.4688H29.502H29.0039V12.5684V9.66797H28.5352H28.0664V12.5684Z" fill="#00A9BF"/>
</g>
<defs>
<clipPath id="clip0_1899_590">
<rect width="30" height="30" fill="white"/>
</clipPath>
</defs>
</svg>
