<svg width="30" height="29" viewBox="0 0 30 29" fill="none" xmlns="http://www.w3.org/2000/svg">
<g clip-path="url(#clip0_744_737)">
<path fill-rule="evenodd" clip-rule="evenodd" d="M21.8579 25.7895C21.7911 25.8035 21.7225 25.8035 21.6563 25.7895H16.2012V27.757H21.9358V25.7895H21.8579ZM14.3127 4.24863H15.6874C15.9446 4.24863 16.1538 4.45898 16.1538 4.71504V6.4582H17.8969C18.1542 6.4582 18.3633 6.66855 18.3633 6.92461V8.29863C18.3633 8.55527 18.153 8.76621 17.8969 8.76621H16.1538V10.4689C16.1538 10.7262 15.9434 10.9354 15.6874 10.9354H14.3127C14.0555 10.9354 13.8458 10.725 13.8458 10.4689V8.76621H12.1026C11.8459 8.76621 11.6362 8.55527 11.6362 8.29863V6.92402C11.6362 6.6668 11.8465 6.45762 12.1026 6.45762H13.8458V4.71504C13.8458 4.45781 14.0555 4.24863 14.3127 4.24863ZM14.9743 0C17.737 1.75078 20.2325 2.5793 22.3741 2.38359C22.7479 9.94922 19.9541 14.417 15.003 16.2814C10.2217 14.5365 7.39341 10.2604 7.60317 2.26875C10.1174 2.40059 12.5842 1.85684 14.9743 0ZM14.9801 1.10859C17.2542 2.55059 19.6383 3.49453 21.4014 3.3334C21.7096 9.56309 19.0805 13.6371 15.0036 15.1723C11.0666 13.7355 8.40884 9.81973 8.58169 3.23906C10.8663 3.35859 13.1608 2.52246 14.9801 1.10859ZM16.2141 24.7922H21.5643C21.995 24.3645 22.4643 23.9203 22.9424 23.468C23.9461 22.5182 24.9932 21.5273 26.0708 20.2869C27.3018 18.8695 27.4331 18.3785 27.8051 16.9893C27.8754 16.7279 27.954 16.435 28.0571 16.0711L28.6958 13.8229L28.704 13.7971C29.045 12.7969 29.0719 12.1359 28.9295 11.7539C28.8856 11.6367 28.8288 11.5594 28.7643 11.5178C28.7122 11.4838 28.6459 11.4709 28.5739 11.4779C28.4063 11.4943 28.2188 11.601 28.0477 11.7867L26.1487 16.3102C26.1311 16.3523 26.1077 16.391 26.0813 16.4256C25.9682 16.6277 25.817 16.827 25.6219 17.0139L22.2516 20.7715C22.0688 20.976 21.7547 20.993 21.5502 20.8102C21.3463 20.6273 21.3288 20.3133 21.5116 20.1088L24.8825 16.3506C24.8959 16.333 24.9118 16.3166 24.9282 16.3008C25.2768 15.968 25.3875 15.6094 25.3266 15.3492C25.3073 15.2678 25.2721 15.2004 25.2229 15.1547C25.1772 15.1119 25.1151 15.0838 25.0401 15.0756C24.7401 15.0445 24.2965 15.2648 23.7575 15.9035L23.7563 15.9029C23.7416 15.9211 23.7252 15.9381 23.7065 15.9539L22.4004 17.107L22.394 17.1135C20.979 18.4506 20.3731 18.7682 19.2639 19.3482C19.0325 19.4695 18.777 19.6031 18.4635 19.7742C18.3399 19.8416 18.2174 19.9254 18.0973 20.0156C17.9696 20.1123 17.8495 20.2131 17.7323 20.3115C17.1475 20.8055 16.8399 21.2057 16.6629 21.648C16.4801 22.1068 16.4133 22.6664 16.3237 23.4334C16.2874 23.7422 16.2592 24.0492 16.2387 24.3527C16.2288 24.5027 16.2206 24.6486 16.2141 24.7922ZM13.786 24.7922H8.43638C8.00571 24.3645 7.53638 23.9203 7.05825 23.468C6.05395 22.5182 5.00688 21.5273 3.92935 20.2869C2.69888 18.8695 2.56704 18.3785 2.19497 16.9893C2.12466 16.7279 2.04614 16.435 1.94302 16.0711L1.30434 13.8229L1.29614 13.7971C0.955126 12.7969 0.928173 12.1359 1.07056 11.7539C1.1145 11.6367 1.17192 11.5594 1.23579 11.5178C1.28794 11.4838 1.35415 11.4709 1.42681 11.4779C1.5938 11.4943 1.7813 11.601 1.95239 11.7867L3.85142 16.3102C3.86899 16.3523 3.89243 16.391 3.91938 16.4256C4.03188 16.6277 4.18364 16.827 4.37876 17.0139L7.74849 20.7715C7.9313 20.976 8.24536 20.993 8.44985 20.8102C8.49851 20.7667 8.53811 20.714 8.56639 20.6552C8.59467 20.5964 8.61107 20.5326 8.61466 20.4675C8.61826 20.4023 8.60896 20.3371 8.58732 20.2756C8.56567 20.214 8.5321 20.1573 8.48853 20.1088L5.11821 16.3506C5.10415 16.333 5.08833 16.3166 5.07192 16.3008C4.72329 15.968 4.61255 15.6094 4.67349 15.3492C4.69282 15.2678 4.72856 15.2004 4.7772 15.1547C4.8229 15.1119 4.88501 15.0838 4.96001 15.0756C5.26001 15.0445 5.70415 15.2648 6.24263 15.9035L6.2438 15.9029C6.25845 15.9211 6.27544 15.9381 6.2936 15.9539L7.59966 17.107L7.60669 17.1135C9.02114 18.4506 9.62759 18.7682 10.7368 19.3482C10.9676 19.4695 11.2231 19.6031 11.5372 19.7742C11.6602 19.8416 11.7827 19.9254 11.9028 20.0156C12.0305 20.1123 12.1506 20.2131 12.2678 20.3115C12.8526 20.8055 13.1602 21.2057 13.3372 21.648C13.5206 22.1068 13.5868 22.6664 13.6764 23.4334C13.7127 23.7422 13.7409 24.0492 13.7614 24.3527C13.7713 24.5027 13.7795 24.6486 13.786 24.7922ZM8.14224 25.7895C8.20903 25.8035 8.27759 25.8035 8.3438 25.7895H13.7989V27.757H8.06431V25.7895H8.14224ZM7.1895 24.9633C7.10994 25.0538 7.06619 25.1703 7.06645 25.2908V28.2557C7.06645 28.5311 7.2897 28.7543 7.56567 28.7543H14.2975C14.5729 28.7543 14.7967 28.5311 14.7967 28.2557V25.2633C14.7967 24.9463 14.7756 24.6041 14.7545 24.2871C14.7329 23.9625 14.7036 23.6402 14.6661 23.3203C14.5676 22.4818 14.4956 21.8689 14.2606 21.2818C14.0198 20.6789 13.6301 20.1592 12.9106 19.5516C12.7788 19.4402 12.6434 19.3271 12.5028 19.2211C12.354 19.1086 12.1934 19.0002 12.0118 18.9018C11.7188 18.7418 11.4452 18.5982 11.1961 18.4682C10.1702 17.9314 9.60884 17.6373 8.28813 16.3887C8.27817 16.3793 8.26704 16.3699 8.25649 16.3611L6.98208 15.2367C6.20396 14.325 5.44224 14.0244 4.85747 14.0865H4.85513C4.57036 14.1164 4.32485 14.2277 4.13032 14.3982L2.8436 11.3332L2.84185 11.3338C2.82309 11.2893 2.7979 11.2471 2.76567 11.2084C2.41001 10.7812 1.95767 10.5316 1.52407 10.4883C1.22934 10.4596 0.943407 10.5223 0.694384 10.684C0.457079 10.8381 0.262548 11.0777 0.139501 11.407C-0.0743661 11.9807 -0.0696786 12.8707 0.349853 14.1047L0.984423 16.34C1.07642 16.6635 1.15903 16.9717 1.23227 17.2465C1.6477 18.7975 1.79536 19.3459 3.17817 20.9379C4.27329 22.1994 5.34731 23.2154 6.37563 24.1887C6.64868 24.4465 6.91763 24.7014 7.1895 24.9633ZM22.8112 24.9633C22.8903 25.054 22.9338 25.1704 22.9336 25.2908V28.2557C22.9336 28.5311 22.7104 28.7543 22.435 28.7543H15.7026C15.4272 28.7543 15.2034 28.5311 15.2034 28.2557V25.2633C15.2034 25.2457 15.2045 25.2275 15.2063 25.2105C15.2182 24.5788 15.2608 23.9479 15.334 23.3203C15.4325 22.4818 15.5051 21.8689 15.7395 21.2818C15.9803 20.6789 16.37 20.1592 17.0901 19.5516C17.2213 19.4402 17.3567 19.3271 17.4973 19.2211C17.6461 19.1086 17.8073 19.0002 17.9883 18.9018C18.2813 18.7418 18.5549 18.5982 18.804 18.4682C19.8299 17.9314 20.3913 17.6373 21.712 16.3887C21.7225 16.3793 21.7331 16.3699 21.7436 16.3611L23.018 15.2367C23.7961 14.325 24.5579 14.0244 25.1432 14.0865H25.145C25.4297 14.1164 25.6752 14.2277 25.8698 14.3982L27.1571 11.3332L27.1588 11.3338C27.177 11.2893 27.2022 11.2471 27.2344 11.2084C27.5901 10.7812 28.0424 10.5316 28.476 10.4883C28.7708 10.4596 29.0573 10.5223 29.3057 10.684C29.5436 10.8381 29.7375 11.0777 29.8606 11.407C30.075 11.9807 30.0698 12.8707 29.6508 14.1047L29.0157 16.34C28.9243 16.6635 28.8411 16.9717 28.7678 17.2465C28.3524 18.7975 28.2053 19.3459 26.8225 20.9379C25.7268 22.1994 24.6528 23.2154 23.6245 24.1887C23.352 24.4465 23.0825 24.7014 22.8112 24.9633Z" fill="#00A9BF"/>
</g>
<defs>
<clipPath id="clip0_744_737">
<rect width="30" height="28.7543" fill="white"/>
</clipPath>
</defs>
</svg>
