<svg width="275" height="257" viewBox="0 0 275 257" fill="none" xmlns="http://www.w3.org/2000/svg">
<path d="M74.4791 214.167C57.0625 214.167 42.2048 208.563 29.9062 197.355C17.6076 186.075 11.4583 172.333 11.4583 156.127C11.4583 142.207 15.9271 129.785 24.8646 118.862C33.8785 107.94 45.6423 100.979 60.1562 97.9812C64.9687 81.5617 74.5173 68.2834 88.8021 58.1462C103.163 47.9376 119.396 42.8333 137.5 42.8333C159.882 42.8333 178.826 50.1149 194.333 64.6783C209.917 79.1702 217.708 96.8746 217.708 117.792C230.924 119.219 241.847 124.574 250.479 133.854C259.187 142.992 263.542 153.7 263.542 165.979C263.542 179.4 258.538 190.787 248.531 200.139C238.524 209.491 226.34 214.167 211.979 214.167H148.958C142.694 214.167 137.309 212.061 132.802 207.849C128.295 203.708 126.042 198.675 126.042 192.75V137.602L107.708 154.2L91.6666 139.208L137.5 96.3749L183.333 139.208L167.292 154.2L148.958 137.602V192.75H211.979C220 192.75 226.76 190.144 232.26 184.933C237.837 179.793 240.625 173.475 240.625 165.979C240.625 158.483 237.837 152.165 232.26 147.025C226.76 141.814 220 139.208 211.979 139.208H194.792V117.792C194.792 103.014 189.215 90.3783 178.062 79.8841C166.91 69.4613 153.389 64.2499 137.5 64.2499C121.687 64.2499 108.167 69.4613 96.9375 79.8841C85.7847 90.3783 80.2083 103.014 80.2083 117.792H74.4791C63.4028 117.792 53.9687 121.468 46.1771 128.821C38.309 136.103 34.375 144.919 34.375 155.271C34.375 165.622 38.309 174.546 46.1771 182.042C53.9687 189.18 63.4028 192.75 74.4791 192.75H103.125V214.167" fill="#00A9BF" fill-opacity="0.75"/>
</svg>
