<svg width="250" height="250" viewBox="0 0 250 250" fill="none" xmlns="http://www.w3.org/2000/svg">
<g opacity="0.5">
<path d="M125 248.857C194.036 248.857 250 194.996 250 128.554C250 62.1124 194.036 8.25073 125 8.25073C55.9644 8.25073 0 62.1124 0 128.554C0 194.996 55.9644 248.857 125 248.857Z" fill="#FCE8E3"/>
<path d="M160 108.586H92.5V186.868H160V108.586Z" fill="#E2988F"/>
<path d="M232.5 190.358C197.399 174.795 159.135 169.192 159.135 169.192C141.584 187.468 108.889 187.712 93.365 169.192C93.365 169.192 55.1011 174.728 20 190.358C31.0911 208.568 46.6925 223.621 65.3015 234.067C83.9106 244.513 104.9 250 126.25 250C147.6 250 168.59 244.513 187.199 234.067C205.808 223.621 221.409 208.568 232.5 190.358Z" fill="white"/>
<path d="M165 169.192V244.95C193.146 235.182 217.032 215.697 232.5 189.885C210.823 180.472 188.184 173.532 165 169.192Z" fill="#F4BA5D"/>
<path d="M85 169.192C62.672 173.567 40.8725 180.532 20 189.96C34.9083 215.72 57.9036 235.174 85 244.95V169.192Z" fill="#F4BA5D"/>
<path d="M125.416 191.919H124.786C107.596 191.731 93.1103 183.801 85 170.16L86.4419 169.216C94.2143 182.338 108.205 189.961 124.741 190.149C142.02 190.315 157.925 182.314 166.081 169.192L167.5 170.16C159.209 183.636 143.169 191.919 125.416 191.919Z" fill="#EABFB9"/>
<path d="M188.969 71.2211C185.375 62.6888 177.944 66.8456 177.944 66.8456C182.199 28.1002 162.332 2.52515 125.022 2.52515C87.7121 2.52515 67.9326 28.1002 72.1002 66.8456C72.1002 66.8456 64.7573 62.6669 61.0748 71.2211C57.3923 79.7753 64.0296 99.6621 68.0869 106.072C69.048 107.811 70.6144 109.143 72.4933 109.82C74.3722 110.496 76.4351 110.47 78.2964 109.748C78.2964 109.748 79.7958 124.362 81.6702 129.306C83.5445 134.251 104.801 157.069 111.042 160.548C119.223 165.339 131.284 165.339 138.649 160.548C144.89 157.069 166.124 134.294 167.999 129.306C169.873 124.318 171.35 109.485 171.35 109.485C173.177 110.29 175.241 110.387 177.136 109.755C179.03 109.123 180.617 107.809 181.582 106.072C185.948 99.7715 192.563 79.7753 188.969 71.2211Z" fill="#E2988F"/>
<path d="M126.598 166.66C121.418 166.711 116.314 165.581 111.792 163.382C107.934 161.431 99.0952 153.801 92.5 147.44L93.7562 146.464C100.486 152.923 109.1 160.377 112.622 162.075C120.698 166.192 132.632 166.211 139.833 162.075C143.422 160.318 152.059 152.865 158.766 146.464L160 147.44C153.427 153.801 144.566 161.489 140.708 163.382C136.461 165.625 131.565 166.762 126.598 166.66Z" fill="#C46966"/>
<path d="M78.7337 101.527L77.0703 101.711L78.1152 110.883L79.7786 110.699L78.7337 101.527Z" fill="#C46966"/>
<path d="M173.187 101.55L172.239 110.467L173.903 110.639L174.852 101.722L173.187 101.55Z" fill="#C46966"/>
<path d="M66.9957 90.9094C66.4721 89.532 62.1525 77.2564 68.1409 73.9941C68.7948 73.6374 69.5516 73.3972 70.3521 73.2924C71.1525 73.1876 71.9749 73.221 72.755 73.39C73.849 73.7688 74.8311 74.3031 75.6453 74.9624C76.4595 75.6217 77.0897 76.393 77.5 77.2322L75.2093 77.8846C74.6254 76.6896 73.4584 75.6986 71.9369 75.1057C71.515 75.0274 71.0744 75.0215 70.6489 75.0885C70.2235 75.1556 69.8245 75.2937 69.4826 75.4923C66.0139 77.4255 67.5192 85.7382 69.2863 90.5228L66.9957 90.9094Z" fill="#C46966"/>
<path d="M185.546 90.9094L183.163 90.4288C184.926 85.6226 186.428 77.4039 182.934 75.4333C182.597 75.2488 182.206 75.1246 181.792 75.0704C181.379 75.0161 180.954 75.0334 180.551 75.1209C178.592 75.5775 177.286 77.8365 177.286 77.8605L175 77.2117C175.405 76.3752 176.032 75.6064 176.844 74.9504C177.657 74.2943 178.64 73.7641 179.734 73.3907C180.5 73.2234 181.308 73.1883 182.095 73.2884C182.882 73.3884 183.628 73.6208 184.273 73.9674C190.379 77.3318 186.036 89.5396 185.546 90.9094Z" fill="#C46966"/>
<path d="M78.3853 88.3837C89.2091 88.3837 81.0263 51.5191 89.5338 42.594C93.8634 38.0287 156.469 38.2341 160.625 42.594C169.133 51.5191 160.928 88.4294 171.774 88.3837C171.016 79.8466 170.994 70.4878 176.947 67.1095C181.104 26.684 161.621 0 124.993 0C88.3649 0 68.9468 26.684 73.0383 67.1095C78.0389 70.4193 79.1429 79.4358 78.3853 88.3837Z" fill="#4C224B"/>
<path d="M126.25 98.4866C126.25 98.4866 98.6398 97.973 97.5 113.636H155C153.86 97.973 126.25 98.4866 126.25 98.4866Z" fill="#4C224B"/>
<path d="M125 248.857C194.036 248.857 250 194.996 250 128.554C250 62.1124 194.036 8.25073 125 8.25073C55.9644 8.25073 0 62.1124 0 128.554C0 194.996 55.9644 248.857 125 248.857Z" fill="#FCE8E3"/>
<path d="M160 108.586H92.5V186.868H160V108.586Z" fill="#E2988F"/>
<path d="M232.5 190.358C197.399 174.795 159.135 169.192 159.135 169.192C141.584 187.468 108.889 187.712 93.365 169.192C93.365 169.192 55.1011 174.728 20 190.358C31.0911 208.568 46.6925 223.621 65.3015 234.067C83.9106 244.513 104.9 250 126.25 250C147.6 250 168.59 244.513 187.199 234.067C205.808 223.621 221.409 208.568 232.5 190.358Z" fill="white"/>
<path d="M165 169.192V244.95C193.146 235.182 217.032 215.697 232.5 189.885C210.823 180.472 188.184 173.532 165 169.192Z" fill="#F4BA5D"/>
<path d="M85 169.192C62.672 173.567 40.8725 180.532 20 189.96C34.9083 215.72 57.9036 235.174 85 244.95V169.192Z" fill="#F4BA5D"/>
<path d="M125.416 191.919H124.786C107.596 191.731 93.1103 183.801 85 170.16L86.4419 169.216C94.2143 182.338 108.205 189.961 124.741 190.149C142.02 190.315 157.925 182.314 166.081 169.192L167.5 170.16C159.209 183.636 143.169 191.919 125.416 191.919Z" fill="#EABFB9"/>
<path d="M188.969 71.2211C185.375 62.6888 177.944 66.8456 177.944 66.8456C182.199 28.1002 162.332 2.52515 125.022 2.52515C87.7121 2.52515 67.9326 28.1002 72.1002 66.8456C72.1002 66.8456 64.7573 62.6669 61.0748 71.2211C57.3923 79.7753 64.0296 99.6621 68.0869 106.072C69.048 107.811 70.6144 109.143 72.4933 109.82C74.3722 110.496 76.4351 110.47 78.2964 109.748C78.2964 109.748 79.7958 124.362 81.6702 129.306C83.5445 134.251 104.801 157.069 111.042 160.548C119.223 165.339 131.284 165.339 138.649 160.548C144.89 157.069 166.124 134.294 167.999 129.306C169.873 124.318 171.35 109.485 171.35 109.485C173.177 110.29 175.241 110.387 177.136 109.755C179.03 109.123 180.617 107.809 181.582 106.072C185.948 99.7715 192.563 79.7753 188.969 71.2211Z" fill="#E2988F"/>
<path d="M126.598 166.66C121.418 166.711 116.314 165.581 111.792 163.382C107.934 161.431 99.0952 153.801 92.5 147.44L93.7562 146.464C100.486 152.923 109.1 160.377 112.622 162.075C120.698 166.192 132.632 166.211 139.833 162.075C143.422 160.318 152.059 152.865 158.766 146.464L160 147.44C153.427 153.801 144.566 161.489 140.708 163.382C136.461 165.625 131.565 166.762 126.598 166.66Z" fill="#C46966"/>
<path d="M78.7338 101.527L77.0704 101.711L78.1153 110.883L79.7787 110.699L78.7338 101.527Z" fill="#C46966"/>
<path d="M173.187 101.55L172.239 110.467L173.903 110.639L174.852 101.722L173.187 101.55Z" fill="#C46966"/>
<path d="M66.9957 90.9094C66.4721 89.532 62.1525 77.2564 68.1409 73.9941C68.7948 73.6374 69.5516 73.3972 70.3521 73.2924C71.1525 73.1876 71.9749 73.221 72.755 73.39C73.849 73.7688 74.8311 74.3031 75.6453 74.9624C76.4595 75.6217 77.0897 76.393 77.5 77.2322L75.2093 77.8846C74.6254 76.6896 73.4584 75.6986 71.9369 75.1057C71.515 75.0274 71.0744 75.0215 70.6489 75.0885C70.2235 75.1556 69.8245 75.2937 69.4826 75.4923C66.0139 77.4255 67.5192 85.7382 69.2863 90.5228L66.9957 90.9094Z" fill="#C46966"/>
<path d="M185.546 90.9094L183.163 90.4288C184.926 85.6226 186.428 77.4039 182.934 75.4333C182.597 75.2488 182.206 75.1246 181.792 75.0704C181.379 75.0161 180.954 75.0334 180.551 75.1209C178.592 75.5775 177.286 77.8365 177.286 77.8605L175 77.2117C175.405 76.3752 176.032 75.6064 176.844 74.9504C177.657 74.2943 178.64 73.7641 179.734 73.3907C180.5 73.2234 181.308 73.1883 182.095 73.2884C182.882 73.3884 183.628 73.6208 184.273 73.9674C190.379 77.3318 186.036 89.5396 185.546 90.9094Z" fill="#C46966"/>
<path d="M78.3853 88.3837C89.2091 88.3837 81.0263 51.5191 89.5338 42.594C93.8634 38.0287 156.469 38.2341 160.625 42.594C169.133 51.5191 160.928 88.4294 171.774 88.3837C171.016 79.8466 170.994 70.4878 176.947 67.1095C181.104 26.684 161.621 0 124.993 0C88.3649 0 68.9468 26.684 73.0383 67.1095C78.0389 70.4193 79.1429 79.4358 78.3853 88.3837Z" fill="#4C224B"/>
</g>
</svg>
