<svg width="24" height="24" viewBox="0 0 24 24" fill="none" xmlns="http://www.w3.org/2000/svg">
<path d="M10.7732 15.7268L10.95 15.9036L11.1268 15.7268L16.7768 10.0768L16.9536 9.9L16.7768 9.72322L15.3518 8.29822L15.175 8.12145L14.9982 8.29822L10.95 12.3464L9.02678 10.4232L8.85 10.2464L8.67322 10.4232L7.24822 11.8482L7.07145 12.025L7.24822 12.2018L10.7732 15.7268ZM6.46525 17.865L6.46519 17.865C4.98718 15.8325 4.25 13.5798 4.25 11.1V5.17325L12 2.267L19.75 5.17325V11.1C19.75 13.5798 19.0131 15.8325 17.5358 17.865C16.0721 19.8784 14.2281 21.1662 12 21.742C9.77188 21.1662 7.92821 19.8784 6.46525 17.865Z" fill="#AEE8F1" fill-opacity="0.4" stroke="black" stroke-width="0.5"/>
</svg>
