<svg width="30" height="30" viewBox="0 0 30 30" fill="none" xmlns="http://www.w3.org/2000/svg">
<g clip-path="url(#clip0_1899_625)">
<path d="M4.15283 0.0549545C2.55908 0.371361 1.29346 1.48464 0.789551 3.00808C0.33252 4.40847 0.61377 5.90261 1.55713 7.09207C1.80908 7.40847 2.24268 7.79519 2.56494 8.00027C2.68213 8.07058 2.77588 8.14675 2.77588 8.17019C2.77588 8.19363 2.69385 8.28738 2.59424 8.38699C2.35986 8.60964 1.68604 9.51199 1.40479 9.98074C0.725098 11.1057 0.285645 12.3362 0.074707 13.6546C-0.0249023 14.2698 -0.0249023 15.9221 0.074707 16.555C0.578613 19.8245 2.60596 22.596 5.57666 24.0784C6.41455 24.5003 7.54541 24.8518 8.51807 24.9983C9.06299 25.0803 10.6919 25.1038 11.0728 25.0393L11.3188 24.9925L11.5122 25.303C12.854 27.4241 14.981 28.9886 17.395 29.6214C20.9399 30.5471 24.6313 29.5159 27.1567 26.885C30.2388 23.68 30.8364 18.8401 28.6157 15.0022C28.2876 14.4397 27.6196 13.5198 27.3325 13.2503C27.2329 13.1507 27.1509 13.0569 27.1509 13.0335C27.1509 13.01 27.2798 12.9104 27.4438 12.805C27.9536 12.4768 28.5688 11.762 28.8677 11.1526C29.2485 10.3792 29.3364 9.93386 29.3071 9.04324C29.2603 7.82449 28.9028 7.00418 28.0298 6.11941C27.6138 5.69753 27.4438 5.57449 26.9751 5.34597C26.3364 5.02956 25.9028 4.90652 25.2642 4.85378C23.5767 4.71902 21.8306 5.72097 21.0923 7.25027C20.7407 7.97097 20.6353 8.44558 20.6353 9.30105V9.99246H19.9438C19.5688 9.99246 19.1001 10.01 18.9126 10.0276L18.5669 10.0628L18.3325 9.68777C17.1665 7.84793 15.2446 6.35378 13.1528 5.65652C12.0806 5.2991 11.4419 5.18777 10.2583 5.14675C9.33252 5.11745 9.22119 5.09988 9.25049 5.01785C9.26807 4.96511 9.28564 4.66042 9.28564 4.33816C9.27979 3.05495 8.79346 1.97097 7.83252 1.09206C7.39893 0.687767 6.61377 0.265892 6.02783 0.119408C5.52393 -0.0094986 4.64502 -0.0387955 4.15283 0.0549545ZM5.62939 2.6155C6.02783 2.76785 6.43799 3.15456 6.64307 3.57644C6.854 4.02175 6.84814 4.68972 6.62549 5.14089C5.93408 6.553 3.95361 6.553 3.26221 5.14089C3.04541 4.68972 3.03369 4.02175 3.23877 3.5823C3.66064 2.68581 4.69189 2.2698 5.62939 2.6155ZM25.645 7.47293C26.0903 7.64285 26.4067 7.93582 26.6353 8.39871C26.8052 8.73855 26.8286 8.84402 26.8228 9.23074C26.8169 9.54128 26.7817 9.75222 26.6938 9.94558C26.1782 11.094 24.6782 11.428 23.7583 10.6018C22.8325 9.7698 22.9263 8.35183 23.9517 7.66043C24.1099 7.56082 24.3149 7.44949 24.4204 7.42019C24.7485 7.32644 25.311 7.34988 25.645 7.47293ZM11.272 7.74246C12.6372 7.97683 13.979 8.6448 14.9927 9.59402C15.4438 10.0159 16.0181 10.6604 16.0181 10.7425C16.0181 10.7718 15.8657 10.8596 15.6841 10.9534C12.5552 12.471 10.4985 15.3128 10.0415 18.7405C9.9126 19.7483 9.99463 21.219 10.2407 22.262L10.3228 22.6077L9.57861 22.5725C7.94971 22.5022 6.68408 22.0218 5.31885 20.9729C3.95361 19.9182 2.99854 18.3772 2.61768 16.6136C2.47119 15.9163 2.47119 14.3225 2.61768 13.6253C3.479 9.6116 7.24658 7.05105 11.272 7.74246ZM21.3032 12.5999C22.229 12.7639 23.4067 13.2503 24.2388 13.8128C24.7485 14.1526 25.7856 15.2073 26.1372 15.7346C26.6938 16.5725 27.0923 17.4983 27.3032 18.4886C27.438 19.1155 27.4556 20.7093 27.3325 21.3303C26.7466 24.2952 24.6138 26.5218 21.6548 27.2659C21.0981 27.4007 20.9165 27.4182 20.0024 27.4241C18.9302 27.4241 18.4614 27.3596 17.6528 27.096C17.1079 26.9202 16.2583 26.5042 15.772 26.1819C15.2798 25.8538 14.4653 25.1038 14.1079 24.6468L13.856 24.3303L14.4653 24.0198C16.8325 22.8245 18.6665 20.68 19.4634 18.1897C19.8325 17.0354 19.9087 16.5315 19.9087 15.178C19.9087 13.9886 19.8442 13.3675 19.6567 12.7053C19.6274 12.6057 19.6216 12.5061 19.6392 12.4827C19.6919 12.43 20.7466 12.5061 21.3032 12.5999ZM17.2778 13.5139C17.7993 15.9397 17.1079 18.4358 15.4146 20.2229C14.8228 20.8499 14.1021 21.3948 13.3638 21.7757C13.0474 21.9397 12.7778 22.0628 12.7661 22.0511C12.7603 22.0452 12.7075 21.846 12.6606 21.6233C11.9927 18.6468 13.1704 15.5999 15.6665 13.8303C15.9653 13.6194 17.0376 13.0393 17.1313 13.0393C17.1548 13.0393 17.2192 13.2503 17.2778 13.5139Z" fill="#00A9BF"/>
</g>
<defs>
<clipPath id="clip0_1899_625">
<rect width="30" height="30" fill="white"/>
</clipPath>
</defs>
</svg>
